SplineFontDB: 3.2
FontName: Pretension-ExtraLightItalic
FullName: Pretension ExtraLight Italic
FamilyName: Pretension ExtraLight
Weight: Extra-Light
Copyright: Copyright 2016 The Inter Project Authors
Version: 4.000;git-a52131595
ItalicAngle: -9.39999
UnderlinePosition: -379
UnderlineWidth: 77
Ascent: 1638
Descent: 410
InvalidEm: 0
sfntRevision: 0x00040000
LayerCount: 2
Layer: 0 1 "Back" 1
Layer: 1 1 "Fore" 0
XUID: [1021 89 -1234937351 11977891]
StyleMap: 0x0001
FSType: 0
OS2Version: 4
OS2_WeightWidthSlopeOnly: 0
OS2_UseTypoMetrics: 1
CreationTime: 1700438797
ModificationTime: 1707706406
PfmFamily: 17
TTFWeight: 200
TTFWidth: 5
LineGap: 0
VLineGap: 0
Panose: 2 0 5 3 0 0 0 2 0 4
OS2TypoAscent: 1984
OS2TypoAOffset: 0
OS2TypoDescent: -494
OS2TypoDOffset: 0
OS2TypoLinegap: 0
OS2WinAscent: 1984
OS2WinAOffset: 0
OS2WinDescent: 494
OS2WinDOffset: 0
HheadAscent: 1984
HheadAOffset: 0
HheadDescent: -494
HheadDOffset: 0
OS2SubXSize: 1331
OS2SubYSize: 1229
OS2SubXOff: -25
OS2SubYOff: 154
OS2SupXSize: 1331
OS2SupYSize: 1229
OS2SupXOff: 119
OS2SupYOff: 717
OS2StrikeYSize: 77
OS2StrikeYPos: 653
OS2CapHeight: 1490
OS2XHeight: 1087
OS2Vendor: 'RSMS'
OS2CodePages: 0000019f.00000000
OS2UnicodeRanges: e0000aff.5200a1ff.00000021.00000000
Lookup: 1 0 0 "'aalt' Access All Alternates in Latin lookup 0" { "'aalt' Access All Alternates in Latin lookup 0 subtable"  } ['aalt' ('DFLT' <'dflt' > 'latn' <'CAT ' 'MOL ' 'ROM ' 'dflt' > ) ]
Lookup: 3 0 0 "'aalt' Access All Alternates in Latin lookup 1" { "'aalt' Access All Alternates in Latin lookup 1 subtable"  } ['aalt' ('DFLT' <'dflt' > 'latn' <'CAT ' 'MOL ' 'ROM ' 'dflt' > ) ]
Lookup: 1 0 0 "Single Substitution lookup 2" { "Single Substitution lookup 2 subtable"  } []
Lookup: 4 0 0 "'ccmp' Glyph Composition/Decomposition in Latin lookup 3" { "'ccmp' Glyph Composition/Decomposition in Latin lookup 3 subtable"  } ['ccmp' ('DFLT' <'dflt' > 'latn' <'CAT ' 'MOL ' 'ROM ' 'dflt' > ) ]

StartChar: .notdef
Encoding: 1114112 -1 0
Width: 1341
Flags: W
LayerCount: 2
Fore
SplineSet
857 -416 m 1,0,-1
 169 -416 l 1,1,-1
 545 1856 l 1,2,-1
 1233 1856 l 1,3,-1
 857 -416 l 1,0,-1
390 -192 m 1,4,-1
 380 -256 l 1,5,-1
 700 -256 l 1,6,-1
 710 -192 l 1,7,-1
 495 -192 l 1,8,-1
 731 -65 l 1,9,-1
 742 0 l 1,10,-1
 422 0 l 1,11,-1
 411 -64 l 1,12,-1
 627 -64 l 1,13,-1
 390 -192 l 1,4,-1
475 320 m 1,14,-1
 433 64 l 1,15,-1
 753 64 l 1,16,-1
 795 320 l 1,17,-1
 475 320 l 1,14,-1
699 128 m 1,18,-1
 507 128 l 1,19,-1
 528 256 l 1,20,-1
 720 256 l 1,21,-1
 699 128 l 1,18,-1
539 704 m 1,22,-1
 496 448 l 1,23,-1
 816 448 l 1,24,-1
 859 704 l 1,25,-1
 667 704 l 1,26,-1
 645 576 l 1,27,-1
 709 576 l 1,28,-1
 720 640 l 1,29,-1
 784 640 l 1,30,-1
 763 512 l 1,31,-1
 571 512 l 1,32,-1
 603 704 l 1,33,-1
 539 704 l 1,22,-1
560 832 m 1,34,-1
 549 768 l 1,35,-1
 869 768 l 1,36,-1
 906 992 l 1,37,-1
 842 992 l 1,38,-1
 816 832 l 1,39,-1
 560 832 l 1,34,-1
581 960 m 1,40,-1
 570 896 l 1,41,-1
 762 896 l 1,42,-1
 789 1056 l 1,43,-1
 917 1056 l 1,44,-1
 927 1120 l 1,45,-1
 607 1120 l 1,46,-1
 597 1056 l 1,47,-1
 725 1056 l 1,48,-1
 709 960 l 1,49,-1
 581 960 l 1,40,-1
757 1248 m 1,50,-1
 693 1248 l 1,51,-1
 708 1344 l 1,52,-1
 772 1344 l 1,53,-1
 757 1248 l 1,50,-1
655 1408 m 1,54,-1
 618 1184 l 1,55,-1
 938 1184 l 1,56,-1
 949 1248 l 1,57,-1
 821 1248 l 1,58,-1
 847 1408 l 1,59,-1
 655 1408 l 1,54,-1
676 1536 m 1,60,-1
 666 1472 l 1,61,-1
 986 1472 l 1,62,-1
 996 1536 l 1,63,-1
 852 1536 l 1,64,-1
 868 1632 l 1,65,-1
 1012 1632 l 1,66,-1
 1023 1696 l 1,67,-1
 703 1696 l 1,68,-1
 692 1632 l 1,69,-1
 804 1632 l 1,70,-1
 788 1536 l 1,71,-1
 676 1536 l 1,60,-1
EndSplineSet
EndChar

StartChar: A
Encoding: 65 65 2
Width: 1302
GlyphClass: 2
Flags: W
AnchorPoint: "Anchor-4" 1171 0 basechar 0
AnchorPoint: "Anchor-1" 808 1490 basechar 0
AnchorPoint: "Anchor-0" 561 0 basechar 0
LayerCount: 2
Fore
SplineSet
-49 0 m 1,0,-1
 752 1490 l 1,1,-1
 864 1490 l 1,2,-1
 1171 0 l 1,3,-1
 1078 0 l 1,4,-1
 861 1066 l 2,5,6
 846 1146 846 1146 828 1240.5 c 128,-1,7
 810 1335 810 1335 791 1451 c 1,8,-1
 818 1451 l 1,9,10
 761 1335 761 1335 713 1242 c 128,-1,11
 665 1149 665 1149 622 1066 c 2,12,-1
 53 0 l 1,13,-1
 -49 0 l 1,0,-1
268 468 m 1,14,-1
 282 553 l 1,15,-1
 1023 553 l 1,16,-1
 1009 468 l 1,17,-1
 268 468 l 1,14,-1
EndSplineSet
Substitution2: "'c2sc' Capitals to Small Capitals in Latin lookup 67 subtable" a.sc
Substitution2: "'ss06' Style Set 6 in Latin lookup 52 subtable" A.squared
Substitution2: "'ss05' Style Set 5 in Latin lookup 51 subtable" uni24B6
Substitution2: "Single Substitution lookup 44 subtable" ordfeminine
AlternateSubs2: "'aalt' Access All Alternates in Latin lookup 1 subtable" ordfeminine a.sc
Position2: "'cpsp' Capital Spacing in Latin lookup 0 subtable" dx=0 dy=0 dh=0 dv=0
EndChar

StartChar: uni023A
Encoding: 570 570 46
Width: 1302
GlyphClass: 2
Flags: W
AnchorPoint: "Anchor-4" 1171 0 basechar 0
AnchorPoint: "Anchor-1" 808 1490 basechar 0
AnchorPoint: "Anchor-0" 561 0 basechar 0
LayerCount: 2
Fore
SplineSet
1206 1678 m 1,0,-1
 233 -190 l 1,1,-1
 144 -190 l 1,2,-1
 1117 1678 l 1,3,-1
 1206 1678 l 1,0,-1
-49 0 m 1,4,-1
 752 1490 l 1,5,-1
 864 1490 l 1,6,-1
 1171 0 l 1,7,-1
 1078 0 l 1,8,-1
 861 1066 l 2,9,10
 846 1146 846 1146 828 1240.5 c 128,-1,11
 810 1335 810 1335 791 1451 c 1,12,-1
 818 1451 l 1,13,14
 761 1335 761 1335 713 1242 c 128,-1,15
 665 1149 665 1149 622 1066 c 2,16,-1
 53 0 l 1,17,-1
 -49 0 l 1,4,-1
268 468 m 1,18,-1
 282 553 l 1,19,-1
 1023 553 l 1,20,-1
 1009 468 l 1,21,-1
 268 468 l 1,18,-1
EndSplineSet
Position2: "'cpsp' Capital Spacing in Latin lookup 0 subtable" dx=0 dy=0 dh=0 dv=0
EndChar

StartChar: Lambda
Encoding: 923 923 60
Width: 1302
GlyphClass: 2
Flags: W
AnchorPoint: "Anchor-1" 808 1490 basechar 0
AnchorPoint: "Anchor-0" 561 0 basechar 0
LayerCount: 2
Fore
SplineSet
-49 0 m 1,0,-1
 752 1490 l 1,1,-1
 864 1490 l 1,2,-1
 1171 0 l 1,3,-1
 1078 0 l 1,4,-1
 861 1066 l 2,5,6
 845 1146 845 1146 827.5 1240.5 c 128,-1,7
 810 1335 810 1335 791 1451 c 1,8,-1
 818 1451 l 1,9,10
 761 1335 761 1335 713 1242 c 128,-1,11
 665 1149 665 1149 622 1066 c 2,12,-1
 53 0 l 1,13,-1
 -49 0 l 1,0,-1
EndSplineSet
Position2: "'cpsp' Capital Spacing in Latin lookup 0 subtable" dx=0 dy=0 dh=0 dv=0
EndChar

StartChar: AE
Encoding: 198 198 61
Width: 1930
GlyphClass: 2
Flags: W
AnchorPoint: "Anchor-1" 1415 1490 basechar 0
LayerCount: 2
Fore
SplineSet
-49 0 m 1,0,-1
 937 1490 l 1,1,-1
 1960 1490 l 1,2,-1
 1946 1404 l 1,3,-1
 1209 1404 l 1,4,-1
 1107 789 l 1,5,-1
 1800 789 l 1,6,-1
 1786 704 l 1,7,-1
 1094 704 l 1,8,-1
 990 86 l 1,9,-1
 1746 86 l 1,10,-1
 1732 0 l 1,11,-1
 882 0 l 1,12,-1
 1116 1404 l 1,13,-1
 978 1404 l 1,14,-1
 53 0 l 1,15,-1
 -49 0 l 1,0,-1
337 480 m 1,16,-1
 351 565 l 1,17,-1
 1025 565 l 1,18,-1
 1010 480 l 1,19,-1
 337 480 l 1,16,-1
EndSplineSet
Position2: "'cpsp' Capital Spacing in Latin lookup 0 subtable" dx=0 dy=0 dh=0 dv=0
EndChar

StartChar: B
Encoding: 66 66 65
Width: 1291
GlyphClass: 2
Flags: W
AnchorPoint: "Anchor-1" 767 1487 basechar 0
AnchorPoint: "Anchor-0" 537 0 basechar 0
LayerCount: 2
Fore
SplineSet
98 0 m 1,0,-1
 345 1490 l 1,1,-1
 829 1490 l 2,2,3
 966 1490 966 1490 1056.5 1442 c 128,-1,4
 1147 1394 1147 1394 1186 1307 c 128,-1,5
 1225 1220 1225 1220 1205 1101 c 0,6,7
 1191 1014 1191 1014 1148 945.5 c 128,-1,8
 1105 877 1105 877 1042 831 c 128,-1,9
 979 785 979 785 905 764 c 1,10,-1
 905 761 l 1,11,12
 980 751 980 751 1041 703.5 c 128,-1,13
 1102 656 1102 656 1133 576.5 c 128,-1,14
 1164 497 1164 497 1147 391 c 0,15,16
 1128 273 1128 273 1060.5 185.5 c 128,-1,17
 993 98 993 98 883.5 49 c 128,-1,18
 774 0 774 0 626 0 c 2,19,-1
 98 0 l 1,0,-1
205 86 m 1,20,-1
 634 86 l 2,21,22
 809 86 809 86 921 173.5 c 128,-1,23
 1033 261 1033 261 1057 401 c 0,24,25
 1072 496 1072 496 1036.5 567 c 128,-1,26
 1001 638 1001 638 925.5 676.5 c 128,-1,27
 850 715 850 715 747 715 c 2,28,-1
 309 715 l 1,29,-1
 205 86 l 1,20,-1
323 799 m 1,30,-1
 748 799 l 2,31,32
 844 799 844 799 922 840.5 c 128,-1,33
 1000 882 1000 882 1051 953 c 128,-1,34
 1102 1024 1102 1024 1116 1110 c 0,35,36
 1139 1248 1139 1248 1060.5 1327 c 128,-1,37
 982 1406 982 1406 821 1406 c 2,38,-1
 424 1406 l 1,39,-1
 323 799 l 1,30,-1
EndSplineSet
Substitution2: "'ss06' Style Set 6 in Latin lookup 52 subtable" B.squared
Substitution2: "'ss05' Style Set 5 in Latin lookup 51 subtable" uni24B7
Position2: "'cpsp' Capital Spacing in Latin lookup 0 subtable" dx=0 dy=0 dh=0 dv=0
EndChar

StartChar: uni0181
Encoding: 385 385 70
Width: 1491
GlyphClass: 2
Flags: W
AnchorPoint: "Anchor-1" 967 1487 basechar 0
AnchorPoint: "Anchor-0" 737 0 basechar 0
LayerCount: 2
Fore
SplineSet
146 1106 m 1,0,-1
 171 1257 l 2,1,2
 190 1372 190 1372 257.5 1431 c 128,-1,3
 325 1490 325 1490 439 1490 c 2,4,-1
 544 1490 l 1,5,-1
 530 1406 l 1,6,-1
 427 1406 l 2,7,8
 353 1406 353 1406 312 1370 c 128,-1,9
 271 1334 271 1334 259 1256 c 2,10,-1
 234 1106 l 1,11,-1
 146 1106 l 1,0,-1
298 0 m 1,12,-1
 545 1490 l 1,13,-1
 1029 1490 l 2,14,15
 1166 1490 1166 1490 1256.5 1442 c 128,-1,16
 1347 1394 1347 1394 1386 1307 c 128,-1,17
 1425 1220 1425 1220 1405 1101 c 0,18,19
 1391 1014 1391 1014 1348 945.5 c 128,-1,20
 1305 877 1305 877 1242 831 c 128,-1,21
 1179 785 1179 785 1105 764 c 1,22,-1
 1105 761 l 1,23,24
 1180 751 1180 751 1241 703.5 c 128,-1,25
 1302 656 1302 656 1333 576.5 c 128,-1,26
 1364 497 1364 497 1347 391 c 0,27,28
 1328 273 1328 273 1260.5 185.5 c 128,-1,29
 1193 98 1193 98 1083.5 49 c 128,-1,30
 974 0 974 0 826 0 c 2,31,-1
 298 0 l 1,12,-1
405 86 m 1,32,-1
 834 86 l 2,33,34
 1009 86 1009 86 1121 173.5 c 128,-1,35
 1233 261 1233 261 1257 401 c 0,36,37
 1272 496 1272 496 1236.5 567 c 128,-1,38
 1201 638 1201 638 1125.5 676.5 c 128,-1,39
 1050 715 1050 715 947 715 c 2,40,-1
 509 715 l 1,41,-1
 405 86 l 1,32,-1
523 799 m 1,42,-1
 948 799 l 2,43,44
 1044 799 1044 799 1122 840.5 c 128,-1,45
 1200 882 1200 882 1251 953 c 128,-1,46
 1302 1024 1302 1024 1316 1110 c 0,47,48
 1339 1248 1339 1248 1260.5 1327 c 128,-1,49
 1182 1406 1182 1406 1021 1406 c 2,50,-1
 624 1406 l 1,51,-1
 523 799 l 1,42,-1
EndSplineSet
Position2: "'cpsp' Capital Spacing in Latin lookup 0 subtable" dx=0 dy=0 dh=0 dv=0
EndChar

StartChar: C
Encoding: 67 67 73
Width: 1440
GlyphClass: 2
Flags: W
AnchorPoint: "Anchor-3" 656 -1 basechar 0
AnchorPoint: "Anchor-1" 903 1490 basechar 0
LayerCount: 2
Fore
SplineSet
662 -21 m 0,0,1
 498 -21 498 -21 379 52.5 c 128,-1,2
 260 126 260 126 196 258.5 c 128,-1,3
 132 391 132 391 132 571 c 0,4,5
 132 745 132 745 185.5 912.5 c 128,-1,6
 239 1080 239 1080 340 1215 c 128,-1,7
 441 1350 441 1350 584 1430.5 c 128,-1,8
 727 1511 727 1511 904 1511 c 0,9,10
 1031 1511 1031 1511 1126 1469.5 c 128,-1,11
 1221 1428 1221 1428 1284 1358 c 128,-1,12
 1347 1288 1347 1288 1378.5 1200.5 c 128,-1,13
 1410 1113 1410 1113 1411 1022 c 1,14,-1
 1319 1022 l 1,15,16
 1316 1098 1316 1098 1288.5 1170 c 128,-1,17
 1261 1242 1261 1242 1209 1299.5 c 128,-1,18
 1157 1357 1157 1357 1080 1390 c 128,-1,19
 1003 1423 1003 1423 901 1423 c 0,20,21
 750 1423 750 1423 625 1352 c 128,-1,22
 500 1281 500 1281 410 1159.5 c 128,-1,23
 320 1038 320 1038 271.5 885.5 c 128,-1,24
 223 733 223 733 223 572 c 0,25,26
 223 410 223 410 280 296.5 c 128,-1,27
 337 183 337 183 437 125 c 128,-1,28
 537 67 537 67 666 67 c 0,29,30
 770 67 770 67 859.5 101 c 128,-1,31
 949 135 949 135 1021.5 192 c 128,-1,32
 1094 249 1094 249 1146 320.5 c 128,-1,33
 1198 392 1198 392 1227 470 c 1,34,-1
 1321 470 l 1,35,36
 1290 379 1290 379 1230 291.5 c 128,-1,37
 1170 204 1170 204 1085.5 134 c 128,-1,38
 1001 64 1001 64 894 21.5 c 128,-1,39
 787 -21 787 -21 662 -21 c 0,0,1
EndSplineSet
Substitution2: "'ss06' Style Set 6 in Latin lookup 52 subtable" C.squared
Substitution2: "'ss05' Style Set 5 in Latin lookup 51 subtable" uni24B8
Position2: "'cpsp' Capital Spacing in Latin lookup 0 subtable" dx=0 dy=0 dh=0 dv=0
EndChar

StartChar: uni0187
Encoding: 391 391 74
Width: 1440
GlyphClass: 2
Flags: W
AnchorPoint: "Anchor-3" 656 -1 basechar 0
AnchorPoint: "Anchor-1" 903 1490 basechar 0
LayerCount: 2
Fore
SplineSet
1324 1022 m 1,0,-1
 1397 1462 l 2,1,2
 1415 1571 1415 1571 1479 1624.5 c 128,-1,3
 1543 1678 1543 1678 1651 1678 c 0,4,5
 1671 1678 1671 1678 1693 1677.5 c 128,-1,6
 1715 1677 1715 1677 1732 1676 c 1,7,-1
 1720 1597 l 1,8,9
 1702 1597 1702 1597 1680 1597 c 128,-1,10
 1658 1597 1658 1597 1645 1597 c 0,11,12
 1572 1597 1572 1597 1534 1565.5 c 128,-1,13
 1496 1534 1496 1534 1484 1462 c 2,14,-1
 1412 1022 l 1,15,-1
 1324 1022 l 1,0,-1
662 -21 m 0,16,17
 498 -21 498 -21 379 52.5 c 128,-1,18
 260 126 260 126 196 258.5 c 128,-1,19
 132 391 132 391 132 571 c 0,20,21
 132 745 132 745 185.5 912.5 c 128,-1,22
 239 1080 239 1080 340 1215 c 128,-1,23
 441 1350 441 1350 584 1430.5 c 128,-1,24
 727 1511 727 1511 904 1511 c 0,25,26
 1031 1511 1031 1511 1126 1469.5 c 128,-1,27
 1221 1428 1221 1428 1284 1358 c 128,-1,28
 1347 1288 1347 1288 1378.5 1200.5 c 128,-1,29
 1410 1113 1410 1113 1411 1022 c 1,30,-1
 1319 1022 l 1,31,32
 1316 1098 1316 1098 1288.5 1170 c 128,-1,33
 1261 1242 1261 1242 1209 1299.5 c 128,-1,34
 1157 1357 1157 1357 1080 1390 c 128,-1,35
 1003 1423 1003 1423 901 1423 c 0,36,37
 750 1423 750 1423 625 1352 c 128,-1,38
 500 1281 500 1281 410 1159.5 c 128,-1,39
 320 1038 320 1038 271.5 885.5 c 128,-1,40
 223 733 223 733 223 572 c 0,41,42
 223 410 223 410 280 296.5 c 128,-1,43
 337 183 337 183 437 125 c 128,-1,44
 537 67 537 67 666 67 c 0,45,46
 770 67 770 67 859.5 101 c 128,-1,47
 949 135 949 135 1021.5 192 c 128,-1,48
 1094 249 1094 249 1146 320.5 c 128,-1,49
 1198 392 1198 392 1227 470 c 1,50,-1
 1321 470 l 1,51,52
 1290 379 1290 379 1230 291.5 c 128,-1,53
 1170 204 1170 204 1085.5 134 c 128,-1,54
 1001 64 1001 64 894 21.5 c 128,-1,55
 787 -21 787 -21 662 -21 c 0,16,17
EndSplineSet
Position2: "'cpsp' Capital Spacing in Latin lookup 0 subtable" dx=0 dy=0 dh=0 dv=0
EndChar

StartChar: uni023B
Encoding: 571 571 81
Width: 1440
GlyphClass: 2
Flags: W
AnchorPoint: "Anchor-3" 656 -1 basechar 0
AnchorPoint: "Anchor-1" 903 1490 basechar 0
LayerCount: 2
Fore
SplineSet
209 -190 m 1,0,-1
 1221 1678 l 1,1,-1
 1310 1678 l 1,2,-1
 298 -190 l 1,3,-1
 209 -190 l 1,0,-1
662 -21 m 0,4,5
 498 -21 498 -21 379 52.5 c 128,-1,6
 260 126 260 126 196 258.5 c 128,-1,7
 132 391 132 391 132 571 c 0,8,9
 132 745 132 745 185.5 912.5 c 128,-1,10
 239 1080 239 1080 340 1215 c 128,-1,11
 441 1350 441 1350 584 1430.5 c 128,-1,12
 727 1511 727 1511 904 1511 c 0,13,14
 1031 1511 1031 1511 1126 1469.5 c 128,-1,15
 1221 1428 1221 1428 1284 1358 c 128,-1,16
 1347 1288 1347 1288 1378.5 1200.5 c 128,-1,17
 1410 1113 1410 1113 1411 1022 c 1,18,-1
 1319 1022 l 1,19,20
 1316 1098 1316 1098 1288.5 1170 c 128,-1,21
 1261 1242 1261 1242 1209 1299.5 c 128,-1,22
 1157 1357 1157 1357 1080 1390 c 128,-1,23
 1003 1423 1003 1423 901 1423 c 0,24,25
 750 1423 750 1423 625 1352 c 128,-1,26
 500 1281 500 1281 410 1159.5 c 128,-1,27
 320 1038 320 1038 271.5 885.5 c 128,-1,28
 223 733 223 733 223 572 c 0,29,30
 223 410 223 410 280 296.5 c 128,-1,31
 337 183 337 183 437 125 c 128,-1,32
 537 67 537 67 666 67 c 0,33,34
 770 67 770 67 859.5 101 c 128,-1,35
 949 135 949 135 1021.5 192 c 128,-1,36
 1094 249 1094 249 1146 320.5 c 128,-1,37
 1198 392 1198 392 1227 470 c 1,38,-1
 1321 470 l 1,39,40
 1290 379 1290 379 1230 291.5 c 128,-1,41
 1170 204 1170 204 1085.5 134 c 128,-1,42
 1001 64 1001 64 894 21.5 c 128,-1,43
 787 -21 787 -21 662 -21 c 0,4,5
EndSplineSet
Ligature2: "'ccmp' Glyph Composition/Decomposition in Latin lookup 6 subtable" C uni0338
Position2: "'cpsp' Capital Spacing in Latin lookup 0 subtable" dx=0 dy=0 dh=0 dv=0
EndChar

StartChar: uni0186
Encoding: 390 390 82
Width: 1440
GlyphClass: 2
Flags: W
AnchorPoint: "Anchor-3" 851 1493 basechar 0
AnchorPoint: "Anchor-1" 604 0 basechar 0
LayerCount: 2
Fore
SplineSet
845 1511 m 0,0,1
 1009 1511 1009 1511 1128.5 1438.5 c 128,-1,2
 1248 1366 1248 1366 1312 1232.5 c 128,-1,3
 1376 1099 1376 1099 1376 920 c 0,4,5
 1376 746 1376 746 1322 578.5 c 128,-1,6
 1268 411 1268 411 1167 275.5 c 128,-1,7
 1066 140 1066 140 923.5 59.5 c 128,-1,8
 781 -21 781 -21 603 -21 c 0,9,10
 476 -21 476 -21 381.5 21 c 128,-1,11
 287 63 287 63 223.5 133.5 c 128,-1,12
 160 204 160 204 128.5 291.5 c 128,-1,13
 97 379 97 379 96 470 c 1,14,-1
 189 470 l 1,15,16
 192 392 192 392 219 320 c 128,-1,17
 246 248 246 248 298.5 191.5 c 128,-1,18
 351 135 351 135 427.5 101 c 128,-1,19
 504 67 504 67 606 67 c 0,20,21
 759 67 759 67 883.5 139 c 128,-1,22
 1008 211 1008 211 1098 332 c 128,-1,23
 1188 453 1188 453 1236.5 605 c 128,-1,24
 1285 757 1285 757 1285 918 c 0,25,26
 1285 1081 1285 1081 1228 1194 c 128,-1,27
 1171 1307 1171 1307 1071 1365 c 128,-1,28
 971 1423 971 1423 842 1423 c 0,29,30
 738 1423 738 1423 648.5 1390 c 128,-1,31
 559 1357 559 1357 486.5 1299.5 c 128,-1,32
 414 1242 414 1242 361.5 1170 c 128,-1,33
 309 1098 309 1098 281 1022 c 1,34,-1
 187 1022 l 1,35,36
 218 1113 218 1113 277.5 1200 c 128,-1,37
 337 1287 337 1287 422 1357.5 c 128,-1,38
 507 1428 507 1428 613.5 1469.5 c 128,-1,39
 720 1511 720 1511 845 1511 c 0,0,1
EndSplineSet
Position2: "'cpsp' Capital Spacing in Latin lookup 0 subtable" dx=0 dy=0 dh=0 dv=0
EndChar

StartChar: D
Encoding: 68 68 84
Width: 1413
GlyphClass: 2
Flags: W
AnchorPoint: "Anchor-1" 758 1490 basechar 0
AnchorPoint: "Anchor-0" 485 0 basechar 0
LayerCount: 2
Fore
SplineSet
524 0 m 2,0,-1
 149 0 l 1,1,-1
 163 85 l 1,2,-1
 520 85 l 2,3,4
 719 85 719 85 869.5 164.5 c 128,-1,5
 1020 244 1020 244 1115.5 393.5 c 128,-1,6
 1211 543 1211 543 1244 749 c 0,7,8
 1278 955 1278 955 1238 1101.5 c 128,-1,9
 1198 1248 1198 1248 1085 1326.5 c 128,-1,10
 972 1405 972 1405 784 1405 c 2,11,-1
 378 1405 l 1,12,-1
 394 1490 l 1,13,-1
 786 1490 l 2,14,15
 996 1490 996 1490 1131.5 1401.5 c 128,-1,16
 1267 1313 1267 1313 1321 1147.5 c 128,-1,17
 1375 982 1375 982 1335 749 c 0,18,19
 1297 513 1297 513 1189.5 345.5 c 128,-1,20
 1082 178 1082 178 914 89 c 128,-1,21
 746 0 746 0 524 0 c 2,0,-1
437 1490 m 1,22,-1
 190 0 l 1,23,-1
 98 0 l 1,24,-1
 345 1490 l 1,25,-1
 437 1490 l 1,22,-1
EndSplineSet
Substitution2: "'ss06' Style Set 6 in Latin lookup 52 subtable" D.squared
Substitution2: "'ss05' Style Set 5 in Latin lookup 51 subtable" uni24B9
Position2: "'cpsp' Capital Spacing in Latin lookup 0 subtable" dx=0 dy=0 dh=0 dv=0
EndChar

StartChar: uni018A
Encoding: 394 394 85
Width: 1613
GlyphClass: 2
Flags: W
AnchorPoint: "Anchor-1" 958 1490 basechar 0
AnchorPoint: "Anchor-0" 685 0 basechar 0
LayerCount: 2
Fore
SplineSet
146 1106 m 1,0,-1
 171 1257 l 2,1,2
 190 1372 190 1372 258 1431 c 128,-1,3
 326 1490 326 1490 440 1490 c 2,4,-1
 545 1490 l 1,5,-1
 531 1406 l 1,6,-1
 429 1406 l 2,7,8
 353 1406 353 1406 312.5 1370 c 128,-1,9
 272 1334 272 1334 259 1256 c 2,10,-1
 234 1106 l 1,11,-1
 146 1106 l 1,0,-1
724 0 m 2,12,-1
 349 0 l 1,13,-1
 363 85 l 1,14,-1
 720 85 l 2,15,16
 919 85 919 85 1069.5 164.5 c 128,-1,17
 1220 244 1220 244 1315.5 393.5 c 128,-1,18
 1411 543 1411 543 1444 749 c 0,19,20
 1478 955 1478 955 1438 1101.5 c 128,-1,21
 1398 1248 1398 1248 1285 1326.5 c 128,-1,22
 1172 1405 1172 1405 984 1405 c 2,23,-1
 578 1405 l 1,24,-1
 594 1490 l 1,25,-1
 986 1490 l 2,26,27
 1196 1490 1196 1490 1331.5 1401.5 c 128,-1,28
 1467 1313 1467 1313 1521 1147.5 c 128,-1,29
 1575 982 1575 982 1535 749 c 0,30,31
 1497 513 1497 513 1389.5 345.5 c 128,-1,32
 1282 178 1282 178 1114 89 c 128,-1,33
 946 0 946 0 724 0 c 2,12,-1
637 1490 m 1,34,-1
 390 0 l 1,35,-1
 298 0 l 1,36,-1
 545 1490 l 1,37,-1
 637 1490 l 1,34,-1
EndSplineSet
Position2: "'cpsp' Capital Spacing in Latin lookup 0 subtable" dx=0 dy=0 dh=0 dv=0
EndChar

StartChar: E
Encoding: 69 69 95
Width: 1184
GlyphClass: 2
Flags: W
AnchorPoint: "Anchor-4" 985 0 basechar 0
AnchorPoint: "Anchor-3" 542 0 basechar 0
AnchorPoint: "Anchor-1" 789 1490 basechar 0
AnchorPoint: "Anchor-0" 542 0 basechar 0
LayerCount: 2
Fore
SplineSet
98 0 m 1,0,-1
 345 1490 l 1,1,-1
 1224 1490 l 1,2,-1
 1209 1404 l 1,3,-1
 425 1404 l 1,4,-1
 324 798 l 1,5,-1
 1052 798 l 1,6,-1
 1037 712 l 1,7,-1
 310 712 l 1,8,-1
 207 86 l 1,9,-1
 1000 86 l 1,10,-1
 985 0 l 1,11,-1
 98 0 l 1,0,-1
EndSplineSet
Substitution2: "'ss06' Style Set 6 in Latin lookup 52 subtable" E.squared
Substitution2: "'ss05' Style Set 5 in Latin lookup 51 subtable" uni24BA
Position2: "'cpsp' Capital Spacing in Latin lookup 0 subtable" dx=0 dy=0 dh=0 dv=0
EndChar

StartChar: uni0246
Encoding: 582 582 121
Width: 1184
GlyphClass: 2
Flags: W
AnchorPoint: "Anchor-4" 985 0 basechar 0
AnchorPoint: "Anchor-3" 542 0 basechar 0
AnchorPoint: "Anchor-1" 789 1490 basechar 0
AnchorPoint: "Anchor-0" 542 0 basechar 0
LayerCount: 2
Fore
SplineSet
204 -190 m 1,0,-1
 1053 1678 l 1,1,-1
 1138 1678 l 1,2,-1
 289 -190 l 1,3,-1
 204 -190 l 1,0,-1
98 0 m 1,4,-1
 345 1490 l 1,5,-1
 1224 1490 l 1,6,-1
 1209 1404 l 1,7,-1
 425 1404 l 1,8,-1
 324 798 l 1,9,-1
 1052 798 l 1,10,-1
 1037 712 l 1,11,-1
 310 712 l 1,12,-1
 207 86 l 1,13,-1
 1000 86 l 1,14,-1
 985 0 l 1,15,-1
 98 0 l 1,4,-1
EndSplineSet
Position2: "'cpsp' Capital Spacing in Latin lookup 0 subtable" dx=0 dy=0 dh=0 dv=0
EndChar

StartChar: Eturn
Encoding: 398 398 122
Width: 1184
GlyphClass: 2
Flags: W
AnchorPoint: "Anchor-4" 266 1490 basechar 0
AnchorPoint: "Anchor-3" 436 0 basechar 0
AnchorPoint: "Anchor-1" 705 1490 basechar 0
AnchorPoint: "Anchor-0" 433 0 basechar 0
LayerCount: 2
Fore
SplineSet
1153 1490 m 1,0,-1
 906 0 l 1,1,-1
 27 0 l 1,2,-1
 42 87 l 1,3,-1
 826 87 l 1,4,-1
 927 694 l 1,5,-1
 199 694 l 1,6,-1
 214 778 l 1,7,-1
 941 778 l 1,8,-1
 1044 1406 l 1,9,-1
 251 1406 l 1,10,-1
 266 1490 l 1,11,-1
 1153 1490 l 1,0,-1
EndSplineSet
Position2: "'cpsp' Capital Spacing in Latin lookup 0 subtable" dx=0 dy=0 dh=0 dv=0
EndChar

StartChar: F
Encoding: 70 70 137
Width: 1154
GlyphClass: 2
Flags: W
AnchorPoint: "Anchor-1" 776 1490 basechar 0
AnchorPoint: "Anchor-0" 145 0 basechar 0
LayerCount: 2
Fore
SplineSet
98 0 m 1,0,-1
 345 1490 l 1,1,-1
 1205 1490 l 1,2,-1
 1191 1406 l 1,3,-1
 424 1406 l 1,4,-1
 322 793 l 1,5,-1
 1013 793 l 1,6,-1
 999 709 l 1,7,-1
 308 709 l 1,8,-1
 190 0 l 1,9,-1
 98 0 l 1,0,-1
EndSplineSet
Substitution2: "'ss06' Style Set 6 in Latin lookup 52 subtable" F.squared
Substitution2: "'ss05' Style Set 5 in Latin lookup 51 subtable" uni24BB
Position2: "'cpsp' Capital Spacing in Latin lookup 0 subtable" dx=0 dy=0 dh=0 dv=0
EndChar

StartChar: uni0191
Encoding: 401 401 138
Width: 1154
GlyphClass: 2
Flags: W
AnchorPoint: "Anchor-1" 776 1490 basechar 0
AnchorPoint: "Anchor-0" 145 0 basechar 0
LayerCount: 2
Fore
SplineSet
-180 -418 m 1,0,-1
 -167 -334 l 1,1,2
 -149 -335 -149 -335 -127 -335.5 c 128,-1,3
 -105 -336 -105 -336 -92 -336 c 0,4,5
 -19 -336 -19 -336 17.5 -304.5 c 128,-1,6
 54 -273 54 -273 65 -200 c 2,7,-1
 119 128 l 1,8,-1
 211 128 l 1,9,-1
 158 -203 l 2,10,11
 139 -312 139 -312 75 -365.5 c 128,-1,12
 11 -419 11 -419 -97 -419 c 0,13,14
 -117 -419 -117 -419 -140.5 -419 c 128,-1,15
 -164 -419 -164 -419 -180 -418 c 1,0,-1
98 0 m 1,16,-1
 345 1490 l 1,17,-1
 1205 1490 l 1,18,-1
 1191 1406 l 1,19,-1
 424 1406 l 1,20,-1
 322 793 l 1,21,-1
 1013 793 l 1,22,-1
 999 709 l 1,23,-1
 308 709 l 1,24,-1
 190 0 l 1,25,-1
 98 0 l 1,16,-1
EndSplineSet
Position2: "'cpsp' Capital Spacing in Latin lookup 0 subtable" dx=0 dy=0 dh=0 dv=0
EndChar

StartChar: Fturn
Encoding: 8498 8498 140
Width: 1154
GlyphClass: 2
Flags: W
AnchorPoint: "Anchor-1" 1076 1490 basechar 0
AnchorPoint: "Anchor-0" 447 0 basechar 0
LayerCount: 2
Fore
SplineSet
1123 1490 m 1,0,-1
 876 0 l 1,1,-1
 16 0 l 1,2,-1
 30 86 l 1,3,-1
 798 86 l 1,4,-1
 899 697 l 1,5,-1
 208 697 l 1,6,-1
 222 783 l 1,7,-1
 913 783 l 1,8,-1
 1030 1490 l 1,9,-1
 1123 1490 l 1,0,-1
EndSplineSet
Position2: "'cpsp' Capital Spacing in Latin lookup 0 subtable" dx=0 dy=0 dh=0 dv=0
EndChar

StartChar: G
Encoding: 1114113 -1 141
Width: 1470
GlyphClass: 2
Flags: W
AnchorPoint: "Anchor-1" 895 1490 basechar 0
AnchorPoint: "Anchor-0" 649 0 basechar 0
LayerCount: 2
Fore
SplineSet
664 -21 m 0,0,1
 498 -21 498 -21 378.5 52 c 128,-1,2
 259 125 259 125 195.5 258 c 128,-1,3
 132 391 132 391 132 569 c 0,4,5
 132 744 132 744 185.5 911.5 c 128,-1,6
 239 1079 239 1079 339.5 1214.5 c 128,-1,7
 440 1350 440 1350 582.5 1430.5 c 128,-1,8
 725 1511 725 1511 902 1511 c 0,9,10
 1029 1511 1029 1511 1124.5 1469 c 128,-1,11
 1220 1427 1220 1427 1284 1356.5 c 128,-1,12
 1348 1286 1348 1286 1380 1199 c 128,-1,13
 1412 1112 1412 1112 1412 1022 c 1,14,-1
 1318 1022 l 1,15,16
 1316 1096 1316 1096 1289 1167.5 c 128,-1,17
 1262 1239 1262 1239 1210.5 1297 c 128,-1,18
 1159 1355 1159 1355 1081 1389 c 128,-1,19
 1003 1423 1003 1423 899 1423 c 0,20,21
 742 1423 742 1423 617 1349.5 c 128,-1,22
 492 1276 492 1276 404 1152.5 c 128,-1,23
 316 1029 316 1029 269.5 878 c 128,-1,24
 223 727 223 727 223 572 c 0,25,26
 223 341 223 341 340.5 204 c 128,-1,27
 458 67 458 67 668 67 c 0,28,29
 819 67 819 67 944 136.5 c 128,-1,30
 1069 206 1069 206 1153 330.5 c 128,-1,31
 1237 455 1237 455 1265 624 c 1,32,-1
 1296 612 l 1,33,-1
 789 612 l 1,34,-1
 805 697 l 1,35,-1
 1369 697 l 1,36,-1
 1355 610 l 2,37,38
 1330 468 1330 468 1268.5 352 c 128,-1,39
 1207 236 1207 236 1116.5 153 c 128,-1,40
 1026 70 1026 70 911 24.5 c 128,-1,41
 796 -21 796 -21 664 -21 c 0,0,1
EndSplineSet
Substitution2: "'c2sc' Capitals to Small Capitals in Latin lookup 67 subtable" g.sc
Substitution2: "'cv10' Character Variants 10 in Latin lookup 64 subtable" G.1
Substitution2: "'ss06' Style Set 6 in Latin lookup 52 subtable" G.squared
Substitution2: "'ss05' Style Set 5 in Latin lookup 51 subtable" uni24BC
Substitution2: "'salt' Stylistic Alternatives in Latin lookup 46 subtable" G.1
Substitution2: "'aalt' Access All Alternates in Latin lookup 0 subtable" g.sc
Position2: "'cpsp' Capital Spacing in Latin lookup 0 subtable" dx=0 dy=0 dh=0 dv=0
EndChar

StartChar: uni0193
Encoding: 1114115 -1 143
Width: 1470
GlyphClass: 2
Flags: W
AnchorPoint: "Anchor-1" 895 1490 basechar 0
AnchorPoint: "Anchor-0" 649 0 basechar 0
LayerCount: 2
Fore
SplineSet
1336 1029 m 1,0,-1
 1398 1462 l 2,1,2
 1408 1536 1408 1536 1441 1583.5 c 128,-1,3
 1474 1631 1474 1631 1528 1654 c 128,-1,4
 1582 1677 1582 1677 1651 1677 c 0,5,6
 1672 1677 1672 1677 1694 1677 c 128,-1,7
 1716 1677 1716 1677 1733 1677 c 1,8,-1
 1720 1596 l 1,9,10
 1703 1596 1703 1596 1681 1596 c 128,-1,11
 1659 1596 1659 1596 1646 1596 c 0,12,13
 1574 1596 1574 1596 1535.5 1565 c 128,-1,14
 1497 1534 1497 1534 1485 1462 c 2,15,-1
 1413 1022 l 1,16,-1
 1336 1029 l 1,0,-1
664 -21 m 0,17,18
 498 -21 498 -21 378.5 52 c 128,-1,19
 259 125 259 125 195.5 258 c 128,-1,20
 132 391 132 391 132 569 c 0,21,22
 132 744 132 744 185.5 911.5 c 128,-1,23
 239 1079 239 1079 339.5 1214.5 c 128,-1,24
 440 1350 440 1350 582.5 1430.5 c 128,-1,25
 725 1511 725 1511 902 1511 c 0,26,27
 1029 1511 1029 1511 1124.5 1469 c 128,-1,28
 1220 1427 1220 1427 1284 1356.5 c 128,-1,29
 1348 1286 1348 1286 1380 1199 c 128,-1,30
 1412 1112 1412 1112 1412 1022 c 1,31,-1
 1318 1022 l 1,32,33
 1316 1096 1316 1096 1289 1167.5 c 128,-1,34
 1262 1239 1262 1239 1210.5 1297 c 128,-1,35
 1159 1355 1159 1355 1081 1389 c 128,-1,36
 1003 1423 1003 1423 899 1423 c 0,37,38
 742 1423 742 1423 617 1349.5 c 128,-1,39
 492 1276 492 1276 404 1152.5 c 128,-1,40
 316 1029 316 1029 269.5 878 c 128,-1,41
 223 727 223 727 223 572 c 0,42,43
 223 341 223 341 340.5 204 c 128,-1,44
 458 67 458 67 668 67 c 0,45,46
 819 67 819 67 944 136.5 c 128,-1,47
 1069 206 1069 206 1153 330.5 c 128,-1,48
 1237 455 1237 455 1265 624 c 1,49,-1
 1296 612 l 1,50,-1
 789 612 l 1,51,-1
 805 697 l 1,52,-1
 1369 697 l 1,53,-1
 1355 610 l 2,54,55
 1330 468 1330 468 1268.5 352 c 128,-1,56
 1207 236 1207 236 1116.5 153 c 128,-1,57
 1026 70 1026 70 911 24.5 c 128,-1,58
 796 -21 796 -21 664 -21 c 0,17,18
EndSplineSet
Substitution2: "'c2sc' Capitals to Small Capitals in Latin lookup 67 subtable" uni0260.sc
Substitution2: "'cv10' Character Variants 10 in Latin lookup 64 subtable" uni0193.1
Substitution2: "'salt' Stylistic Alternatives in Latin lookup 46 subtable" uni0193.1
Substitution2: "'aalt' Access All Alternates in Latin lookup 0 subtable" uni0260.sc
Position2: "'cpsp' Capital Spacing in Latin lookup 0 subtable" dx=0 dy=0 dh=0 dv=0
EndChar

StartChar: G.1
Encoding: 57346 57346 151
AltUni2: 000047.ffffffff.0
Width: 1469
GlyphClass: 2
Flags: W
AnchorPoint: "Anchor-1" 904 1490 basechar 0
AnchorPoint: "Anchor-0" 645 0 basechar 0
LayerCount: 2
Fore
SplineSet
656 -21 m 0,0,1
 466 -21 466 -21 338.5 75.5 c 128,-1,2
 211 172 211 172 159.5 344.5 c 128,-1,3
 108 517 108 517 146 744 c 0,4,5
 175 916 175 916 244 1057.5 c 128,-1,6
 313 1199 313 1199 414 1300.5 c 128,-1,7
 515 1402 515 1402 640.5 1456.5 c 128,-1,8
 766 1511 766 1511 908 1511 c 0,9,10
 1034 1511 1034 1511 1128.5 1469 c 128,-1,11
 1223 1427 1223 1427 1286 1356 c 128,-1,12
 1349 1285 1349 1285 1380.5 1198 c 128,-1,13
 1412 1111 1412 1111 1412 1022 c 1,14,-1
 1318 1022 l 1,15,16
 1315 1096 1315 1096 1287 1167.5 c 128,-1,17
 1259 1239 1259 1239 1205.5 1297 c 128,-1,18
 1152 1355 1152 1355 1074 1389 c 128,-1,19
 996 1423 996 1423 893 1423 c 0,20,21
 732 1423 732 1423 596 1339.5 c 128,-1,22
 460 1256 460 1256 366 1103 c 128,-1,23
 272 950 272 950 237 744 c 0,24,25
 204 542 204 542 247 389.5 c 128,-1,26
 290 237 290 237 399.5 152 c 128,-1,27
 509 67 509 67 673 67 c 0,28,29
 825 67 825 67 949 136 c 128,-1,30
 1073 205 1073 205 1156.5 331 c 128,-1,31
 1240 457 1240 457 1269 630 c 1,32,-1
 1324 630 l 1,33,-1
 1316 582 l 1,34,35
 1299 452 1299 452 1243.5 342 c 128,-1,36
 1188 232 1188 232 1101 150.5 c 128,-1,37
 1014 69 1014 69 901 24 c 128,-1,38
 788 -21 788 -21 656 -21 c 0,0,1
1173 0 m 1,39,-1
 1209 280 l 1,40,-1
 1273 612 l 1,41,-1
 789 612 l 1,42,-1
 803 697 l 1,43,-1
 1368 697 l 1,44,-1
 1253 0 l 1,45,-1
 1173 0 l 1,39,-1
EndSplineSet
Substitution2: "'ss06' Style Set 6 in Latin lookup 52 subtable" G.1.squared
EndChar

StartChar: uni0193.1
Encoding: 57348 57348 153
AltUni2: 000193.ffffffff.0
Width: 1469
GlyphClass: 2
Flags: W
AnchorPoint: "Anchor-1" 904 1490 basechar 0
AnchorPoint: "Anchor-0" 645 0 basechar 0
LayerCount: 2
Fore
SplineSet
1335 1029 m 1,0,-1
 1397 1462 l 2,1,2
 1407 1536 1407 1536 1440 1583.5 c 128,-1,3
 1473 1631 1473 1631 1526.5 1654 c 128,-1,4
 1580 1677 1580 1677 1650 1677 c 0,5,6
 1671 1677 1671 1677 1693 1677 c 128,-1,7
 1715 1677 1715 1677 1732 1677 c 1,8,-1
 1719 1596 l 1,9,10
 1702 1596 1702 1596 1680 1596 c 128,-1,11
 1658 1596 1658 1596 1645 1596 c 0,12,13
 1572 1596 1572 1596 1534 1565 c 128,-1,14
 1496 1534 1496 1534 1484 1462 c 2,15,-1
 1412 1022 l 1,16,-1
 1335 1029 l 1,0,-1
656 -21 m 0,17,18
 466 -21 466 -21 338.5 75.5 c 128,-1,19
 211 172 211 172 159.5 344.5 c 128,-1,20
 108 517 108 517 146 744 c 0,21,22
 175 916 175 916 244 1057.5 c 128,-1,23
 313 1199 313 1199 414 1300.5 c 128,-1,24
 515 1402 515 1402 640.5 1456.5 c 128,-1,25
 766 1511 766 1511 908 1511 c 0,26,27
 1034 1511 1034 1511 1128.5 1469 c 128,-1,28
 1223 1427 1223 1427 1286 1356 c 128,-1,29
 1349 1285 1349 1285 1380.5 1198 c 128,-1,30
 1412 1111 1412 1111 1412 1022 c 1,31,-1
 1318 1022 l 1,32,33
 1315 1096 1315 1096 1287 1167.5 c 128,-1,34
 1259 1239 1259 1239 1205.5 1297 c 128,-1,35
 1152 1355 1152 1355 1074 1389 c 128,-1,36
 996 1423 996 1423 893 1423 c 0,37,38
 732 1423 732 1423 596 1339.5 c 128,-1,39
 460 1256 460 1256 366 1103 c 128,-1,40
 272 950 272 950 237 744 c 0,41,42
 204 542 204 542 247 389.5 c 128,-1,43
 290 237 290 237 399.5 152 c 128,-1,44
 509 67 509 67 673 67 c 0,45,46
 825 67 825 67 949 136 c 128,-1,47
 1073 205 1073 205 1156.5 331 c 128,-1,48
 1240 457 1240 457 1269 630 c 1,49,-1
 1324 630 l 1,50,-1
 1316 582 l 1,51,52
 1299 452 1299 452 1243.5 342 c 128,-1,53
 1188 232 1188 232 1101 150.5 c 128,-1,54
 1014 69 1014 69 901 24 c 128,-1,55
 788 -21 788 -21 656 -21 c 0,17,18
1173 0 m 1,56,-1
 1209 280 l 1,57,-1
 1273 612 l 1,58,-1
 789 612 l 1,59,-1
 803 697 l 1,60,-1
 1368 697 l 1,61,-1
 1253 0 l 1,62,-1
 1173 0 l 1,56,-1
EndSplineSet
EndChar

StartChar: H
Encoding: 72 72 161
Width: 1458
GlyphClass: 2
Flags: W
AnchorPoint: "Anchor-3" 146 0 basechar 0
AnchorPoint: "Anchor-1" 887 1490 basechar 0
AnchorPoint: "Anchor-0" 640 0 basechar 0
LayerCount: 2
Fore
SplineSet
98 0 m 1,0,-1
 345 1490 l 1,1,-1
 439 1490 l 1,2,-1
 325 805 l 1,3,-1
 1220 805 l 1,4,-1
 1333 1490 l 1,5,-1
 1426 1490 l 1,6,-1
 1179 0 l 1,7,-1
 1086 0 l 1,8,-1
 1205 720 l 1,9,-1
 311 720 l 1,10,-1
 192 0 l 1,11,-1
 98 0 l 1,0,-1
EndSplineSet
Substitution2: "'c2sc' Capitals to Small Capitals in Latin lookup 67 subtable" h.sc
Substitution2: "'ss06' Style Set 6 in Latin lookup 52 subtable" H.squared
Substitution2: "'ss05' Style Set 5 in Latin lookup 51 subtable" uni24BD
Substitution2: "'aalt' Access All Alternates in Latin lookup 0 subtable" h.sc
Position2: "'cpsp' Capital Spacing in Latin lookup 0 subtable" dx=0 dy=0 dh=0 dv=0
EndChar

StartChar: Hbar
Encoding: 294 294 169
Width: 1491
GlyphClass: 2
Flags: W
AnchorPoint: "Anchor-3" 164 0 basechar 0
AnchorPoint: "Anchor-1" 904 1490 basechar 0
AnchorPoint: "Anchor-0" 657 0 basechar 0
LayerCount: 2
Fore
SplineSet
1497 1112 m 1,0,-1
 1482 1029 l 1,1,-1
 169 1029 l 1,2,-1
 183 1112 l 1,3,-1
 1497 1112 l 1,0,-1
116 0 m 1,4,-1
 363 1490 l 1,5,-1
 456 1490 l 1,6,-1
 343 805 l 1,7,-1
 1237 805 l 1,8,-1
 1351 1490 l 1,9,-1
 1443 1490 l 1,10,-1
 1196 0 l 1,11,-1
 1104 0 l 1,12,-1
 1223 720 l 1,13,-1
 329 720 l 1,14,-1
 209 0 l 1,15,-1
 116 0 l 1,4,-1
EndSplineSet
Position2: "'cpsp' Capital Spacing in Latin lookup 0 subtable" dx=0 dy=0 dh=0 dv=0
EndChar

StartChar: uni04C7
Encoding: 1223 1223 170
Width: 1458
GlyphClass: 2
Flags: W
AnchorPoint: "Anchor-3" 146 0 basechar 0
AnchorPoint: "Anchor-1" 887 1490 basechar 0
AnchorPoint: "Anchor-0" 640 0 basechar 0
LayerCount: 2
Fore
SplineSet
808 -418 m 1,0,-1
 822 -334 l 1,1,2
 840 -335 840 -335 861.5 -335.5 c 128,-1,3
 883 -336 883 -336 896 -336 c 0,4,5
 969 -336 969 -336 1006 -304.5 c 128,-1,6
 1043 -273 1043 -273 1053 -200 c 2,7,-1
 1107 128 l 1,8,-1
 1200 128 l 1,9,-1
 1146 -203 l 2,10,11
 1127 -312 1127 -312 1063.5 -365.5 c 128,-1,12
 1000 -419 1000 -419 892 -419 c 0,13,14
 871 -419 871 -419 848 -419 c 128,-1,15
 825 -419 825 -419 808 -418 c 1,0,-1
98 0 m 1,16,-1
 345 1490 l 1,17,-1
 439 1490 l 1,18,-1
 325 805 l 1,19,-1
 1220 805 l 1,20,-1
 1333 1490 l 1,21,-1
 1426 1490 l 1,22,-1
 1179 0 l 1,23,-1
 1086 0 l 1,24,-1
 1205 720 l 1,25,-1
 311 720 l 1,26,-1
 192 0 l 1,27,-1
 98 0 l 1,16,-1
EndSplineSet
Position2: "'cpsp' Capital Spacing in Latin lookup 0 subtable" dx=0 dy=0 dh=0 dv=0
EndChar

StartChar: uni04A4
Encoding: 1188 1188 173
Width: 1937
GlyphClass: 2
Flags: W
AnchorPoint: "Anchor-3" 146 0 basechar 0
AnchorPoint: "Anchor-1" 887 1490 basechar 0
AnchorPoint: "Anchor-0" 640 0 basechar 0
LayerCount: 2
Fore
SplineSet
2006 1490 m 1,0,-1
 1993 1405 l 1,1,-1
 1366 1405 l 1,2,-1
 1336 1490 l 1,3,-1
 2006 1490 l 1,0,-1
98 0 m 1,4,-1
 345 1490 l 1,5,-1
 439 1490 l 1,6,-1
 325 805 l 1,7,-1
 1220 805 l 1,8,-1
 1333 1490 l 1,9,-1
 1426 1490 l 1,10,-1
 1179 0 l 1,11,-1
 1086 0 l 1,12,-1
 1205 720 l 1,13,-1
 311 720 l 1,14,-1
 192 0 l 1,15,-1
 98 0 l 1,4,-1
EndSplineSet
Position2: "'cpsp' Capital Spacing in Latin lookup 0 subtable" dx=0 dy=0 dh=0 dv=0
EndChar

StartChar: uni01F6
Encoding: 502 502 174
Width: 2191
Flags: W
LayerCount: 2
Fore
SplineSet
1520 -20 m 0,0,1
 1392 -19 1392 -19 1301.5 32 c 128,-1,2
 1211 83 1211 83 1171.5 181 c 128,-1,3
 1132 279 1132 279 1156 419 c 2,4,-1
 1204 712 l 1,5,-1
 310 712 l 1,6,-1
 191 0 l 1,7,-1
 98 0 l 1,8,-1
 345 1490 l 1,9,-1
 438 1490 l 1,10,-1
 323 797 l 1,11,-1
 1218 797 l 1,12,-1
 1333 1490 l 1,13,-1
 1425 1490 l 1,14,-1
 1247 414 l 2,15,16
 1219 243 1219 243 1294 155 c 128,-1,17
 1369 67 1369 67 1523 67 c 0,18,19
 1629 67 1629 67 1711.5 107.5 c 128,-1,20
 1794 148 1794 148 1848.5 228 c 128,-1,21
 1903 308 1903 308 1921 420 c 2,22,-1
 2033 1096 l 1,23,-1
 2125 1096 l 1,24,-1
 2011 412 l 2,25,26
 1988 270 1988 270 1918 174 c 128,-1,27
 1848 78 1848 78 1745.5 29.5 c 128,-1,28
 1643 -19 1643 -19 1520 -20 c 0,0,1
EndSplineSet
Position2: "'cpsp' Capital Spacing in Latin lookup 0 subtable" dx=0 dy=0 dh=0 dv=0
EndChar

StartChar: I
Encoding: 73 73 197
Width: 469
GlyphClass: 2
Flags: W
AnchorPoint: "Anchor-4" 190 0 basechar 0
AnchorPoint: "Anchor-1" 392 1490 basechar 0
AnchorPoint: "Anchor-0" 145 0 basechar 0
LayerCount: 2
Fore
SplineSet
437 1490 m 1,0,-1
 190 0 l 1,1,-1
 98 0 l 1,2,-1
 345 1490 l 1,3,-1
 437 1490 l 1,0,-1
EndSplineSet
Substitution2: "'c2sc' Capitals to Small Capitals in Latin lookup 67 subtable" i.sc
Substitution2: "'cv08' Character Variants 08 in Latin lookup 62 subtable" I.1
Substitution2: "'ss06' Style Set 6 in Latin lookup 52 subtable" I.squared
Substitution2: "'ss05' Style Set 5 in Latin lookup 51 subtable" uni24BE
Substitution2: "'ss04' Style Set 4 in Latin lookup 50 subtable" I.1
Substitution2: "'ss02' Style Set 2 in Latin lookup 48 subtable" I.1
Substitution2: "'salt' Stylistic Alternatives in Latin lookup 46 subtable" I.1
Substitution2: "'aalt' Access All Alternates in Latin lookup 0 subtable" i.sc
Position2: "'cpsp' Capital Spacing in Latin lookup 0 subtable" dx=0 dy=0 dh=0 dv=0
EndChar

StartChar: I.1
Encoding: 57356 57356 235
Width: 692
GlyphClass: 2
Flags: W
AnchorPoint: "Anchor-4" 510 0 basechar 0
AnchorPoint: "Anchor-1" 504 1490 basechar 0
AnchorPoint: "Anchor-0" 257 0 basechar 0
LayerCount: 2
Fore
SplineSet
3 0 m 1,0,-1
 17 85 l 1,1,-1
 224 85 l 1,2,-1
 442 1405 l 1,3,-1
 235 1405 l 1,4,-1
 250 1490 l 1,5,-1
 757 1490 l 1,6,-1
 743 1405 l 1,7,-1
 535 1405 l 1,8,-1
 316 85 l 1,9,-1
 525 85 l 1,10,-1
 510 0 l 1,11,-1
 3 0 l 1,0,-1
EndSplineSet
EndChar

StartChar: J
Encoding: 74 74 267
Width: 1104
GlyphClass: 2
Flags: W
AnchorPoint: "Anchor-1" 1047 1490 basechar 0
LayerCount: 2
Fore
SplineSet
445 -20 m 0,0,1
 281 -20 281 -20 185 68.5 c 128,-1,2
 89 157 89 157 89 317 c 0,3,4
 89 330 89 330 90.5 348 c 128,-1,5
 92 366 92 366 96 396.5 c 128,-1,6
 100 427 100 427 108 478 c 1,7,-1
 201 478 l 1,8,9
 193 428 193 428 188.5 399 c 128,-1,10
 184 370 184 370 183 354 c 128,-1,11
 182 338 182 338 182 325 c 0,12,13
 182 202 182 202 251 134 c 128,-1,14
 320 66 320 66 448 66 c 0,15,16
 593 66 593 66 694 155.5 c 128,-1,17
 795 245 795 245 821 406 c 2,18,-1
 1001 1490 l 1,19,-1
 1094 1490 l 1,20,-1
 914 406 l 2,21,22
 882 207 882 207 756 93.5 c 128,-1,23
 630 -20 630 -20 445 -20 c 0,0,1
EndSplineSet
Substitution2: "'ss06' Style Set 6 in Latin lookup 52 subtable" J.squared
Substitution2: "'ss05' Style Set 5 in Latin lookup 51 subtable" uni24BF
Position2: "'cpsp' Capital Spacing in Latin lookup 0 subtable" dx=0 dy=0 dh=0 dv=0
EndChar

StartChar: K
Encoding: 75 75 272
Width: 1227
GlyphClass: 2
Flags: W
AnchorPoint: "Anchor-1" 805 1490 basechar 0
AnchorPoint: "Anchor-0" 558 0 basechar 0
LayerCount: 2
Fore
SplineSet
250 499 m 1,0,-1
 254 605 l 1,1,2
 321 670 321 670 385 729.5 c 128,-1,3
 449 789 449 789 513 848 c 128,-1,4
 577 907 577 907 645 971 c 2,5,-1
 1212 1490 l 1,6,-1
 1340 1490 l 1,7,-1
 608 822 l 1,8,-1
 595 816 l 1,9,-1
 250 499 l 1,0,-1
98 0 m 1,10,-1
 345 1490 l 1,11,-1
 438 1490 l 1,12,-1
 350 966 l 1,13,-1
 291 614 l 1,14,-1
 284 563 l 1,15,-1
 191 0 l 1,16,-1
 98 0 l 1,10,-1
989 0 m 1,17,-1
 550 805 l 1,18,-1
 616 871 l 1,19,-1
 1092 0 l 1,20,-1
 989 0 l 1,17,-1
EndSplineSet
Substitution2: "'ss06' Style Set 6 in Latin lookup 52 subtable" K.squared
Substitution2: "'ss05' Style Set 5 in Latin lookup 51 subtable" uni24C0
Position2: "'cpsp' Capital Spacing in Latin lookup 0 subtable" dx=0 dy=0 dh=0 dv=0
EndChar

StartChar: uni04A0
Encoding: 1184 1184 278
Width: 1617
GlyphClass: 2
Flags: W
AnchorPoint: "Anchor-1" 1142 1490 basechar 0
LayerCount: 2
Fore
SplineSet
741 1490 m 1,0,-1
 727 1406 l 1,1,-1
 231 1406 l 1,2,-1
 246 1490 l 1,3,-1
 741 1490 l 1,0,-1
445 0 m 1,4,-1
 692 1490 l 1,5,-1
 785 1490 l 1,6,-1
 672 804 l 1,7,-1
 932 804 l 1,8,-1
 1590 1490 l 1,9,-1
 1707 1490 l 1,10,-1
 1009 764 l 1,11,-1
 1483 0 l 1,12,-1
 1376 0 l 1,13,-1
 929 719 l 1,14,-1
 657 719 l 1,15,-1
 538 0 l 1,16,-1
 445 0 l 1,4,-1
EndSplineSet
Position2: "'cpsp' Capital Spacing in Latin lookup 0 subtable" dx=0 dy=0 dh=0 dv=0
EndChar

StartChar: uni0198
Encoding: 408 408 280
Width: 1303
Flags: W
LayerCount: 2
Fore
SplineSet
99 0 m 1,0,-1
 345 1490 l 1,1,-1
 439 1490 l 1,2,-1
 295 627 l 1,3,-1
 305 627 l 1,4,-1
 1157 1418 l 2,5,6
 1207 1466 1207 1466 1262 1486 c 128,-1,7
 1317 1506 1317 1506 1368 1497.5 c 128,-1,8
 1419 1489 1419 1489 1461 1451 c 1,9,-1
 1406 1386 l 1,10,11
 1360 1420 1360 1420 1310 1411 c 128,-1,12
 1260 1402 1260 1402 1204 1349 c 2,13,-1
 591 784 l 1,14,-1
 1152 0 l 1,15,-1
 1036 0 l 1,16,-1
 523 719 l 1,17,-1
 273 484 l 1,18,-1
 192 0 l 1,19,-1
 99 0 l 1,0,-1
EndSplineSet
Position2: "'cpsp' Capital Spacing in Latin lookup 0 subtable" dx=0 dy=0 dh=0 dv=0
EndChar

StartChar: L
Encoding: 76 76 282
Width: 1108
GlyphClass: 2
Flags: W
AnchorPoint: "Anchor-1" 393 1490 basechar 0
AnchorPoint: "Anchor-0" 509 0 basechar 0
LayerCount: 2
Fore
SplineSet
98 0 m 1,0,-1
 345 1490 l 1,1,-1
 439 1490 l 1,2,-1
 207 86 l 1,3,-1
 945 86 l 1,4,-1
 930 0 l 1,5,-1
 98 0 l 1,0,-1
EndSplineSet
Substitution2: "'c2sc' Capitals to Small Capitals in Latin lookup 67 subtable" l.sc
Substitution2: "'ss06' Style Set 6 in Latin lookup 52 subtable" L.squared
Substitution2: "'ss05' Style Set 5 in Latin lookup 51 subtable" uni24C1
Substitution2: "'aalt' Access All Alternates in Latin lookup 0 subtable" l.sc
Position2: "'cpsp' Capital Spacing in Latin lookup 0 subtable" dx=0 dy=0 dh=0 dv=0
EndChar

StartChar: M
Encoding: 77 77 293
Width: 1780
GlyphClass: 2
Flags: W
AnchorPoint: "Anchor-1" 1046 1490 basechar 0
AnchorPoint: "Anchor-0" 800 0 basechar 0
LayerCount: 2
Fore
SplineSet
98 0 m 1,0,-1
 346 1490 l 1,1,-1
 472 1490 l 1,2,-1
 755 382 l 2,3,4
 764 349 764 349 773 309.5 c 128,-1,5
 782 270 782 270 791.5 229 c 128,-1,6
 801 188 801 188 809.5 147.5 c 128,-1,7
 818 107 818 107 827 71 c 1,8,-1
 796 73 l 1,9,10
 817 110 817 110 838.5 150 c 128,-1,11
 860 190 860 190 883.5 231.5 c 128,-1,12
 907 273 907 273 928.5 312 c 128,-1,13
 950 351 950 351 969 383 c 2,14,-1
 1618 1490 l 1,15,-1
 1749 1490 l 1,16,-1
 1502 0 l 1,17,-1
 1410 0 l 1,18,-1
 1583 1045 l 2,19,20
 1590 1088 1590 1088 1598.5 1134.5 c 128,-1,21
 1607 1181 1607 1181 1615.5 1229 c 128,-1,22
 1624 1277 1624 1277 1632.5 1324 c 128,-1,23
 1641 1371 1641 1371 1648 1417 c 1,24,-1
 1665 1415 l 1,25,26
 1637 1364 1637 1364 1609.5 1314 c 128,-1,27
 1582 1264 1582 1264 1555.5 1216.5 c 128,-1,28
 1529 1169 1529 1169 1504 1125 c 128,-1,29
 1479 1081 1479 1081 1456 1043 c 2,30,-1
 841 0 l 1,31,-1
 759 0 l 1,32,-1
 488 1044 l 2,33,34
 476 1095 476 1095 461.5 1155.5 c 128,-1,35
 447 1216 447 1216 432 1282.5 c 128,-1,36
 417 1349 417 1349 402 1417 c 1,37,-1
 419 1415 l 1,38,39
 412 1369 412 1369 404.5 1321 c 128,-1,40
 397 1273 397 1273 390 1225.5 c 128,-1,41
 383 1178 383 1178 376 1132 c 128,-1,42
 369 1086 369 1086 362 1043 c 2,43,-1
 189 0 l 1,44,-1
 98 0 l 1,0,-1
EndSplineSet
Substitution2: "'c2sc' Capitals to Small Capitals in Latin lookup 67 subtable" m.sc
Substitution2: "'ss06' Style Set 6 in Latin lookup 52 subtable" M.squared
Substitution2: "'ss05' Style Set 5 in Latin lookup 51 subtable" uni24C2
Substitution2: "'aalt' Access All Alternates in Latin lookup 0 subtable" m.sc
Position2: "'cpsp' Capital Spacing in Latin lookup 0 subtable" dx=0 dy=0 dh=0 dv=0
EndChar

StartChar: N
Encoding: 78 78 301
Width: 1511
GlyphClass: 2
Flags: W
AnchorPoint: "Anchor-1" 913 1490 basechar 0
AnchorPoint: "Anchor-0" 666 0 basechar 0
LayerCount: 2
Fore
SplineSet
98 0 m 1,0,-1
 345 1490 l 1,1,-1
 441 1490 l 1,2,-1
 1017 416 l 2,3,4
 1043 371 1043 371 1069.5 318.5 c 128,-1,5
 1096 266 1096 266 1123.5 209.5 c 128,-1,6
 1151 153 1151 153 1178 94 c 1,7,-1
 1161 88 l 1,8,9
 1170 145 1170 145 1177.5 204.5 c 128,-1,10
 1185 264 1185 264 1194 320 c 128,-1,11
 1203 376 1203 376 1210 423 c 2,12,-1
 1388 1490 l 1,13,-1
 1480 1490 l 1,14,-1
 1233 0 l 1,15,-1
 1137 0 l 1,16,-1
 577 1038 l 2,17,18
 552 1088 552 1088 523.5 1142.5 c 128,-1,19
 495 1197 495 1197 464.5 1260 c 128,-1,20
 434 1323 434 1323 399 1397 c 1,21,-1
 416 1405 l 1,22,23
 405 1330 405 1330 396 1265 c 128,-1,24
 387 1200 387 1200 379 1143 c 128,-1,25
 371 1086 371 1086 362 1038 c 2,26,-1
 191 0 l 1,27,-1
 98 0 l 1,0,-1
EndSplineSet
Substitution2: "'c2sc' Capitals to Small Capitals in Latin lookup 67 subtable" n.sc
Substitution2: "'ss06' Style Set 6 in Latin lookup 52 subtable" N.squared
Substitution2: "'ss05' Style Set 5 in Latin lookup 51 subtable" uni24C3
Substitution2: "'aalt' Access All Alternates in Latin lookup 0 subtable" n.sc
Position2: "'cpsp' Capital Spacing in Latin lookup 0 subtable" dx=0 dy=0 dh=0 dv=0
EndChar

StartChar: Nhook
Encoding: 413 413 311
Width: 1511
GlyphClass: 2
Flags: W
AnchorPoint: "Anchor-1" 913 1490 basechar 0
AnchorPoint: "Anchor-0" 666 0 basechar 0
LayerCount: 2
Fore
SplineSet
-180 -418 m 1,0,-1
 -167 -334 l 1,1,2
 -149 -335 -149 -335 -127 -335.5 c 128,-1,3
 -105 -336 -105 -336 -92 -336 c 0,4,5
 -19 -336 -19 -336 17.5 -304.5 c 128,-1,6
 54 -273 54 -273 65 -200 c 2,7,-1
 119 128 l 1,8,-1
 211 128 l 1,9,-1
 158 -203 l 2,10,11
 139 -312 139 -312 75 -365.5 c 128,-1,12
 11 -419 11 -419 -97 -419 c 0,13,14
 -117 -419 -117 -419 -140.5 -419 c 128,-1,15
 -164 -419 -164 -419 -180 -418 c 1,0,-1
98 0 m 1,16,-1
 345 1490 l 1,17,-1
 441 1490 l 1,18,-1
 1017 416 l 2,19,20
 1043 371 1043 371 1069.5 318.5 c 128,-1,21
 1096 266 1096 266 1123.5 209.5 c 128,-1,22
 1151 153 1151 153 1178 94 c 1,23,-1
 1161 88 l 1,24,25
 1170 145 1170 145 1177.5 204.5 c 128,-1,26
 1185 264 1185 264 1194 320 c 128,-1,27
 1203 376 1203 376 1210 423 c 2,28,-1
 1388 1490 l 1,29,-1
 1480 1490 l 1,30,-1
 1233 0 l 1,31,-1
 1137 0 l 1,32,-1
 577 1038 l 2,33,34
 552 1088 552 1088 523.5 1142.5 c 128,-1,35
 495 1197 495 1197 464.5 1260 c 128,-1,36
 434 1323 434 1323 399 1397 c 1,37,-1
 416 1405 l 1,38,39
 405 1330 405 1330 396 1265 c 128,-1,40
 387 1200 387 1200 379 1143 c 128,-1,41
 371 1086 371 1086 362 1038 c 2,42,-1
 191 0 l 1,43,-1
 98 0 l 1,16,-1
EndSplineSet
Position2: "'cpsp' Capital Spacing in Latin lookup 0 subtable" dx=0 dy=0 dh=0 dv=0
EndChar

StartChar: Eng
Encoding: 330 330 312
Width: 1511
GlyphClass: 2
Flags: W
AnchorPoint: "Anchor-1" 913 1490 basechar 0
AnchorPoint: "Anchor-0" 666 0 basechar 0
LayerCount: 2
Fore
SplineSet
864 -418 m 1,0,-1
 877 -334 l 1,1,2
 895 -335 895 -335 916.5 -335.5 c 128,-1,3
 938 -336 938 -336 951 -336 c 0,4,5
 1024 -336 1024 -336 1061 -304.5 c 128,-1,6
 1098 -273 1098 -273 1109 -200 c 2,7,-1
 1163 128 l 1,8,-1
 1255 128 l 1,9,-1
 1201 -203 l 2,10,11
 1182 -312 1182 -312 1118.5 -365.5 c 128,-1,12
 1055 -419 1055 -419 947 -419 c 0,13,14
 926 -419 926 -419 903 -419 c 128,-1,15
 880 -419 880 -419 864 -418 c 1,0,-1
98 0 m 1,16,-1
 345 1490 l 1,17,-1
 441 1490 l 1,18,-1
 1017 416 l 2,19,20
 1043 371 1043 371 1069.5 318.5 c 128,-1,21
 1096 266 1096 266 1123.5 209.5 c 128,-1,22
 1151 153 1151 153 1178 94 c 1,23,-1
 1161 88 l 1,24,25
 1170 145 1170 145 1177.5 204.5 c 128,-1,26
 1185 264 1185 264 1194 320 c 128,-1,27
 1203 376 1203 376 1210 423 c 2,28,-1
 1388 1490 l 1,29,-1
 1480 1490 l 1,30,-1
 1233 0 l 1,31,-1
 1137 0 l 1,32,-1
 577 1038 l 2,33,34
 552 1088 552 1088 523.5 1142.5 c 128,-1,35
 495 1197 495 1197 464.5 1260 c 128,-1,36
 434 1323 434 1323 399 1397 c 1,37,-1
 416 1405 l 1,38,39
 405 1330 405 1330 396 1265 c 128,-1,40
 387 1200 387 1200 379 1143 c 128,-1,41
 371 1086 371 1086 362 1038 c 2,42,-1
 191 0 l 1,43,-1
 98 0 l 1,16,-1
EndSplineSet
Position2: "'cpsp' Capital Spacing in Latin lookup 0 subtable" dx=0 dy=0 dh=0 dv=0
EndChar

StartChar: uni0418
Encoding: 1048 1048 313
Width: 1511
GlyphClass: 2
Flags: W
AnchorPoint: "Anchor-1" 914 1490 basechar 0
AnchorPoint: "Anchor-0" 666 0 basechar 0
LayerCount: 2
Fore
SplineSet
1233 0 m 1,0,-1
 1141 0 l 1,1,-1
 1313 1038 l 2,2,3
 1321 1087 1321 1087 1331 1144 c 128,-1,4
 1341 1201 1341 1201 1353.5 1266 c 128,-1,5
 1366 1331 1366 1331 1380 1405 c 1,6,-1
 1400 1394 l 1,7,8
 1340 1321 1340 1321 1288.5 1258 c 128,-1,9
 1237 1195 1237 1195 1191 1140 c 128,-1,10
 1145 1085 1145 1085 1102 1035 c 2,11,-1
 202 0 l 1,12,-1
 98 0 l 1,13,-1
 345 1490 l 1,14,-1
 438 1490 l 1,15,-1
 261 423 l 2,16,17
 253 375 253 375 243 318.5 c 128,-1,18
 233 262 233 262 222 203.5 c 128,-1,19
 211 145 211 145 199 88 c 1,20,-1
 180 98 l 1,21,22
 226 155 226 155 272 211.5 c 128,-1,23
 318 268 318 268 362.5 320.5 c 128,-1,24
 407 373 407 373 446 419 c 2,25,-1
 1377 1490 l 1,26,-1
 1480 1490 l 1,27,-1
 1233 0 l 1,0,-1
EndSplineSet
Position2: "'cpsp' Capital Spacing in Latin lookup 0 subtable" dx=0 dy=0 dh=0 dv=0
EndChar

StartChar: O
Encoding: 79 79 322
Width: 1495
GlyphClass: 2
Flags: W
AnchorPoint: "Anchor-4" 1429 919 basechar 0
AnchorPoint: "Anchor-1" 905 1490 basechar 0
AnchorPoint: "Anchor-0" 659 0 basechar 0
LayerCount: 2
Fore
SplineSet
660 -21 m 0,0,1
 497 -21 497 -21 378.5 53 c 128,-1,2
 260 127 260 127 196 259.5 c 128,-1,3
 132 392 132 392 132 572 c 0,4,5
 132 745 132 745 185.5 913 c 128,-1,6
 239 1081 239 1081 340.5 1215.5 c 128,-1,7
 442 1350 442 1350 584 1430.5 c 128,-1,8
 726 1511 726 1511 902 1511 c 0,9,10
 1065 1511 1065 1511 1183.5 1437.5 c 128,-1,11
 1302 1364 1302 1364 1365.5 1231.5 c 128,-1,12
 1429 1099 1429 1099 1429 919 c 0,13,14
 1429 746 1429 746 1375.5 578.5 c 128,-1,15
 1322 411 1322 411 1221.5 275.5 c 128,-1,16
 1121 140 1121 140 979 59.5 c 128,-1,17
 837 -21 837 -21 660 -21 c 0,0,1
664 67 m 0,18,19
 820 67 820 67 944.5 141 c 128,-1,20
 1069 215 1069 215 1157 337.5 c 128,-1,21
 1245 460 1245 460 1291.5 610 c 128,-1,22
 1338 760 1338 760 1338 916 c 0,23,24
 1338 1074 1338 1074 1284.5 1187 c 128,-1,25
 1231 1300 1231 1300 1132 1361.5 c 128,-1,26
 1033 1423 1033 1423 899 1423 c 0,27,28
 743 1423 743 1423 618 1349.5 c 128,-1,29
 493 1276 493 1276 404.5 1153.5 c 128,-1,30
 316 1031 316 1031 269.5 880 c 128,-1,31
 223 729 223 729 223 574 c 256,32,33
 223 419 223 419 276.5 305 c 128,-1,34
 330 191 330 191 429.5 129 c 128,-1,35
 529 67 529 67 664 67 c 0,18,19
EndSplineSet
Substitution2: "'ss06' Style Set 6 in Latin lookup 52 subtable" O.squared
Substitution2: "'ss05' Style Set 5 in Latin lookup 51 subtable" uni24C4
Substitution2: "Single Substitution lookup 44 subtable" ordmasculine
Substitution2: "'aalt' Access All Alternates in Latin lookup 0 subtable" ordmasculine
Position2: "'cpsp' Capital Spacing in Latin lookup 0 subtable" dx=0 dy=0 dh=0 dv=0
EndChar

StartChar: Ohorn
Encoding: 416 416 326
Width: 1493
GlyphClass: 2
Flags: W
AnchorPoint: "Anchor-4" 1429 919 basechar 0
AnchorPoint: "Anchor-1" 905 1490 basechar 0
AnchorPoint: "Anchor-0" 659 0 basechar 0
LayerCount: 2
Fore
SplineSet
895 1439 m 1,0,-1
 907 1511 l 1,1,2
 955 1511 955 1511 990 1509 c 128,-1,3
 1025 1507 1025 1507 1057 1503.5 c 128,-1,4
 1089 1500 1089 1500 1131 1497.5 c 128,-1,5
 1173 1495 1173 1495 1235.5 1492.5 c 128,-1,6
 1298 1490 1298 1490 1393 1490 c 0,7,8
 1449 1490 1449 1490 1459 1547 c 2,9,-1
 1486 1714 l 1,10,-1
 1573 1714 l 1,11,-1
 1547 1551 l 2,12,13
 1535 1483 1535 1483 1494 1447.5 c 128,-1,14
 1453 1412 1453 1412 1385 1412 c 0,15,16
 1318 1412 1318 1412 1263.5 1416.5 c 128,-1,17
 1209 1421 1209 1421 1156.5 1426 c 128,-1,18
 1104 1431 1104 1431 1042 1435 c 128,-1,19
 980 1439 980 1439 895 1439 c 1,0,-1
660 -21 m 0,20,21
 497 -21 497 -21 378.5 53 c 128,-1,22
 260 127 260 127 196 259.5 c 128,-1,23
 132 392 132 392 132 572 c 0,24,25
 132 745 132 745 185.5 913 c 128,-1,26
 239 1081 239 1081 340.5 1215.5 c 128,-1,27
 442 1350 442 1350 584 1430.5 c 128,-1,28
 726 1511 726 1511 902 1511 c 0,29,30
 1065 1511 1065 1511 1183.5 1437.5 c 128,-1,31
 1302 1364 1302 1364 1365.5 1231.5 c 128,-1,32
 1429 1099 1429 1099 1429 919 c 0,33,34
 1429 746 1429 746 1375.5 578.5 c 128,-1,35
 1322 411 1322 411 1221.5 275.5 c 128,-1,36
 1121 140 1121 140 979 59.5 c 128,-1,37
 837 -21 837 -21 660 -21 c 0,20,21
664 67 m 0,38,39
 820 67 820 67 944.5 141 c 128,-1,40
 1069 215 1069 215 1157 337.5 c 128,-1,41
 1245 460 1245 460 1291.5 610 c 128,-1,42
 1338 760 1338 760 1338 916 c 0,43,44
 1338 1074 1338 1074 1284.5 1187 c 128,-1,45
 1231 1300 1231 1300 1132 1361.5 c 128,-1,46
 1033 1423 1033 1423 899 1423 c 0,47,48
 743 1423 743 1423 618 1349.5 c 128,-1,49
 493 1276 493 1276 404.5 1153.5 c 128,-1,50
 316 1031 316 1031 269.5 880 c 128,-1,51
 223 729 223 729 223 574 c 256,52,53
 223 419 223 419 276.5 305 c 128,-1,54
 330 191 330 191 429.5 129 c 128,-1,55
 529 67 529 67 664 67 c 0,38,39
EndSplineSet
Position2: "'cpsp' Capital Spacing in Latin lookup 0 subtable" dx=0 dy=0 dh=0 dv=0
EndChar

StartChar: uni03F4
Encoding: 1012 1012 368
Width: 1495
GlyphClass: 2
Flags: W
AnchorPoint: "Anchor-4" 1429 919 basechar 0
AnchorPoint: "Anchor-1" 905 1490 basechar 0
AnchorPoint: "Anchor-0" 659 0 basechar 0
LayerCount: 2
Fore
SplineSet
1344 787 m 1,0,-1
 1335 703 l 1,1,-1
 211 703 l 1,2,-1
 220 787 l 1,3,-1
 1344 787 l 1,0,-1
660 -21 m 0,4,5
 497 -21 497 -21 378.5 53 c 128,-1,6
 260 127 260 127 196 259.5 c 128,-1,7
 132 392 132 392 132 572 c 0,8,9
 132 745 132 745 185.5 913 c 128,-1,10
 239 1081 239 1081 340.5 1215.5 c 128,-1,11
 442 1350 442 1350 584 1430.5 c 128,-1,12
 726 1511 726 1511 902 1511 c 0,13,14
 1065 1511 1065 1511 1183.5 1437.5 c 128,-1,15
 1302 1364 1302 1364 1365.5 1231.5 c 128,-1,16
 1429 1099 1429 1099 1429 919 c 0,17,18
 1429 746 1429 746 1375.5 578.5 c 128,-1,19
 1322 411 1322 411 1221.5 275.5 c 128,-1,20
 1121 140 1121 140 979 59.5 c 128,-1,21
 837 -21 837 -21 660 -21 c 0,4,5
664 67 m 0,22,23
 820 67 820 67 944.5 141 c 128,-1,24
 1069 215 1069 215 1157 337.5 c 128,-1,25
 1245 460 1245 460 1291.5 610 c 128,-1,26
 1338 760 1338 760 1338 916 c 0,27,28
 1338 1074 1338 1074 1284.5 1187 c 128,-1,29
 1231 1300 1231 1300 1132 1361.5 c 128,-1,30
 1033 1423 1033 1423 899 1423 c 0,31,32
 743 1423 743 1423 618 1349.5 c 128,-1,33
 493 1276 493 1276 404.5 1153.5 c 128,-1,34
 316 1031 316 1031 269.5 880 c 128,-1,35
 223 729 223 729 223 574 c 256,36,37
 223 419 223 419 276.5 305 c 128,-1,38
 330 191 330 191 429.5 129 c 128,-1,39
 529 67 529 67 664 67 c 0,22,23
EndSplineSet
Position2: "'cpsp' Capital Spacing in Latin lookup 0 subtable" dx=0 dy=0 dh=0 dv=0
EndChar

StartChar: OE
Encoding: 338 338 375
Width: 1904
GlyphClass: 2
Flags: W
AnchorPoint: "Anchor-4" 1706 0 basechar 0
AnchorPoint: "Anchor-3" 1263 0 basechar 0
AnchorPoint: "Anchor-1" 1510 1490 basechar 0
AnchorPoint: "Anchor-0" 1263 0 basechar 0
LayerCount: 2
Fore
SplineSet
662 0 m 2,0,1
 468 0 468 0 340 93.5 c 128,-1,2
 212 187 212 187 160.5 355 c 128,-1,3
 109 523 109 523 146 745 c 0,4,5
 183 970 183 970 289.5 1137.5 c 128,-1,6
 396 1305 396 1305 554 1397.5 c 128,-1,7
 712 1490 712 1490 904 1490 c 2,8,-1
 1108 1490 l 1,9,-1
 1094 1405 l 1,10,-1
 892 1405 l 2,11,12
 727 1406 727 1406 590 1324 c 128,-1,13
 453 1242 453 1242 360.5 1093 c 128,-1,14
 268 944 268 944 234 745 c 0,15,16
 202 547 202 547 244.5 398.5 c 128,-1,17
 287 250 287 250 397 167.5 c 128,-1,18
 507 85 507 85 677 84 c 2,19,-1
 875 84 l 1,20,-1
 860 0 l 1,21,-1
 662 0 l 2,0,1
819 0 m 1,22,-1
 1066 1490 l 1,23,-1
 1944 1490 l 1,24,-1
 1929 1404 l 1,25,-1
 1145 1404 l 1,26,-1
 1045 798 l 1,27,-1
 1772 798 l 1,28,-1
 1757 712 l 1,29,-1
 1030 712 l 1,30,-1
 927 86 l 1,31,-1
 1720 86 l 1,32,-1
 1706 0 l 1,33,-1
 819 0 l 1,22,-1
EndSplineSet
Substitution2: "'c2sc' Capitals to Small Capitals in Latin lookup 67 subtable" oe.sc
Substitution2: "'aalt' Access All Alternates in Latin lookup 0 subtable" oe.sc
Position2: "'cpsp' Capital Spacing in Latin lookup 0 subtable" dx=0 dy=0 dh=0 dv=0
EndChar

StartChar: P
Encoding: 80 80 376
Width: 1216
GlyphClass: 2
Flags: W
AnchorPoint: "Anchor-1" 772 1490 basechar 0
LayerCount: 2
Fore
SplineSet
98 0 m 1,0,-1
 345 1490 l 1,1,-1
 826 1490 l 2,2,3
 964 1490 964 1490 1056.5 1434 c 128,-1,4
 1149 1378 1149 1378 1189 1278 c 128,-1,5
 1229 1178 1229 1178 1207 1047 c 0,6,7
 1186 918 1186 918 1113.5 819 c 128,-1,8
 1041 720 1041 720 929.5 664 c 128,-1,9
 818 608 818 608 680 608 c 2,10,-1
 255 608 l 1,11,-1
 270 694 l 1,12,-1
 692 694 l 2,13,14
 805 694 805 694 894 739 c 128,-1,15
 983 784 983 784 1041 864 c 128,-1,16
 1099 944 1099 944 1115 1049 c 0,17,18
 1133 1155 1133 1155 1101.5 1235 c 128,-1,19
 1070 1315 1070 1315 996 1360.5 c 128,-1,20
 922 1406 922 1406 811 1406 c 2,21,-1
 424 1406 l 1,22,-1
 190 0 l 1,23,-1
 98 0 l 1,0,-1
EndSplineSet
Substitution2: "'ss06' Style Set 6 in Latin lookup 52 subtable" P.squared
Substitution2: "'ss05' Style Set 5 in Latin lookup 51 subtable" uni24C5
Position2: "'cpsp' Capital Spacing in Latin lookup 0 subtable" dx=0 dy=0 dh=0 dv=0
EndChar

StartChar: uni048E
Encoding: 1166 1166 379
Width: 1210
GlyphClass: 2
Flags: W
AnchorPoint: "Anchor-1" 768 1490 basechar 0
LayerCount: 2
Fore
SplineSet
855 928 m 1,0,-1
 1064 536 l 1,1,-1
 989 490 l 1,2,-1
 780 883 l 1,3,-1
 855 928 l 1,0,-1
93 0 m 1,4,-1
 340 1490 l 1,5,-1
 821 1490 l 2,6,7
 959 1490 959 1490 1052 1434 c 128,-1,8
 1145 1378 1145 1378 1184.5 1278 c 128,-1,9
 1224 1178 1224 1178 1203 1047 c 0,10,11
 1181 918 1181 918 1108.5 819 c 128,-1,12
 1036 720 1036 720 925 664 c 128,-1,13
 814 608 814 608 675 608 c 2,14,-1
 251 608 l 1,15,-1
 265 694 l 1,16,-1
 688 694 l 2,17,18
 800 694 800 694 889 739 c 128,-1,19
 978 784 978 784 1036 864 c 128,-1,20
 1094 944 1094 944 1110 1049 c 0,21,22
 1128 1155 1128 1155 1096.5 1235 c 128,-1,23
 1065 1315 1065 1315 991 1360.5 c 128,-1,24
 917 1406 917 1406 806 1406 c 2,25,-1
 419 1406 l 1,26,-1
 186 0 l 1,27,-1
 93 0 l 1,4,-1
EndSplineSet
Position2: "'cpsp' Capital Spacing in Latin lookup 0 subtable" dx=0 dy=0 dh=0 dv=0
EndChar

StartChar: uni01A4
Encoding: 420 420 380
Width: 1416
GlyphClass: 2
Flags: W
AnchorPoint: "Anchor-1" 972 1490 basechar 0
LayerCount: 2
Fore
SplineSet
146 1106 m 1,0,-1
 171 1257 l 2,1,2
 190 1372 190 1372 258 1431 c 128,-1,3
 326 1490 326 1490 440 1490 c 2,4,-1
 545 1490 l 1,5,-1
 531 1406 l 1,6,-1
 429 1406 l 2,7,8
 353 1406 353 1406 312.5 1370 c 128,-1,9
 272 1334 272 1334 259 1256 c 2,10,-1
 234 1106 l 1,11,-1
 146 1106 l 1,0,-1
298 0 m 1,12,-1
 545 1490 l 1,13,-1
 1026 1490 l 2,14,15
 1164 1490 1164 1490 1256.5 1434 c 128,-1,16
 1349 1378 1349 1378 1389 1278 c 128,-1,17
 1429 1178 1429 1178 1407 1047 c 0,18,19
 1386 918 1386 918 1313.5 819 c 128,-1,20
 1241 720 1241 720 1129.5 664 c 128,-1,21
 1018 608 1018 608 880 608 c 2,22,-1
 455 608 l 1,23,-1
 470 694 l 1,24,-1
 892 694 l 2,25,26
 1005 694 1005 694 1094 739 c 128,-1,27
 1183 784 1183 784 1241 864 c 128,-1,28
 1299 944 1299 944 1315 1049 c 0,29,30
 1333 1155 1333 1155 1301.5 1235 c 128,-1,31
 1270 1315 1270 1315 1196 1360.5 c 128,-1,32
 1122 1406 1122 1406 1011 1406 c 2,33,-1
 624 1406 l 1,34,-1
 390 0 l 1,35,-1
 298 0 l 1,12,-1
EndSplineSet
Position2: "'cpsp' Capital Spacing in Latin lookup 0 subtable" dx=0 dy=0 dh=0 dv=0
EndChar

StartChar: Q
Encoding: 81 81 383
Width: 1495
GlyphClass: 2
Flags: W
AnchorPoint: "Anchor-4" 1429 919 basechar 0
AnchorPoint: "Anchor-1" 905 1490 basechar 0
AnchorPoint: "Anchor-0" 659 0 basechar 0
LayerCount: 2
Fore
SplineSet
766 466 m 1,0,-1
 862 466 l 1,1,-1
 1030 180 l 1,2,-1
 1046 153 l 1,3,-1
 1218 -140 l 1,4,-1
 1122 -140 l 1,5,-1
 982 99 l 1,6,-1
 966 126 l 1,7,-1
 766 466 l 1,0,-1
660 -21 m 0,8,9
 497 -21 497 -21 378.5 53 c 128,-1,10
 260 127 260 127 196 259.5 c 128,-1,11
 132 392 132 392 132 572 c 0,12,13
 132 745 132 745 185.5 913 c 128,-1,14
 239 1081 239 1081 340.5 1215.5 c 128,-1,15
 442 1350 442 1350 584 1430.5 c 128,-1,16
 726 1511 726 1511 902 1511 c 0,17,18
 1065 1511 1065 1511 1183.5 1437.5 c 128,-1,19
 1302 1364 1302 1364 1365.5 1231.5 c 128,-1,20
 1429 1099 1429 1099 1429 919 c 0,21,22
 1429 746 1429 746 1375.5 578.5 c 128,-1,23
 1322 411 1322 411 1221.5 275.5 c 128,-1,24
 1121 140 1121 140 979 59.5 c 128,-1,25
 837 -21 837 -21 660 -21 c 0,8,9
664 67 m 0,26,27
 820 67 820 67 944.5 141 c 128,-1,28
 1069 215 1069 215 1157 337.5 c 128,-1,29
 1245 460 1245 460 1291.5 610 c 128,-1,30
 1338 760 1338 760 1338 916 c 0,31,32
 1338 1074 1338 1074 1284.5 1187 c 128,-1,33
 1231 1300 1231 1300 1132 1361.5 c 128,-1,34
 1033 1423 1033 1423 899 1423 c 0,35,36
 743 1423 743 1423 618 1349.5 c 128,-1,37
 493 1276 493 1276 404.5 1153.5 c 128,-1,38
 316 1031 316 1031 269.5 880 c 128,-1,39
 223 729 223 729 223 574 c 256,40,41
 223 419 223 419 276.5 305 c 128,-1,42
 330 191 330 191 429.5 129 c 128,-1,43
 529 67 529 67 664 67 c 0,26,27
EndSplineSet
Substitution2: "'ss06' Style Set 6 in Latin lookup 52 subtable" Q.squared
Substitution2: "'ss05' Style Set 5 in Latin lookup 51 subtable" uni24C6
Position2: "'cpsp' Capital Spacing in Latin lookup 0 subtable" dx=0 dy=0 dh=0 dv=0
EndChar

StartChar: Q_rthook
Encoding: 586 586 384
Width: 1491
GlyphClass: 2
Flags: W
LayerCount: 2
Fore
SplineSet
1459 1490 m 1,0,-1
 1212 0 l 1,1,-1
 1123 0 l 1,2,-1
 1178 334 l 1,3,-1
 1172 334 l 1,4,5
 1083 161 1083 161 945.5 70 c 128,-1,6
 808 -21 808 -21 641 -21 c 0,7,8
 504 -21 504 -21 399.5 34.5 c 128,-1,9
 295 90 295 90 229 192 c 128,-1,10
 163 294 163 294 140.5 434.5 c 128,-1,11
 118 575 118 575 146 743 c 0,12,13
 174 913 174 913 242.5 1053.5 c 128,-1,14
 311 1194 311 1194 411.5 1297 c 128,-1,15
 512 1400 512 1400 636 1455.5 c 128,-1,16
 760 1511 760 1511 900 1511 c 0,17,18
 1066 1511 1066 1511 1171.5 1420.5 c 128,-1,19
 1277 1330 1277 1330 1308 1158 c 1,20,-1
 1315 1158 l 1,21,-1
 1370 1490 l 1,22,-1
 1459 1490 l 1,0,-1
661 67 m 0,23,24
 812 67 812 67 932.5 150.5 c 128,-1,25
 1053 234 1053 234 1134 386 c 128,-1,26
 1215 538 1215 538 1249 745 c 0,27,28
 1284 951 1284 951 1252.5 1104 c 128,-1,29
 1221 1257 1221 1257 1128 1340 c 128,-1,30
 1035 1423 1035 1423 887 1423 c 0,31,32
 727 1423 727 1423 592 1337 c 128,-1,33
 457 1251 457 1251 364 1098.5 c 128,-1,34
 271 946 271 946 238 745 c 0,35,36
 205 543 205 543 247 390 c 128,-1,37
 289 237 289 237 396 152 c 128,-1,38
 503 67 503 67 661 67 c 0,23,24
1272 -419 m 0,39,40
 1165 -419 1165 -419 1118 -366 c 128,-1,41
 1071 -313 1071 -313 1090 -203 c 2,42,-1
 1123 0 l 1,43,-1
 1212 0 l 1,44,-1
 1179 -203 l 2,45,46
 1167 -275 1167 -275 1193.5 -306.5 c 128,-1,47
 1220 -338 1220 -338 1293 -338 c 0,48,49
 1306 -338 1306 -338 1327.5 -338 c 128,-1,50
 1349 -338 1349 -338 1367 -338 c 1,51,-1
 1354 -418 l 1,52,53
 1337 -419 1337 -419 1314.5 -419 c 128,-1,54
 1292 -419 1292 -419 1272 -419 c 0,39,40
EndSplineSet
Position2: "'cpsp' Capital Spacing in Latin lookup 0 subtable" dx=0 dy=0 dh=0 dv=0
EndChar

StartChar: R
Encoding: 82 82 385
Width: 1251
GlyphClass: 2
Flags: W
AnchorPoint: "Anchor-1" 779 1490 basechar 0
AnchorPoint: "Anchor-0" 545 0 basechar 0
LayerCount: 2
Fore
SplineSet
98 0 m 1,0,-1
 345 1490 l 1,1,-1
 830 1490 l 2,2,3
 968 1490 968 1490 1060.5 1435.5 c 128,-1,4
 1153 1381 1153 1381 1193.5 1283 c 128,-1,5
 1234 1185 1234 1185 1211 1054 c 0,6,7
 1190 926 1190 926 1117.5 828.5 c 128,-1,8
 1045 731 1045 731 933.5 677 c 128,-1,9
 822 623 822 623 685 623 c 2,10,-1
 252 623 l 1,11,-1
 266 707 l 1,12,-1
 694 707 l 2,13,14
 805 707 805 707 895 750.5 c 128,-1,15
 985 794 985 794 1043.5 872.5 c 128,-1,16
 1102 951 1102 951 1120 1055 c 0,17,18
 1147 1217 1147 1217 1066 1311.5 c 128,-1,19
 985 1406 985 1406 818 1406 c 2,20,-1
 424 1406 l 1,21,-1
 190 0 l 1,22,-1
 98 0 l 1,0,-1
977 0 m 1,23,-1
 727 676 l 1,24,-1
 826 676 l 1,25,-1
 1078 0 l 1,26,-1
 977 0 l 1,23,-1
EndSplineSet
Substitution2: "'c2sc' Capitals to Small Capitals in Latin lookup 67 subtable" r.sc
Substitution2: "'ss06' Style Set 6 in Latin lookup 52 subtable" R.squared
Substitution2: "'ss05' Style Set 5 in Latin lookup 51 subtable" uni24C7
Substitution2: "'aalt' Access All Alternates in Latin lookup 0 subtable" r.sc
Position2: "'cpsp' Capital Spacing in Latin lookup 0 subtable" dx=0 dy=0 dh=0 dv=0
EndChar

StartChar: uni211F
Encoding: 8479 8479 395
Width: 1220
GlyphClass: 2
Flags: W
AnchorPoint: "Anchor-1" 775 1490 basechar 0
AnchorPoint: "Anchor-0" 541 0 basechar 0
LayerCount: 2
Fore
SplineSet
1150 1664 m 1,0,-1
 161 -336 l 1,1,-1
 95 -321 l 1,2,-1
 1057 1622 l 1,3,-1
 746 1739 l 1,4,-1
 782 1803 l 1,5,-1
 1150 1664 l 1,0,-1
94 0 m 1,6,-1
 341 1490 l 1,7,-1
 826 1490 l 2,8,9
 964 1490 964 1490 1056.5 1435.5 c 128,-1,10
 1149 1381 1149 1381 1189.5 1283 c 128,-1,11
 1230 1185 1230 1185 1207 1054 c 0,12,13
 1186 926 1186 926 1113.5 828.5 c 128,-1,14
 1041 731 1041 731 929.5 677 c 128,-1,15
 818 623 818 623 681 623 c 2,16,-1
 248 623 l 1,17,-1
 262 707 l 1,18,-1
 690 707 l 2,19,20
 801 707 801 707 891 750.5 c 128,-1,21
 981 794 981 794 1039.5 872.5 c 128,-1,22
 1098 951 1098 951 1116 1055 c 0,23,24
 1143 1217 1143 1217 1062 1311.5 c 128,-1,25
 981 1406 981 1406 814 1406 c 2,26,-1
 420 1406 l 1,27,-1
 186 0 l 1,28,-1
 94 0 l 1,6,-1
973 0 m 1,29,-1
 723 676 l 1,30,-1
 822 676 l 1,31,-1
 1074 0 l 1,32,-1
 973 0 l 1,29,-1
EndSplineSet
EndChar

StartChar: Rx
Encoding: 8478 8478 396
Width: 1214
Flags: W
LayerCount: 2
Fore
SplineSet
345 1490 m 1,0,-1
 804 1490 l 2,1,2
 946 1490 946 1490 1037.5 1434 c 128,-1,3
 1129 1378 1129 1378 1167 1280 c 128,-1,4
 1205 1182 1205 1182 1184 1053 c 0,5,6
 1163 931 1163 931 1097.5 838 c 128,-1,7
 1032 745 1032 745 933.5 690.5 c 128,-1,8
 835 636 835 636 713 627 c 1,9,-1
 684 620 l 1,10,-1
 265 620 l 1,11,-1
 279 710 l 1,12,-1
 668 710 l 2,13,14
 785 709 785 709 874 752.5 c 128,-1,15
 963 796 963 796 1019 873.5 c 128,-1,16
 1075 951 1075 951 1092 1053 c 0,17,18
 1104 1127 1104 1127 1091.5 1190.5 c 128,-1,19
 1079 1254 1079 1254 1042 1302 c 128,-1,20
 1005 1350 1005 1350 942 1376.5 c 128,-1,21
 879 1403 879 1403 789 1403 c 2,22,-1
 424 1404 l 1,23,-1
 192 0 l 1,24,-1
 99 0 l 1,25,-1
 345 1490 l 1,0,-1
1003 0 m 1,26,-1
 624 671 l 1,27,-1
 730 671 l 1,28,-1
 1110 0 l 1,29,-1
 1003 0 l 1,26,-1
621 0 m 1,30,-1
 511 0 l 1,31,-1
 1113 672 l 1,32,-1
 1221 672 l 1,33,-1
 621 0 l 1,30,-1
EndSplineSet
EndChar

StartChar: uni024C
Encoding: 588 588 397
Width: 1231
GlyphClass: 2
Flags: W
AnchorPoint: "Anchor-1" 787 1490 basechar 0
AnchorPoint: "Anchor-0" 553 0 basechar 0
LayerCount: 2
Fore
SplineSet
255 622 m 1,0,-1
 17 622 l 1,1,-1
 31 708 l 1,2,-1
 269 708 l 1,3,-1
 255 622 l 1,0,-1
105 0 m 1,4,-1
 352 1490 l 1,5,-1
 837 1490 l 2,6,7
 975 1490 975 1490 1067.5 1435.5 c 128,-1,8
 1160 1381 1160 1381 1200.5 1283 c 128,-1,9
 1241 1185 1241 1185 1218 1054 c 0,10,11
 1197 926 1197 926 1124.5 828.5 c 128,-1,12
 1052 731 1052 731 940.5 677 c 128,-1,13
 829 623 829 623 692 623 c 2,14,-1
 259 623 l 1,15,-1
 274 707 l 1,16,-1
 701 707 l 2,17,18
 812 707 812 707 902 750.5 c 128,-1,19
 992 794 992 794 1050.5 872.5 c 128,-1,20
 1109 951 1109 951 1127 1055 c 0,21,22
 1154 1217 1154 1217 1073 1311.5 c 128,-1,23
 992 1406 992 1406 826 1406 c 2,24,-1
 431 1406 l 1,25,-1
 198 0 l 1,26,-1
 105 0 l 1,4,-1
984 0 m 1,27,-1
 734 676 l 1,28,-1
 833 676 l 1,29,-1
 1085 0 l 1,30,-1
 984 0 l 1,27,-1
EndSplineSet
Position2: "'cpsp' Capital Spacing in Latin lookup 0 subtable" dx=0 dy=0 dh=0 dv=0
EndChar

StartChar: S
Encoding: 83 83 398
Width: 1223
GlyphClass: 2
Flags: W
AnchorPoint: "Anchor-3" 522 0 basechar 0
AnchorPoint: "Anchor-1" 768 1490 basechar 0
AnchorPoint: "Anchor-0" 522 0 basechar 0
LayerCount: 2
Fore
SplineSet
521 -23 m 0,0,1
 375 -23 375 -23 273.5 27 c 128,-1,2
 172 77 172 77 124 167.5 c 128,-1,3
 76 258 76 258 89 378 c 1,4,-1
 183 378 l 1,5,6
 173 280 173 280 211 209.5 c 128,-1,7
 249 139 249 139 329 101 c 128,-1,8
 409 63 409 63 524 63 c 0,9,10
 646 63 646 63 745.5 104.5 c 128,-1,11
 845 146 845 146 909 219.5 c 128,-1,12
 973 293 973 293 989 390 c 0,13,14
 1001 466 1001 466 976.5 520.5 c 128,-1,15
 952 575 952 575 887.5 616.5 c 128,-1,16
 823 658 823 658 715 692 c 2,17,-1
 553 744 l 2,18,19
 379 798 379 798 301 888.5 c 128,-1,20
 223 979 223 979 247 1118 c 0,21,22
 265 1233 265 1233 339 1322.5 c 128,-1,23
 413 1412 413 1412 525.5 1462 c 128,-1,24
 638 1512 638 1512 772 1512 c 0,25,26
 907 1512 907 1512 1002.5 1460 c 128,-1,27
 1098 1408 1098 1408 1143.5 1317 c 128,-1,28
 1189 1226 1189 1226 1175 1106 c 1,29,-1
 1085 1106 l 1,30,31
 1096 1251 1096 1251 1012 1339 c 128,-1,32
 928 1427 928 1427 766 1427 c 0,33,34
 658 1427 658 1427 566 1386.5 c 128,-1,35
 474 1346 474 1346 413 1276 c 128,-1,36
 352 1206 352 1206 337 1116 c 0,37,38
 325 1044 325 1044 351 989.5 c 128,-1,39
 377 935 377 935 439 895 c 128,-1,40
 501 855 501 855 594 825 c 2,41,-1
 752 775 l 2,42,43
 840 748 840 748 906.5 712 c 128,-1,44
 973 676 973 676 1016 629.5 c 128,-1,45
 1059 583 1059 583 1075.5 522.5 c 128,-1,46
 1092 462 1092 462 1080 386 c 0,47,48
 1061 267 1061 267 985.5 174.5 c 128,-1,49
 910 82 910 82 792 29.5 c 128,-1,50
 674 -23 674 -23 521 -23 c 0,0,1
EndSplineSet
Substitution2: "'ss06' Style Set 6 in Latin lookup 52 subtable" S.squared
Substitution2: "'ss05' Style Set 5 in Latin lookup 51 subtable" uni24C8
Position2: "'cpsp' Capital Spacing in Latin lookup 0 subtable" dx=0 dy=0 dh=0 dv=0
EndChar

StartChar: uni01A7
Encoding: 423 423 410
Width: 1222
GlyphClass: 2
Flags: W
AnchorPoint: "Anchor-3" 519 0 basechar 0
AnchorPoint: "Anchor-1" 768 1490 basechar 0
AnchorPoint: "Anchor-0" 519 0 basechar 0
LayerCount: 2
Fore
SplineSet
520 -24 m 0,0,1
 370 -24 370 -24 266.5 29.5 c 128,-1,2
 163 83 163 83 117 176.5 c 128,-1,3
 71 270 71 270 91 388 c 0,4,5
 103 464 103 464 139.5 524.5 c 128,-1,6
 176 585 176 585 233.5 632 c 128,-1,7
 291 679 291 679 370 714.5 c 128,-1,8
 449 750 449 750 545 777 c 2,9,-1
 720 826 l 2,10,11
 823 854 823 854 898 894.5 c 128,-1,12
 973 935 973 935 1018.5 990.5 c 128,-1,13
 1064 1046 1064 1046 1075 1119 c 0,14,15
 1090 1208 1090 1208 1054.5 1278 c 128,-1,16
 1019 1348 1019 1348 943.5 1387.5 c 128,-1,17
 868 1427 868 1427 760 1427 c 256,18,19
 652 1427 652 1427 561.5 1386 c 128,-1,20
 471 1345 471 1345 409.5 1273 c 128,-1,21
 348 1201 348 1201 324 1106 c 1,22,-1
 233 1106 l 1,23,24
 259 1225 259 1225 333 1317 c 128,-1,25
 407 1409 407 1409 518 1460.5 c 128,-1,26
 629 1512 629 1512 764 1512 c 256,27,28
 899 1512 899 1512 996 1461.5 c 128,-1,29
 1093 1411 1093 1411 1139 1321.5 c 128,-1,30
 1185 1232 1185 1232 1166 1115 c 0,31,32
 1143 978 1143 978 1035.5 886.5 c 128,-1,33
 928 795 928 795 735 741 c 2,34,-1
 557 691 l 2,35,36
 440 658 440 658 361.5 616.5 c 128,-1,37
 283 575 283 575 239 519.5 c 128,-1,38
 195 464 195 464 182 387 c 0,39,40
 158 242 158 242 252 152.5 c 128,-1,41
 346 63 346 63 527 63 c 0,42,43
 643 63 643 63 738.5 101.5 c 128,-1,44
 834 140 834 140 898.5 211 c 128,-1,45
 963 282 963 282 985 378 c 1,46,-1
 1078 378 l 1,47,48
 1053 259 1053 259 976 168.5 c 128,-1,49
 899 78 899 78 782.5 27 c 128,-1,50
 666 -24 666 -24 520 -24 c 0,0,1
EndSplineSet
Position2: "'cpsp' Capital Spacing in Latin lookup 0 subtable" dx=0 dy=0 dh=0 dv=0
EndChar

StartChar: uni1E9E
Encoding: 7838 7838 411
Width: 1247
Flags: W
LayerCount: 2
Fore
SplineSet
98 0 m 1,0,-1
 277 1077 l 2,1,2
 300 1215 300 1215 363.5 1311.5 c 128,-1,3
 427 1408 427 1408 526 1459 c 128,-1,4
 625 1510 625 1510 754 1510 c 0,5,6
 838 1510 838 1510 910.5 1485.5 c 128,-1,7
 983 1461 983 1461 1042.5 1418 c 128,-1,8
 1102 1375 1102 1375 1147 1319 c 1,9,-1
 704 819 l 1,10,11
 856 816 856 816 953 767.5 c 128,-1,12
 1050 719 1050 719 1090.5 630.5 c 128,-1,13
 1131 542 1131 542 1110 416 c 0,14,15
 1087 282 1087 282 1016 187.5 c 128,-1,16
 945 93 945 93 834 43 c 128,-1,17
 723 -7 723 -7 584 -7 c 0,18,19
 527 -7 527 -7 474.5 3 c 128,-1,20
 422 13 422 13 374 33 c 1,21,-1
 417 115 l 1,22,23
 452 100 452 100 499.5 90 c 128,-1,24
 547 80 547 80 606 79 c 0,25,26
 767 80 767 80 875.5 169.5 c 128,-1,27
 984 259 984 259 1010 413 c 0,28,29
 1023 487 1023 487 1011 542.5 c 128,-1,30
 999 598 999 598 967.5 635 c 128,-1,31
 936 672 936 672 888 695.5 c 128,-1,32
 840 719 840 719 779.5 728.5 c 128,-1,33
 719 738 719 738 651 738 c 2,34,-1
 588 738 l 1,35,-1
 602 822 l 1,36,-1
 1025 1307 l 1,37,38
 971 1360 971 1360 898 1392.5 c 128,-1,39
 825 1425 825 1425 738 1426 c 0,40,41
 633 1426 633 1426 556.5 1379.5 c 128,-1,42
 480 1333 480 1333 433 1253 c 128,-1,43
 386 1173 386 1173 369 1069 c 2,44,-1
 192 0 l 1,45,-1
 98 0 l 1,0,-1
EndSplineSet
Position2: "'cpsp' Capital Spacing in Latin lookup 0 subtable" dx=0 dy=0 dh=0 dv=0
EndChar

StartChar: T
Encoding: 84 84 412
Width: 1253
GlyphClass: 2
Flags: W
AnchorPoint: "Anchor-3" 537 0 basechar 0
AnchorPoint: "Anchor-1" 783 1490 basechar 0
AnchorPoint: "Anchor-0" 536 0 basechar 0
LayerCount: 2
Fore
SplineSet
231 1406 m 1,0,-1
 245 1490 l 1,1,-1
 1322 1490 l 1,2,-1
 1308 1406 l 1,3,-1
 816 1406 l 1,4,-1
 583 0 l 1,5,-1
 491 0 l 1,6,-1
 723 1406 l 1,7,-1
 231 1406 l 1,0,-1
EndSplineSet
Substitution2: "'c2sc' Capitals to Small Capitals in Latin lookup 67 subtable" t.sc
Substitution2: "'ss06' Style Set 6 in Latin lookup 52 subtable" T.squared
Substitution2: "'ss05' Style Set 5 in Latin lookup 51 subtable" uni24C9
Substitution2: "'aalt' Access All Alternates in Latin lookup 0 subtable" t.sc
Position2: "'cpsp' Capital Spacing in Latin lookup 0 subtable" dx=0 dy=0 dh=0 dv=0
EndChar

StartChar: uni01AC
Encoding: 428 428 420
Width: 1233
GlyphClass: 2
Flags: W
LayerCount: 2
Fore
SplineSet
181 1106 m 1,0,-1
 206 1257 l 2,1,2
 225 1372 225 1372 293 1431 c 128,-1,3
 361 1490 361 1490 474 1490 c 2,4,-1
 580 1490 l 1,5,-1
 565 1406 l 1,6,-1
 463 1406 l 2,7,8
 388 1406 388 1406 347.5 1370 c 128,-1,9
 307 1334 307 1334 294 1256 c 2,10,-1
 269 1106 l 1,11,-1
 181 1106 l 1,0,-1
565 1406 m 1,12,-1
 580 1490 l 1,13,-1
 1302 1490 l 1,14,-1
 1288 1406 l 1,15,-1
 812 1406 l 1,16,-1
 579 0 l 1,17,-1
 487 0 l 1,18,-1
 719 1406 l 1,19,-1
 565 1406 l 1,12,-1
EndSplineSet
Position2: "'cpsp' Capital Spacing in Latin lookup 0 subtable" dx=0 dy=0 dh=0 dv=0
EndChar

StartChar: uni01AC.base
Encoding: 60940 60940 421
Width: 1222
GlyphClass: 2
Flags: W
LayerCount: 2
Fore
SplineSet
555 1406 m 1,0,-1
 569 1490 l 1,1,-1
 1291 1490 l 1,2,-1
 1277 1406 l 1,3,-1
 800 1406 l 1,4,-1
 569 0 l 1,5,-1
 476 0 l 1,6,-1
 708 1406 l 1,7,-1
 555 1406 l 1,0,-1
EndSplineSet
EndChar

StartChar: Trthook
Encoding: 430 430 422
Width: 1253
GlyphClass: 2
Flags: W
AnchorPoint: "Anchor-3" 537 0 basechar 0
AnchorPoint: "Anchor-1" 783 1490 basechar 0
AnchorPoint: "Anchor-0" 536 0 basechar 0
LayerCount: 2
Fore
SplineSet
567 0 m 1,0,-1
 542 -152 l 2,1,2
 525 -250 525 -250 561.5 -291 c 128,-1,3
 598 -332 598 -332 674 -333 c 2,4,-1
 725 -333 l 1,5,-1
 711 -417 l 1,6,-1
 642 -417 l 2,7,8
 590 -417 590 -417 549.5 -399.5 c 128,-1,9
 509 -382 509 -382 483 -348.5 c 128,-1,10
 457 -315 457 -315 448 -266 c 128,-1,11
 439 -217 439 -217 450 -153 c 2,12,-1
 477 0 l 1,13,-1
 567 0 l 1,0,-1
231 1406 m 1,14,-1
 245 1490 l 1,15,-1
 1322 1490 l 1,16,-1
 1308 1406 l 1,17,-1
 816 1406 l 1,18,-1
 583 0 l 1,19,-1
 491 0 l 1,20,-1
 723 1406 l 1,21,-1
 231 1406 l 1,14,-1
EndSplineSet
Position2: "'cpsp' Capital Spacing in Latin lookup 0 subtable" dx=0 dy=0 dh=0 dv=0
EndChar

StartChar: uni023E
Encoding: 574 574 423
Width: 1253
GlyphClass: 2
Flags: W
AnchorPoint: "Anchor-3" 537 0 basechar 0
AnchorPoint: "Anchor-1" 783 1490 basechar 0
AnchorPoint: "Anchor-0" 536 0 basechar 0
LayerCount: 2
Fore
SplineSet
109 -190 m 1,0,-1
 1121 1678 l 1,1,-1
 1207 1678 l 1,2,-1
 196 -190 l 1,3,-1
 109 -190 l 1,0,-1
231 1406 m 1,4,-1
 245 1490 l 1,5,-1
 1322 1490 l 1,6,-1
 1308 1406 l 1,7,-1
 816 1406 l 1,8,-1
 583 0 l 1,9,-1
 491 0 l 1,10,-1
 723 1406 l 1,11,-1
 231 1406 l 1,4,-1
EndSplineSet
Position2: "'cpsp' Capital Spacing in Latin lookup 0 subtable" dx=0 dy=0 dh=0 dv=0
EndChar

StartChar: U
Encoding: 85 85 425
Width: 1436
GlyphClass: 2
Flags: W
AnchorPoint: "Anchor-4" 1263 505 basechar 0
AnchorPoint: "Anchor-1" 875 1490 basechar 0
AnchorPoint: "Anchor-0" 628 0 basechar 0
LayerCount: 2
Fore
SplineSet
630 -21 m 0,0,1
 469 -21 469 -21 354 48.5 c 128,-1,2
 239 118 239 118 188 238.5 c 128,-1,3
 137 359 137 359 162 510 c 2,4,-1
 324 1490 l 1,5,-1
 416 1490 l 1,6,-1
 254 508 l 2,7,8
 233 380 233 380 274 281 c 128,-1,9
 315 182 315 182 408 124.5 c 128,-1,10
 501 67 501 67 633 67 c 0,11,12
 769 67 769 67 883.5 125.5 c 128,-1,13
 998 184 998 184 1074 286 c 128,-1,14
 1150 388 1150 388 1171 516 c 2,15,-1
 1333 1490 l 1,16,-1
 1425 1490 l 1,17,-1
 1263 504 l 2,18,19
 1238 352 1238 352 1148 233.5 c 128,-1,20
 1058 115 1058 115 923.5 47 c 128,-1,21
 789 -21 789 -21 630 -21 c 0,0,1
EndSplineSet
Substitution2: "'ss06' Style Set 6 in Latin lookup 52 subtable" U.squared
Substitution2: "'ss05' Style Set 5 in Latin lookup 51 subtable" uni24CA
Position2: "'cpsp' Capital Spacing in Latin lookup 0 subtable" dx=0 dy=0 dh=0 dv=0
EndChar

StartChar: Uhorn
Encoding: 431 431 426
Width: 1455
GlyphClass: 2
Flags: W
AnchorPoint: "Anchor-4" 1263 505 basechar 0
AnchorPoint: "Anchor-1" 875 1490 basechar 0
AnchorPoint: "Anchor-0" 628 0 basechar 0
LayerCount: 2
Fore
SplineSet
1331 1412 m 1,0,-1
 1345 1490 l 1,1,-1
 1479 1490 l 2,2,3
 1536 1490 1536 1490 1545 1547 c 2,4,-1
 1572 1714 l 1,5,-1
 1660 1714 l 1,6,-1
 1633 1551 l 2,7,8
 1622 1483 1622 1483 1581 1447.5 c 128,-1,9
 1540 1412 1540 1412 1472 1412 c 2,10,-1
 1331 1412 l 1,0,-1
630 -21 m 0,11,12
 469 -21 469 -21 354 48.5 c 128,-1,13
 239 118 239 118 188 238.5 c 128,-1,14
 137 359 137 359 162 510 c 2,15,-1
 324 1490 l 1,16,-1
 416 1490 l 1,17,-1
 254 508 l 2,18,19
 233 380 233 380 274 281 c 128,-1,20
 315 182 315 182 408 124.5 c 128,-1,21
 501 67 501 67 633 67 c 0,22,23
 769 67 769 67 883.5 125.5 c 128,-1,24
 998 184 998 184 1074 286 c 128,-1,25
 1150 388 1150 388 1171 516 c 2,26,-1
 1333 1490 l 1,27,-1
 1425 1490 l 1,28,-1
 1263 504 l 2,29,30
 1238 352 1238 352 1148 233.5 c 128,-1,31
 1058 115 1058 115 923.5 47 c 128,-1,32
 789 -21 789 -21 630 -21 c 0,11,12
EndSplineSet
Position2: "'cpsp' Capital Spacing in Latin lookup 0 subtable" dx=0 dy=0 dh=0 dv=0
EndChar

StartChar: uni0244
Encoding: 580 580 456
Width: 1439
GlyphClass: 2
Flags: W
AnchorPoint: "Anchor-4" 1238 505 basechar 0
AnchorPoint: "Anchor-1" 849 1490 basechar 0
AnchorPoint: "Anchor-0" 602 0 basechar 0
LayerCount: 2
Fore
SplineSet
1525 872 m 1,0,-1
 1513 801 l 1,1,-1
 12 801 l 1,2,-1
 24 872 l 1,3,-1
 1525 872 l 1,0,-1
605 -21 m 0,4,5
 443 -21 443 -21 328.5 48.5 c 128,-1,6
 214 118 214 118 162.5 238.5 c 128,-1,7
 111 359 111 359 136 510 c 2,8,-1
 298 1490 l 1,9,-1
 391 1490 l 1,10,-1
 229 508 l 2,11,12
 208 380 208 380 248.5 281 c 128,-1,13
 289 182 289 182 382.5 124.5 c 128,-1,14
 476 67 476 67 608 67 c 0,15,16
 744 67 744 67 858.5 125.5 c 128,-1,17
 973 184 973 184 1049 286 c 128,-1,18
 1125 388 1125 388 1146 516 c 2,19,-1
 1308 1490 l 1,20,-1
 1400 1490 l 1,21,-1
 1238 504 l 2,22,23
 1213 352 1213 352 1122.5 233.5 c 128,-1,24
 1032 115 1032 115 898 47 c 128,-1,25
 764 -21 764 -21 605 -21 c 0,4,5
EndSplineSet
Position2: "'cpsp' Capital Spacing in Latin lookup 0 subtable" dx=0 dy=0 dh=0 dv=0
EndChar

StartChar: V
Encoding: 86 86 457
Width: 1302
GlyphClass: 2
Flags: W
AnchorPoint: "Anchor-1" 807 1490 basechar 0
AnchorPoint: "Anchor-0" 560 0 basechar 0
LayerCount: 2
Fore
SplineSet
506 0 m 1,0,-1
 198 1490 l 1,1,-1
 292 1490 l 1,2,-1
 509 424 l 2,3,4
 526 344 526 344 543 250 c 128,-1,5
 560 156 560 156 579 40 c 1,6,-1
 553 40 l 1,7,8
 610 155 610 155 658.5 250 c 128,-1,9
 707 345 707 345 749 424 c 2,10,-1
 1316 1490 l 1,11,-1
 1417 1490 l 1,12,-1
 618 0 l 1,13,-1
 506 0 l 1,0,-1
EndSplineSet
Substitution2: "'ss06' Style Set 6 in Latin lookup 52 subtable" V.squared
Substitution2: "'ss05' Style Set 5 in Latin lookup 51 subtable" uni24CB
Position2: "'cpsp' Capital Spacing in Latin lookup 0 subtable" dx=0 dy=0 dh=0 dv=0
EndChar

StartChar: W
Encoding: 87 87 460
Width: 1898
GlyphClass: 2
Flags: W
AnchorPoint: "Anchor-1" 1106 1490 basechar 0
AnchorPoint: "Anchor-0" 859 0 basechar 0
LayerCount: 2
Fore
SplineSet
367 0 m 1,0,-1
 198 1490 l 1,1,-1
 291 1490 l 1,2,-1
 407 424 l 2,3,4
 414 363 414 363 420 301 c 128,-1,5
 426 239 426 239 431.5 177 c 128,-1,6
 437 115 437 115 442 52 c 1,7,-1
 426 52 l 1,8,9
 451 115 451 115 476.5 177 c 128,-1,10
 502 239 502 239 528.5 301 c 128,-1,11
 555 363 555 363 581 424 c 2,12,-1
 1045 1490 l 1,13,-1
 1162 1490 l 1,14,-1
 1273 424 l 2,15,16
 1279 363 1279 363 1285 301 c 128,-1,17
 1291 239 1291 239 1295.5 177 c 128,-1,18
 1300 115 1300 115 1305 52 c 1,19,-1
 1289 52 l 1,20,21
 1315 115 1315 115 1340.5 177 c 128,-1,22
 1366 239 1366 239 1392.5 301 c 128,-1,23
 1419 363 1419 363 1446 424 c 2,24,-1
 1917 1490 l 1,25,-1
 2014 1490 l 1,26,-1
 1350 0 l 1,27,-1
 1231 0 l 1,28,-1
 1119 1053 l 2,29,30
 1109 1148 1109 1148 1101 1243 c 128,-1,31
 1093 1338 1093 1338 1087 1441 c 1,32,-1
 1108 1441 l 1,33,34
 1067 1340 1067 1340 1028 1244.5 c 128,-1,35
 989 1149 989 1149 947 1053 c 2,36,-1
 486 0 l 1,37,-1
 367 0 l 1,0,-1
EndSplineSet
Substitution2: "'ss06' Style Set 6 in Latin lookup 52 subtable" W.squared
Substitution2: "'ss05' Style Set 5 in Latin lookup 51 subtable" uni24CC
Position2: "'cpsp' Capital Spacing in Latin lookup 0 subtable" dx=0 dy=0 dh=0 dv=0
EndChar

StartChar: X
Encoding: 88 88 467
Width: 1273
GlyphClass: 2
Flags: W
AnchorPoint: "Anchor-1" 794 1490 basechar 0
AnchorPoint: "Anchor-0" 547 0 basechar 0
LayerCount: 2
Fore
SplineSet
-46 0 m 1,0,-1
 648 793 l 1,1,-1
 636 725 l 1,2,-1
 223 1490 l 1,3,-1
 327 1490 l 1,4,-1
 552 1073 l 2,5,6
 578 1027 578 1027 600.5 984 c 128,-1,7
 623 941 623 941 644.5 897.5 c 128,-1,8
 666 854 666 854 687 807 c 1,9,-1
 663 807 l 1,10,11
 702 854 702 854 737.5 897.5 c 128,-1,12
 773 941 773 941 810 984 c 128,-1,13
 847 1027 847 1027 888 1073 c 2,14,-1
 1255 1490 l 1,15,-1
 1366 1490 l 1,16,-1
 698 727 l 1,17,-1
 710 795 l 1,18,-1
 1139 0 l 1,19,-1
 1035 0 l 1,20,-1
 787 458 l 2,21,22
 764 502 764 502 742 544 c 128,-1,23
 720 586 720 586 699 627.5 c 128,-1,24
 678 669 678 669 657 713 c 1,25,-1
 683 713 l 1,26,27
 647 669 647 669 612.5 627.5 c 128,-1,28
 578 586 578 586 542 544 c 128,-1,29
 506 502 506 502 467 458 c 2,30,-1
 67 0 l 1,31,-1
 -46 0 l 1,0,-1
EndSplineSet
Substitution2: "'ss06' Style Set 6 in Latin lookup 52 subtable" X.squared
Substitution2: "'ss05' Style Set 5 in Latin lookup 51 subtable" uni24CD
Position2: "'cpsp' Capital Spacing in Latin lookup 0 subtable" dx=0 dy=0 dh=0 dv=0
EndChar

StartChar: Y
Encoding: 89 89 473
Width: 1295
GlyphClass: 2
Flags: W
AnchorPoint: "Anchor-4" 604 0 basechar 0
AnchorPoint: "Anchor-1" 804 1490 basechar 0
AnchorPoint: "Anchor-0" 557 0 basechar 0
LayerCount: 2
Fore
SplineSet
512 0 m 1,0,-1
 624 675 l 1,1,-1
 198 1490 l 1,2,-1
 299 1490 l 1,3,-1
 557 998 l 2,4,5
 592 929 592 929 625 862.5 c 128,-1,6
 658 796 658 796 690 723 c 1,7,-1
 652 723 l 1,8,9
 709 797 709 797 764 863.5 c 128,-1,10
 819 930 819 930 876 998 c 2,11,-1
 1296 1490 l 1,12,-1
 1411 1490 l 1,13,-1
 716 675 l 1,14,-1
 604 0 l 1,15,-1
 512 0 l 1,0,-1
EndSplineSet
Substitution2: "'c2sc' Capitals to Small Capitals in Latin lookup 67 subtable" y.sc
Substitution2: "'ss06' Style Set 6 in Latin lookup 52 subtable" Y.squared
Substitution2: "'ss05' Style Set 5 in Latin lookup 51 subtable" uni24CE
Substitution2: "'aalt' Access All Alternates in Latin lookup 0 subtable" y.sc
Position2: "'cpsp' Capital Spacing in Latin lookup 0 subtable" dx=0 dy=0 dh=0 dv=0
EndChar

StartChar: uni01B3
Encoding: 435 435 474
Width: 1280
Flags: W
LayerCount: 2
Fore
SplineSet
605 737 m 1,0,-1
 611 772 l 1,1,-1
 646 772 l 1,2,-1
 640 737 l 1,3,-1
 605 737 l 1,0,-1
165 1490 m 1,4,-1
 272 1490 l 1,5,-1
 626 763 l 1,6,-1
 1150 1402 l 2,7,8
 1198 1460 1198 1460 1254 1486 c 128,-1,9
 1310 1512 1310 1512 1364 1509 c 128,-1,10
 1418 1506 1418 1506 1457 1476 c 1,11,-1
 1407 1406 l 1,12,13
 1370 1430 1370 1430 1318 1419.5 c 128,-1,14
 1266 1409 1266 1409 1219 1354 c 2,15,-1
 658 676 l 1,16,-1
 547 0 l 1,17,-1
 455 0 l 1,18,-1
 566 676 l 1,19,-1
 165 1490 l 1,4,-1
EndSplineSet
Position2: "'cpsp' Capital Spacing in Latin lookup 0 subtable" dx=0 dy=0 dh=0 dv=0
EndChar

StartChar: uni024E
Encoding: 590 590 484
Width: 1235
GlyphClass: 2
Flags: W
AnchorPoint: "Anchor-4" 604 0 basechar 0
AnchorPoint: "Anchor-1" 804 1490 basechar 0
AnchorPoint: "Anchor-0" 557 0 basechar 0
LayerCount: 2
Fore
SplineSet
1371 1177 m 1,0,-1
 1359 1107 l 1,1,-1
 65 1107 l 1,2,-1
 78 1177 l 1,3,-1
 1371 1177 l 1,0,-1
512 0 m 1,4,-1
 624 675 l 1,5,-1
 198 1490 l 1,6,-1
 299 1490 l 1,7,-1
 557 998 l 2,8,9
 592 929 592 929 625 862.5 c 128,-1,10
 658 796 658 796 690 723 c 1,11,-1
 652 723 l 1,12,13
 709 797 709 797 764 863.5 c 128,-1,14
 819 930 819 930 876 998 c 2,15,-1
 1296 1490 l 1,16,-1
 1411 1490 l 1,17,-1
 716 675 l 1,18,-1
 604 0 l 1,19,-1
 512 0 l 1,4,-1
EndSplineSet
Position2: "'cpsp' Capital Spacing in Latin lookup 0 subtable" dx=0 dy=0 dh=0 dv=0
EndChar

StartChar: Z
Encoding: 90 90 497
Width: 1202
GlyphClass: 2
Flags: W
AnchorPoint: "Anchor-1" 758 1490 basechar 0
AnchorPoint: "Anchor-0" 510 0 basechar 0
LayerCount: 2
Fore
SplineSet
30 0 m 1,0,-1
 42 75 l 1,1,-1
 1111 1404 l 1,2,-1
 263 1404 l 1,3,-1
 279 1490 l 1,4,-1
 1239 1490 l 1,5,-1
 1227 1413 l 1,6,-1
 158 86 l 1,7,-1
 1013 86 l 1,8,-1
 998 0 l 1,9,-1
 30 0 l 1,0,-1
EndSplineSet
Substitution2: "'ss06' Style Set 6 in Latin lookup 52 subtable" Z.squared
Substitution2: "'ss05' Style Set 5 in Latin lookup 51 subtable" uni24CF
Position2: "'cpsp' Capital Spacing in Latin lookup 0 subtable" dx=0 dy=0 dh=0 dv=0
EndChar

StartChar: uni0224
Encoding: 548 548 504
Width: 1202
GlyphClass: 2
Flags: W
AnchorPoint: "Anchor-1" 758 1490 basechar 0
AnchorPoint: "Anchor-0" 510 0 basechar 0
LayerCount: 2
Fore
SplineSet
626 -418 m 1,0,-1
 640 -334 l 1,1,2
 658 -335 658 -335 679.5 -335.5 c 128,-1,3
 701 -336 701 -336 714 -336 c 0,4,5
 786 -336 786 -336 823.5 -304.5 c 128,-1,6
 861 -273 861 -273 873 -200 c 2,7,-1
 906 0 l 1,8,-1
 998 0 l 1,9,-1
 964 -203 l 2,10,11
 946 -313 946 -313 881.5 -366 c 128,-1,12
 817 -419 817 -419 710 -419 c 0,13,14
 691 -419 691 -419 667.5 -419 c 128,-1,15
 644 -419 644 -419 626 -418 c 1,0,-1
30 0 m 1,16,-1
 42 75 l 1,17,-1
 1111 1404 l 1,18,-1
 263 1404 l 1,19,-1
 279 1490 l 1,20,-1
 1239 1490 l 1,21,-1
 1227 1413 l 1,22,-1
 158 86 l 1,23,-1
 1013 86 l 1,24,-1
 998 0 l 1,25,-1
 30 0 l 1,16,-1
EndSplineSet
Position2: "'cpsp' Capital Spacing in Latin lookup 0 subtable" dx=0 dy=0 dh=0 dv=0
EndChar

StartChar: uni2C7F
Encoding: 11391 11391 507
Width: 1225
Flags: W
LayerCount: 2
Fore
SplineSet
817 -435 m 0,0,1
 750 -435 750 -435 694.5 -403 c 128,-1,2
 639 -371 639 -371 590.5 -321.5 c 128,-1,3
 542 -272 542 -272 492.5 -216.5 c 128,-1,4
 443 -161 443 -161 386 -111.5 c 128,-1,5
 329 -62 329 -62 258 -31 c 128,-1,6
 187 0 187 0 96 0 c 2,7,-1
 30 0 l 1,8,-1
 42 75 l 1,9,-1
 1114 1404 l 1,10,-1
 263 1404 l 1,11,-1
 278 1490 l 1,12,-1
 1239 1490 l 1,13,-1
 1226 1414 l 1,14,-1
 153 81 l 1,15,16
 268 75 268 75 350 29.5 c 128,-1,17
 432 -16 432 -16 493.5 -79.5 c 128,-1,18
 555 -143 555 -143 609 -204 c 128,-1,19
 663 -265 663 -265 720.5 -306 c 128,-1,20
 778 -347 778 -347 854 -347 c 0,21,22
 883 -347 883 -347 911 -342.5 c 128,-1,23
 939 -338 939 -338 965 -332 c 1,24,-1
 952 -414 l 1,25,26
 931 -421 931 -421 894 -428 c 128,-1,27
 857 -435 857 -435 817 -435 c 0,0,1
EndSplineSet
Position2: "'cpsp' Capital Spacing in Latin lookup 0 subtable" dx=0 dy=0 dh=0 dv=0
EndChar

StartChar: a
Encoding: 97 97 508
Width: 1173
GlyphClass: 2
Flags: W
AnchorPoint: "Anchor-4" 924 0 basechar 0
AnchorPoint: "Anchor-1" 659 1087 basechar 0
AnchorPoint: "Anchor-0" 484 0 basechar 0
LayerCount: 2
Fore
SplineSet
455 -21 m 0,0,1
 321 -21 321 -21 230.5 50.5 c 128,-1,2
 140 122 140 122 103.5 249 c 128,-1,3
 67 376 67 376 95 543 c 0,4,5
 123 708 123 708 202 835 c 128,-1,6
 281 962 281 962 395 1032.5 c 128,-1,7
 509 1103 509 1103 643 1103 c 0,8,9
 735 1103 735 1103 804 1068.5 c 128,-1,10
 873 1034 873 1034 915.5 975 c 128,-1,11
 958 916 958 916 970 841 c 1,12,-1
 975 841 l 1,13,-1
 1016 1087 l 1,14,-1
 1104 1087 l 1,15,-1
 924 0 l 1,16,-1
 837 0 l 1,17,-1
 877 243 l 1,18,-1
 870 243 l 1,19,20
 832 169 832 169 770 109 c 128,-1,21
 708 49 708 49 628.5 14 c 128,-1,22
 549 -21 549 -21 455 -21 c 0,0,1
477 62 m 0,23,24
 590 62 590 62 683.5 123.5 c 128,-1,25
 777 185 777 185 840.5 293 c 128,-1,26
 904 401 904 401 928 543 c 0,27,28
 951 685 951 685 924.5 792.5 c 128,-1,29
 898 900 898 900 825.5 960.5 c 128,-1,30
 753 1021 753 1021 640 1021 c 0,31,32
 528 1021 528 1021 433.5 960.5 c 128,-1,33
 339 900 339 900 274 792.5 c 128,-1,34
 209 685 209 685 184 543 c 0,35,36
 161 401 161 401 189.5 292.5 c 128,-1,37
 218 184 218 184 291.5 123 c 128,-1,38
 365 62 365 62 477 62 c 0,23,24
EndSplineSet
Substitution2: "'smcp' Lowercase to Small Capitals in Latin lookup 68 subtable" a.sc
Substitution2: "'c2sc' Capitals to Small Capitals in Latin lookup 67 subtable" a.sc
Substitution2: "Single Substitution lookup 44 subtable" ordfeminine
Substitution2: "'sups' Superscript in Latin lookup 39 subtable" a.sups
Substitution2: "'subs' Subscript in Latin lookup 38 subtable" a.subs
Substitution2: "'sinf' Scientific Inferiors in Latin lookup 18 subtable" a.subs
AlternateSubs2: "'aalt' Access All Alternates in Latin lookup 1 subtable" ordfeminine a.sups a.subs a.sc
EndChar

StartChar: aturn
Encoding: 592 592 540
Width: 1173
GlyphClass: 2
Flags: W
AnchorPoint: "Anchor-4" 249 1087 basechar 0
AnchorPoint: "Anchor-1" 702 1087 basechar 0
AnchorPoint: "Anchor-0" 523 0 basechar 0
LayerCount: 2
Fore
SplineSet
718 1108 m 0,0,1
 853 1108 853 1108 943 1036.5 c 128,-1,2
 1033 965 1033 965 1069.5 838.5 c 128,-1,3
 1106 712 1106 712 1078 546 c 0,4,5
 1051 380 1051 380 972 253 c 128,-1,6
 893 126 893 126 779 55 c 128,-1,7
 665 -16 665 -16 531 -16 c 0,8,9
 439 -16 439 -16 369.5 18.5 c 128,-1,10
 300 53 300 53 258 113 c 128,-1,11
 216 173 216 173 203 247 c 1,12,-1
 199 247 l 1,13,-1
 157 0 l 1,14,-1
 69 0 l 1,15,-1
 249 1087 l 1,16,-1
 336 1087 l 1,17,-1
 297 846 l 1,18,-1
 303 846 l 1,19,20
 342 920 342 920 404 979.5 c 128,-1,21
 466 1039 466 1039 546 1073.5 c 128,-1,22
 626 1108 626 1108 718 1108 c 0,0,1
697 1025 m 0,23,24
 583 1025 583 1025 490 964 c 128,-1,25
 397 903 397 903 333.5 795 c 128,-1,26
 270 687 270 687 245 545 c 0,27,28
 222 403 222 403 249 295 c 128,-1,29
 276 187 276 187 348.5 127 c 128,-1,30
 421 67 421 67 533 67 c 0,31,32
 646 67 646 67 740 127 c 128,-1,33
 834 187 834 187 900 295 c 128,-1,34
 966 403 966 403 989 545 c 0,35,36
 1012 688 1012 688 984 796 c 128,-1,37
 956 904 956 904 882.5 964.5 c 128,-1,38
 809 1025 809 1025 697 1025 c 0,23,24
EndSplineSet
EndChar

StartChar: ae
Encoding: 230 230 544
Width: 1796
GlyphClass: 2
Flags: W
AnchorPoint: "Anchor-1" 962 1087 basechar 0
LayerCount: 2
Fore
SplineSet
358 -21 m 0,0,1
 195 -21 195 -21 112.5 68 c 128,-1,2
 30 157 30 157 56 309 c 0,3,4
 72 405 72 405 127 471.5 c 128,-1,5
 182 538 182 538 279.5 573 c 128,-1,6
 377 608 377 608 518 608 c 0,7,8
 574 608 574 608 625.5 607.5 c 128,-1,9
 677 607 677 607 732 606 c 128,-1,10
 787 605 787 605 850 605 c 1,11,-1
 841 530 l 1,12,13
 764 530 764 530 681 530 c 128,-1,14
 598 530 598 530 522 530 c 0,15,16
 358 530 358 530 261 476 c 128,-1,17
 164 422 164 422 145 307 c 0,18,19
 126 188 126 188 183 124.5 c 128,-1,20
 240 61 240 61 369 61 c 0,21,22
 491 61 491 61 578.5 113.5 c 128,-1,23
 666 166 666 166 719 255.5 c 128,-1,24
 772 345 772 345 789 454 c 2,25,-1
 846 785 l 2,26,27
 867 903 867 903 800.5 974 c 128,-1,28
 734 1045 734 1045 601 1045 c 0,29,30
 513 1045 513 1045 439 1010.5 c 128,-1,31
 365 976 365 976 315.5 916 c 128,-1,32
 266 856 266 856 251 780 c 1,33,-1
 160 780 l 1,34,35
 178 881 178 881 241.5 959 c 128,-1,36
 305 1037 305 1037 399.5 1081.5 c 128,-1,37
 494 1126 494 1126 607 1126 c 0,38,39
 719 1126 719 1126 798.5 1082 c 128,-1,40
 878 1038 878 1038 914 962 c 128,-1,41
 950 886 950 886 933 786 c 2,42,-1
 864 384 l 1,43,-1
 858 381 l 1,44,45
 830 265 830 265 763 174.5 c 128,-1,46
 696 84 696 84 595 31.5 c 128,-1,47
 494 -21 494 -21 358 -21 c 0,0,1
1201 -19 m 0,48,49
 1068 -19 1068 -19 979 29.5 c 128,-1,50
 890 78 890 78 846 174.5 c 128,-1,51
 802 271 802 271 802 417 c 0,52,53
 802 571 802 571 845 701 c 128,-1,54
 888 831 888 831 967.5 926 c 128,-1,55
 1047 1021 1047 1021 1155 1073.5 c 128,-1,56
 1263 1126 1263 1126 1394 1126 c 0,57,58
 1494 1126 1494 1126 1567.5 1094 c 128,-1,59
 1641 1062 1641 1062 1681 1000.5 c 128,-1,60
 1721 939 1721 939 1721 854 c 0,61,62
 1721 765 1721 765 1673 702.5 c 128,-1,63
 1625 640 1625 640 1522.5 602 c 128,-1,64
 1420 564 1420 564 1257 546.5 c 128,-1,65
 1094 529 1094 529 863 529 c 1,66,-1
 870 604 l 1,67,68
 1086 604 1086 604 1232 617 c 128,-1,69
 1378 630 1378 630 1466 660 c 128,-1,70
 1554 690 1554 690 1592.5 739.5 c 128,-1,71
 1631 789 1631 789 1631 861 c 0,72,73
 1631 950 1631 950 1569.5 996.5 c 128,-1,74
 1508 1043 1508 1043 1393 1043 c 0,75,76
 1250 1043 1250 1043 1138.5 972 c 128,-1,77
 1027 901 1027 901 961.5 774 c 128,-1,78
 896 647 896 647 891 479 c 0,79,80
 888 463 888 463 886.5 451 c 128,-1,81
 885 439 885 439 883.5 429 c 128,-1,82
 882 419 882 419 882 411 c 0,83,84
 882 232 882 232 958.5 148 c 128,-1,85
 1035 64 1035 64 1201 64 c 0,86,87
 1325 64 1325 64 1413 111 c 128,-1,88
 1501 158 1501 158 1574 256 c 1,89,-1
 1655 230 l 1,90,91
 1572 104 1572 104 1460.5 42.5 c 128,-1,92
 1349 -19 1349 -19 1201 -19 c 0,48,49
EndSplineSet
EndChar

StartChar: b
Encoding: 98 98 548
Width: 1173
GlyphClass: 2
Flags: W
AnchorPoint: "Anchor-1" 743 1283 basechar 0
AnchorPoint: "Anchor-0" 530 0 basechar 0
LayerCount: 2
Fore
SplineSet
536 -21 m 0,0,1
 443 -21 443 -21 373.5 14 c 128,-1,2
 304 49 304 49 261 109.5 c 128,-1,3
 218 170 218 170 202 245 c 1,4,-1
 196 245 l 1,5,-1
 155 0 l 1,6,-1
 68 0 l 1,7,-1
 315 1490 l 1,8,-1
 404 1490 l 1,9,-1
 297 841 l 1,10,-1
 301 841 l 1,11,12
 339 917 339 917 400 976 c 128,-1,13
 461 1035 461 1035 540 1069 c 128,-1,14
 619 1103 619 1103 711 1103 c 0,15,16
 827 1103 827 1103 911.5 1049.5 c 128,-1,17
 996 996 996 996 1042 899 c 128,-1,18
 1088 802 1088 802 1088 670 c 0,19,20
 1088 545 1088 545 1049.5 422 c 128,-1,21
 1011 299 1011 299 939 199 c 128,-1,22
 867 99 867 99 765.5 39 c 128,-1,23
 664 -21 664 -21 536 -21 c 0,0,1
529 62 m 0,24,25
 638 62 638 62 724.5 115.5 c 128,-1,26
 811 169 811 169 872.5 257 c 128,-1,27
 934 345 934 345 966.5 452.5 c 128,-1,28
 999 560 999 560 999 668 c 0,29,30
 999 830 999 830 919.5 925.5 c 128,-1,31
 840 1021 840 1021 700 1021 c 0,32,33
 590 1021 590 1021 503 968 c 128,-1,34
 416 915 416 915 355.5 826.5 c 128,-1,35
 295 738 295 738 264 630 c 128,-1,36
 233 522 233 522 233 414 c 0,37,38
 233 254 233 254 310.5 158 c 128,-1,39
 388 62 388 62 529 62 c 0,24,25
EndSplineSet
Substitution2: "'sups' Superscript in Latin lookup 39 subtable" b.sups
Substitution2: "'subs' Subscript in Latin lookup 38 subtable" b.subs
Substitution2: "'sinf' Scientific Inferiors in Latin lookup 18 subtable" b.subs
AlternateSubs2: "'aalt' Access All Alternates in Latin lookup 1 subtable" b.sups b.subs
EndChar

StartChar: uni0183
Encoding: 387 387 550
Width: 1173
GlyphClass: 2
Flags: W
AnchorPoint: "Anchor-1" 743 1283 basechar 0
AnchorPoint: "Anchor-0" 530 0 basechar 0
LayerCount: 2
Fore
SplineSet
348 1409 m 1,0,-1
 315 1490 l 1,1,-1
 1048 1490 l 1,2,-1
 1035 1409 l 1,3,-1
 348 1409 l 1,0,-1
536 -21 m 0,4,5
 443 -21 443 -21 373.5 14 c 128,-1,6
 304 49 304 49 261 109.5 c 128,-1,7
 218 170 218 170 202 245 c 1,8,-1
 196 245 l 1,9,-1
 155 0 l 1,10,-1
 68 0 l 1,11,-1
 315 1490 l 1,12,-1
 404 1490 l 1,13,-1
 297 841 l 1,14,-1
 301 841 l 1,15,16
 339 917 339 917 400 976 c 128,-1,17
 461 1035 461 1035 540 1069 c 128,-1,18
 619 1103 619 1103 711 1103 c 0,19,20
 827 1103 827 1103 911.5 1049.5 c 128,-1,21
 996 996 996 996 1042 899 c 128,-1,22
 1088 802 1088 802 1088 670 c 0,23,24
 1088 545 1088 545 1049.5 422 c 128,-1,25
 1011 299 1011 299 939 199 c 128,-1,26
 867 99 867 99 765.5 39 c 128,-1,27
 664 -21 664 -21 536 -21 c 0,4,5
529 62 m 0,28,29
 638 62 638 62 724.5 115.5 c 128,-1,30
 811 169 811 169 872.5 257 c 128,-1,31
 934 345 934 345 966.5 452.5 c 128,-1,32
 999 560 999 560 999 668 c 0,33,34
 999 830 999 830 919.5 925.5 c 128,-1,35
 840 1021 840 1021 700 1021 c 0,36,37
 590 1021 590 1021 503 968 c 128,-1,38
 416 915 416 915 355.5 826.5 c 128,-1,39
 295 738 295 738 264 630 c 128,-1,40
 233 522 233 522 233 414 c 0,41,42
 233 254 233 254 310.5 158 c 128,-1,43
 388 62 388 62 529 62 c 0,28,29
EndSplineSet
EndChar

StartChar: uni0253
Encoding: 595 595 551
Width: 1171
GlyphClass: 2
Flags: W
AnchorPoint: "Anchor-1" 491 1490 basechar 0
AnchorPoint: "Anchor-0" 438 76 basechar 0
LayerCount: 2
Fore
SplineSet
536 -21 m 0,0,1
 444 -21 444 -21 373.5 14 c 128,-1,2
 303 49 303 49 259.5 109 c 128,-1,3
 216 169 216 169 201 242 c 1,4,-1
 194 242 l 1,5,-1
 155 0 l 1,6,-1
 69 0 l 1,7,-1
 216 888 l 1,8,-1
 303 888 l 1,9,-1
 295 841 l 1,10,-1
 300 841 l 1,11,12
 338 915 338 915 398 974.5 c 128,-1,13
 458 1034 458 1034 537 1068.5 c 128,-1,14
 616 1103 616 1103 708 1103 c 0,15,16
 843 1103 843 1103 934.5 1032.5 c 128,-1,17
 1026 962 1026 962 1064.5 835.5 c 128,-1,18
 1103 709 1103 709 1075 542 c 0,19,20
 1049 376 1049 376 972 249 c 128,-1,21
 895 122 895 122 783 50.5 c 128,-1,22
 671 -21 671 -21 536 -21 c 0,0,1
536 62 m 0,23,24
 647 62 647 62 741 122.5 c 128,-1,25
 835 183 835 183 899.5 291.5 c 128,-1,26
 964 400 964 400 987 542 c 0,27,28
 1012 685 1012 685 983.5 793 c 128,-1,29
 955 901 955 901 881 961.5 c 128,-1,30
 807 1022 807 1022 694 1022 c 0,31,32
 580 1022 580 1022 487 961.5 c 128,-1,33
 394 901 394 901 330.5 793 c 128,-1,34
 267 685 267 685 243 542 c 0,35,36
 219 401 219 401 247 292.5 c 128,-1,37
 275 184 275 184 348 123 c 128,-1,38
 421 62 421 62 536 62 c 0,23,24
216 889 m 1,39,-1
 252 1108 l 1,40,-1
 281 1277 l 2,41,42
 299 1385 299 1385 363.5 1438.5 c 128,-1,43
 428 1492 428 1492 536 1492 c 0,44,45
 557 1492 557 1492 579 1492 c 128,-1,46
 601 1492 601 1492 618 1492 c 1,47,-1
 605 1411 l 1,48,49
 587 1411 587 1411 565.5 1411 c 128,-1,50
 544 1411 544 1411 530 1411 c 0,51,52
 458 1411 458 1411 420 1380.5 c 128,-1,53
 382 1350 382 1350 370 1277 c 2,54,-1
 342 1108 l 1,55,-1
 305 889 l 1,56,-1
 216 889 l 1,39,-1
EndSplineSet
EndChar

StartChar: thorn
Encoding: 254 254 555
Width: 1153
Flags: W
LayerCount: 2
Fore
SplineSet
523 -23 m 0,0,1
 433 -23 433 -23 368 10.5 c 128,-1,2
 303 44 303 44 262 104.5 c 128,-1,3
 221 165 221 165 204 243 c 1,4,-1
 198 243 l 1,5,-1
 88 -418 l 1,6,-1
 -1 -418 l 1,7,-1
 315 1490 l 1,8,-1
 404 1490 l 1,9,-1
 300 862 l 1,10,-1
 307 862 l 1,11,12
 347 939 347 939 408 998 c 128,-1,13
 469 1057 469 1057 546.5 1090.5 c 128,-1,14
 624 1124 624 1124 712 1124 c 0,15,16
 846 1124 846 1124 933 1050.5 c 128,-1,17
 1020 977 1020 977 1053.5 848 c 128,-1,18
 1087 719 1087 719 1060 552 c 256,19,20
 1033 385 1033 385 956.5 255 c 128,-1,21
 880 125 880 125 768.5 51 c 128,-1,22
 657 -23 657 -23 523 -23 c 0,0,1
528 60 m 0,23,24
 639 60 639 60 730.5 124 c 128,-1,25
 822 188 822 188 884.5 299 c 128,-1,26
 947 410 947 410 970 553 c 0,27,28
 994 693 994 693 968 804 c 128,-1,29
 942 915 942 915 872 978.5 c 128,-1,30
 802 1042 802 1042 690 1042 c 256,31,32
 578 1042 578 1042 486 978 c 128,-1,33
 394 914 394 914 332 804 c 128,-1,34
 270 694 270 694 246 553 c 0,35,36
 223 412 223 412 248 300 c 128,-1,37
 273 188 273 188 344 124 c 128,-1,38
 415 60 415 60 528 60 c 0,23,24
EndSplineSet
EndChar

StartChar: c
Encoding: 99 99 556
Width: 1079
GlyphClass: 2
Flags: W
AnchorPoint: "Anchor-3" 480 0 basechar 0
AnchorPoint: "Anchor-1" 659 1087 basechar 0
AnchorPoint: "Anchor-0" 481 0 basechar 0
LayerCount: 2
Fore
SplineSet
484 -19 m 0,0,1
 355 -19 355 -19 263.5 42.5 c 128,-1,2
 172 104 172 104 125.5 212.5 c 128,-1,3
 79 321 79 321 88 463 c 0,4,5
 95 588 95 588 139 703 c 128,-1,6
 183 818 183 818 259 909 c 128,-1,7
 335 1000 335 1000 436 1052 c 128,-1,8
 537 1104 537 1104 657 1104 c 0,9,10
 745 1104 745 1104 812.5 1076 c 128,-1,11
 880 1048 880 1048 926.5 1002.5 c 128,-1,12
 973 957 973 957 998 902 c 128,-1,13
 1023 847 1023 847 1027 791 c 1,14,-1
 939 779 l 1,15,16
 936 821 936 821 917.5 863.5 c 128,-1,17
 899 906 899 906 864.5 942 c 128,-1,18
 830 978 830 978 778 1000 c 128,-1,19
 726 1022 726 1022 657 1022 c 0,20,21
 553 1022 553 1022 468 975 c 128,-1,22
 383 928 383 928 320 848 c 128,-1,23
 257 768 257 768 220 667.5 c 128,-1,24
 183 567 183 567 177 459 c 0,25,26
 169 343 169 343 203.5 254 c 128,-1,27
 238 165 238 165 309 115 c 128,-1,28
 380 65 380 65 484 65 c 0,29,30
 557 65 557 65 618 87.5 c 128,-1,31
 679 110 679 110 727.5 147 c 128,-1,32
 776 184 776 184 811 228 c 128,-1,33
 846 272 846 272 863 314 c 1,34,-1
 949 296 l 1,35,36
 928 240 928 240 884.5 184.5 c 128,-1,37
 841 129 841 129 780.5 83.5 c 128,-1,38
 720 38 720 38 645 9.5 c 128,-1,39
 570 -19 570 -19 484 -19 c 0,0,1
EndSplineSet
Substitution2: "'sups' Superscript in Latin lookup 39 subtable" c.sups
Substitution2: "'subs' Subscript in Latin lookup 38 subtable" c.subs
Substitution2: "'sinf' Scientific Inferiors in Latin lookup 18 subtable" c.subs
AlternateSubs2: "'aalt' Access All Alternates in Latin lookup 1 subtable" c.sups c.subs
EndChar

StartChar: uni023C
Encoding: 572 572 557
Width: 1079
GlyphClass: 2
Flags: W
AnchorPoint: "Anchor-3" 480 0 basechar 0
AnchorPoint: "Anchor-1" 659 1087 basechar 0
AnchorPoint: "Anchor-0" 481 0 basechar 0
LayerCount: 2
Fore
SplineSet
4 -418 m 1,0,-1
 1028 1505 l 1,1,-1
 1106 1505 l 1,2,-1
 82 -418 l 1,3,-1
 4 -418 l 1,0,-1
484 -19 m 0,4,5
 355 -19 355 -19 263.5 42.5 c 128,-1,6
 172 104 172 104 125.5 212.5 c 128,-1,7
 79 321 79 321 88 463 c 0,8,9
 95 588 95 588 139 703 c 128,-1,10
 183 818 183 818 259 909 c 128,-1,11
 335 1000 335 1000 436 1052 c 128,-1,12
 537 1104 537 1104 657 1104 c 0,13,14
 745 1104 745 1104 812.5 1076 c 128,-1,15
 880 1048 880 1048 926.5 1002.5 c 128,-1,16
 973 957 973 957 998 902 c 128,-1,17
 1023 847 1023 847 1027 791 c 1,18,-1
 939 779 l 1,19,20
 936 821 936 821 917.5 863.5 c 128,-1,21
 899 906 899 906 864.5 942 c 128,-1,22
 830 978 830 978 778 1000 c 128,-1,23
 726 1022 726 1022 657 1022 c 0,24,25
 553 1022 553 1022 468 975 c 128,-1,26
 383 928 383 928 320 848 c 128,-1,27
 257 768 257 768 220 667.5 c 128,-1,28
 183 567 183 567 177 459 c 0,29,30
 169 343 169 343 203.5 254 c 128,-1,31
 238 165 238 165 309 115 c 128,-1,32
 380 65 380 65 484 65 c 0,33,34
 557 65 557 65 618 87.5 c 128,-1,35
 679 110 679 110 727.5 147 c 128,-1,36
 776 184 776 184 811 228 c 128,-1,37
 846 272 846 272 863 314 c 1,38,-1
 949 296 l 1,39,40
 928 240 928 240 884.5 184.5 c 128,-1,41
 841 129 841 129 780.5 83.5 c 128,-1,42
 720 38 720 38 645 9.5 c 128,-1,43
 570 -19 570 -19 484 -19 c 0,4,5
EndSplineSet
Ligature2: "'ccmp' Glyph Composition/Decomposition in Latin lookup 6 subtable" c uni0338
EndChar

StartChar: uni0188
Encoding: 392 392 558
Width: 1079
GlyphClass: 2
Flags: W
AnchorPoint: "Anchor-3" 480 0 basechar 0
AnchorPoint: "Anchor-1" 659 1087 basechar 0
AnchorPoint: "Anchor-0" 481 0 basechar 0
LayerCount: 2
Fore
SplineSet
947 783 m 1,0,-1
 930 1022 l 1,1,2
 917 1136 917 1136 977.5 1196.5 c 128,-1,3
 1038 1257 1038 1257 1148 1257 c 0,4,5
 1169 1257 1169 1257 1190.5 1256.5 c 128,-1,6
 1212 1256 1212 1256 1229 1256 c 1,7,-1
 1215 1176 l 1,8,9
 1197 1176 1197 1176 1173.5 1176.5 c 128,-1,10
 1150 1177 1150 1177 1137 1177 c 0,11,12
 1069 1177 1069 1177 1037.5 1142 c 128,-1,13
 1006 1107 1006 1107 1012 1036 c 2,14,-1
 1027 792 l 1,15,-1
 947 783 l 1,0,-1
484 -19 m 0,16,17
 355 -19 355 -19 263.5 42.5 c 128,-1,18
 172 104 172 104 125.5 212.5 c 128,-1,19
 79 321 79 321 88 463 c 0,20,21
 95 588 95 588 139 703 c 128,-1,22
 183 818 183 818 259 909 c 128,-1,23
 335 1000 335 1000 436 1052 c 128,-1,24
 537 1104 537 1104 657 1104 c 0,25,26
 745 1104 745 1104 812.5 1076 c 128,-1,27
 880 1048 880 1048 926.5 1002.5 c 128,-1,28
 973 957 973 957 998 902 c 128,-1,29
 1023 847 1023 847 1027 791 c 1,30,-1
 939 779 l 1,31,32
 936 821 936 821 917.5 863.5 c 128,-1,33
 899 906 899 906 864.5 942 c 128,-1,34
 830 978 830 978 778 1000 c 128,-1,35
 726 1022 726 1022 657 1022 c 0,36,37
 553 1022 553 1022 468 975 c 128,-1,38
 383 928 383 928 320 848 c 128,-1,39
 257 768 257 768 220 667.5 c 128,-1,40
 183 567 183 567 177 459 c 0,41,42
 169 343 169 343 203.5 254 c 128,-1,43
 238 165 238 165 309 115 c 128,-1,44
 380 65 380 65 484 65 c 0,45,46
 557 65 557 65 618 87.5 c 128,-1,47
 679 110 679 110 727.5 147 c 128,-1,48
 776 184 776 184 811 228 c 128,-1,49
 846 272 846 272 863 314 c 1,50,-1
 949 296 l 1,51,52
 928 240 928 240 884.5 184.5 c 128,-1,53
 841 129 841 129 780.5 83.5 c 128,-1,54
 720 38 720 38 645 9.5 c 128,-1,55
 570 -19 570 -19 484 -19 c 0,16,17
EndSplineSet
EndChar

StartChar: d
Encoding: 100 100 567
Width: 1172
GlyphClass: 2
Flags: W
AnchorPoint: "Anchor-1" 669 1283 basechar 0
AnchorPoint: "Anchor-0" 461 0 basechar 0
LayerCount: 2
Fore
SplineSet
461 -21 m 0,0,1
 286 -21 286 -21 185 97.5 c 128,-1,2
 84 216 84 216 84 412 c 0,3,4
 84 539 84 539 122.5 662 c 128,-1,5
 161 785 161 785 233.5 885 c 128,-1,6
 306 985 306 985 408 1044 c 128,-1,7
 510 1103 510 1103 635 1103 c 0,8,9
 730 1103 730 1103 800.5 1068 c 128,-1,10
 871 1033 871 1033 914 973 c 128,-1,11
 957 913 957 913 969 839 c 1,12,-1
 973 839 l 1,13,-1
 1081 1490 l 1,14,-1
 1171 1490 l 1,15,-1
 924 0 l 1,16,-1
 837 0 l 1,17,-1
 876 242 l 1,18,-1
 871 242 l 1,19,20
 832 167 832 167 770.5 107.5 c 128,-1,21
 709 48 709 48 631 13.5 c 128,-1,22
 553 -21 553 -21 461 -21 c 0,0,1
472 62 m 0,23,24
 583 62 583 62 669.5 116 c 128,-1,25
 756 170 756 170 816.5 258.5 c 128,-1,26
 877 347 877 347 908.5 455 c 128,-1,27
 940 563 940 563 940 671 c 0,28,29
 940 831 940 831 862 926 c 128,-1,30
 784 1021 784 1021 643 1021 c 0,31,32
 534 1021 534 1021 447.5 968 c 128,-1,33
 361 915 361 915 299.5 827.5 c 128,-1,34
 238 740 238 740 205.5 632.5 c 128,-1,35
 173 525 173 525 173 416 c 0,36,37
 173 255 173 255 252.5 158.5 c 128,-1,38
 332 62 332 62 472 62 c 0,23,24
EndSplineSet
Substitution2: "'sups' Superscript in Latin lookup 39 subtable" d.sups
Substitution2: "'subs' Subscript in Latin lookup 38 subtable" d.subs
Substitution2: "'sinf' Scientific Inferiors in Latin lookup 18 subtable" d.subs
AlternateSubs2: "'aalt' Access All Alternates in Latin lookup 1 subtable" d.sups d.subs
EndChar

StartChar: drthook
Encoding: 598 598 569
Width: 1172
GlyphClass: 2
Flags: W
AnchorPoint: "Anchor-1" 669 1283 basechar 0
AnchorPoint: "Anchor-0" 461 0 basechar 0
LayerCount: 2
Fore
SplineSet
984 -419 m 0,0,1
 876 -419 876 -419 830 -365.5 c 128,-1,2
 784 -312 784 -312 802 -203 c 2,3,-1
 878 255 l 1,4,-1
 966 255 l 1,5,-1
 891 -203 l 2,6,7
 879 -276 879 -276 906 -307 c 128,-1,8
 933 -338 933 -338 1005 -338 c 0,9,10
 1018 -338 1018 -338 1039.5 -338 c 128,-1,11
 1061 -338 1061 -338 1079 -338 c 1,12,-1
 1067 -418 l 1,13,14
 1049 -419 1049 -419 1027 -419 c 128,-1,15
 1005 -419 1005 -419 984 -419 c 0,0,1
461 -21 m 0,16,17
 286 -21 286 -21 185 97.5 c 128,-1,18
 84 216 84 216 84 412 c 0,19,20
 84 539 84 539 122.5 662 c 128,-1,21
 161 785 161 785 233.5 885 c 128,-1,22
 306 985 306 985 408 1044 c 128,-1,23
 510 1103 510 1103 635 1103 c 0,24,25
 730 1103 730 1103 800.5 1068 c 128,-1,26
 871 1033 871 1033 914 973 c 128,-1,27
 957 913 957 913 969 839 c 1,28,-1
 973 839 l 1,29,-1
 1081 1490 l 1,30,-1
 1171 1490 l 1,31,-1
 924 0 l 1,32,-1
 837 0 l 1,33,-1
 876 242 l 1,34,-1
 871 242 l 1,35,36
 832 167 832 167 770.5 107.5 c 128,-1,37
 709 48 709 48 631 13.5 c 128,-1,38
 553 -21 553 -21 461 -21 c 0,16,17
472 62 m 0,39,40
 583 62 583 62 669.5 116 c 128,-1,41
 756 170 756 170 816.5 258.5 c 128,-1,42
 877 347 877 347 908.5 455 c 128,-1,43
 940 563 940 563 940 671 c 0,44,45
 940 831 940 831 862 926 c 128,-1,46
 784 1021 784 1021 643 1021 c 0,47,48
 534 1021 534 1021 447.5 968 c 128,-1,49
 361 915 361 915 299.5 827.5 c 128,-1,50
 238 740 238 740 205.5 632.5 c 128,-1,51
 173 525 173 525 173 416 c 0,52,53
 173 255 173 255 252.5 158.5 c 128,-1,54
 332 62 332 62 472 62 c 0,39,40
EndSplineSet
EndChar

StartChar: uni0257
Encoding: 599 599 570
Width: 1173
GlyphClass: 2
Flags: W
AnchorPoint: "Anchor-4" 924 0 basechar 0
AnchorPoint: "Anchor-1" 659 1087 basechar 0
AnchorPoint: "Anchor-0" 484 0 basechar 0
LayerCount: 2
Fore
SplineSet
979 868 m 1,0,-1
 1015 1088 l 1,1,-1
 1043 1257 l 2,2,3
 1061 1364 1061 1364 1126 1418 c 128,-1,4
 1191 1472 1191 1472 1299 1472 c 0,5,6
 1320 1472 1320 1472 1342 1472 c 128,-1,7
 1364 1472 1364 1472 1381 1471 c 1,8,-1
 1368 1390 l 1,9,10
 1350 1390 1350 1390 1328 1390.5 c 128,-1,11
 1306 1391 1306 1391 1293 1391 c 0,12,13
 1221 1391 1221 1391 1183 1360 c 128,-1,14
 1145 1329 1145 1329 1133 1257 c 2,15,-1
 1104 1087 l 1,16,-1
 1068 868 l 1,17,-1
 979 868 l 1,0,-1
455 -21 m 0,18,19
 321 -21 321 -21 230.5 50.5 c 128,-1,20
 140 122 140 122 103.5 249 c 128,-1,21
 67 376 67 376 95 543 c 0,22,23
 123 708 123 708 202 835 c 128,-1,24
 281 962 281 962 395 1032.5 c 128,-1,25
 509 1103 509 1103 643 1103 c 0,26,27
 735 1103 735 1103 804 1068.5 c 128,-1,28
 873 1034 873 1034 915.5 975 c 128,-1,29
 958 916 958 916 970 841 c 1,30,-1
 975 841 l 1,31,-1
 1016 1087 l 1,32,-1
 1104 1087 l 1,33,-1
 924 0 l 1,34,-1
 837 0 l 1,35,-1
 877 243 l 1,36,-1
 870 243 l 1,37,38
 832 169 832 169 770 109 c 128,-1,39
 708 49 708 49 628.5 14 c 128,-1,40
 549 -21 549 -21 455 -21 c 0,18,19
477 62 m 0,41,42
 590 62 590 62 683.5 123.5 c 128,-1,43
 777 185 777 185 840.5 293 c 128,-1,44
 904 401 904 401 928 543 c 0,45,46
 951 685 951 685 924.5 792.5 c 128,-1,47
 898 900 898 900 825.5 960.5 c 128,-1,48
 753 1021 753 1021 640 1021 c 0,49,50
 528 1021 528 1021 433.5 960.5 c 128,-1,51
 339 900 339 900 274 792.5 c 128,-1,52
 209 685 209 685 184 543 c 0,53,54
 161 401 161 401 189.5 292.5 c 128,-1,55
 218 184 218 184 291.5 123 c 128,-1,56
 365 62 365 62 477 62 c 0,41,42
EndSplineSet
EndChar

StartChar: uni018C
Encoding: 396 396 571
Width: 1172
GlyphClass: 2
Flags: W
AnchorPoint: "Anchor-1" 669 1283 basechar 0
AnchorPoint: "Anchor-0" 461 0 basechar 0
LayerCount: 2
Fore
SplineSet
1111 1409 m 1,0,-1
 424 1409 l 1,1,-1
 437 1490 l 1,2,-1
 1171 1490 l 1,3,-1
 1111 1409 l 1,0,-1
461 -21 m 0,4,5
 286 -21 286 -21 185 97.5 c 128,-1,6
 84 216 84 216 84 412 c 0,7,8
 84 539 84 539 122.5 662 c 128,-1,9
 161 785 161 785 233.5 885 c 128,-1,10
 306 985 306 985 408 1044 c 128,-1,11
 510 1103 510 1103 635 1103 c 0,12,13
 730 1103 730 1103 800.5 1068 c 128,-1,14
 871 1033 871 1033 914 973 c 128,-1,15
 957 913 957 913 969 839 c 1,16,-1
 973 839 l 1,17,-1
 1081 1490 l 1,18,-1
 1171 1490 l 1,19,-1
 924 0 l 1,20,-1
 837 0 l 1,21,-1
 876 242 l 1,22,-1
 871 242 l 1,23,24
 832 167 832 167 770.5 107.5 c 128,-1,25
 709 48 709 48 631 13.5 c 128,-1,26
 553 -21 553 -21 461 -21 c 0,4,5
472 62 m 0,27,28
 583 62 583 62 669.5 116 c 128,-1,29
 756 170 756 170 816.5 258.5 c 128,-1,30
 877 347 877 347 908.5 455 c 128,-1,31
 940 563 940 563 940 671 c 0,32,33
 940 831 940 831 862 926 c 128,-1,34
 784 1021 784 1021 643 1021 c 0,35,36
 534 1021 534 1021 447.5 968 c 128,-1,37
 361 915 361 915 299.5 827.5 c 128,-1,38
 238 740 238 740 205.5 632.5 c 128,-1,39
 173 525 173 525 173 416 c 0,40,41
 173 255 173 255 252.5 158.5 c 128,-1,42
 332 62 332 62 472 62 c 0,27,28
EndSplineSet
EndChar

StartChar: uni0221
Encoding: 545 545 572
Width: 1492
GlyphClass: 2
Flags: W
AnchorPoint: "Anchor-1" 669 1283 basechar 0
AnchorPoint: "Anchor-0" 461 0 basechar 0
LayerCount: 2
Fore
SplineSet
1043 -413 m 0,0,1
 955 -413 955 -413 899.5 -376.5 c 128,-1,2
 844 -340 844 -340 821.5 -278 c 128,-1,3
 799 -216 799 -216 812 -141 c 2,4,-1
 855 121 l 1,5,-1
 944 121 l 1,6,-1
 900 -147 l 2,7,8
 885 -234 885 -234 931 -282.5 c 128,-1,9
 977 -331 977 -331 1056 -331 c 0,10,11
 1132 -331 1132 -331 1189 -287.5 c 128,-1,12
 1246 -244 1246 -244 1258 -174 c 256,13,14
 1270 -104 1270 -104 1227.5 -60.5 c 128,-1,15
 1185 -17 1185 -17 1112 -15 c 0,16,17
 1063 -13 1063 -13 1014.5 -34 c 128,-1,18
 966 -55 966 -55 912.5 -103 c 128,-1,19
 859 -151 859 -151 793 -231 c 1,20,-1
 632 -392 l 1,21,-1
 577 -336 l 1,22,-1
 723 -189 l 1,23,24
 841 -51 841 -51 936.5 7.5 c 128,-1,25
 1032 66 1032 66 1123 66 c 0,26,27
 1237 66 1237 66 1302 0 c 128,-1,28
 1367 -66 1367 -66 1349 -173 c 0,29,30
 1332 -281 1332 -281 1246 -347 c 128,-1,31
 1160 -413 1160 -413 1043 -413 c 0,0,1
461 -21 m 0,32,33
 286 -21 286 -21 185 97.5 c 128,-1,34
 84 216 84 216 84 412 c 0,35,36
 84 539 84 539 122.5 662 c 128,-1,37
 161 785 161 785 233.5 885 c 128,-1,38
 306 985 306 985 408 1044 c 128,-1,39
 510 1103 510 1103 635 1103 c 0,40,41
 730 1103 730 1103 800.5 1068 c 128,-1,42
 871 1033 871 1033 914 973 c 128,-1,43
 957 913 957 913 969 839 c 1,44,-1
 973 839 l 1,45,-1
 1081 1490 l 1,46,-1
 1171 1490 l 1,47,-1
 924 0 l 1,48,-1
 837 0 l 1,49,-1
 876 242 l 1,50,-1
 871 242 l 1,51,52
 832 167 832 167 770.5 107.5 c 128,-1,53
 709 48 709 48 631 13.5 c 128,-1,54
 553 -21 553 -21 461 -21 c 0,32,33
472 62 m 0,55,56
 583 62 583 62 669.5 116 c 128,-1,57
 756 170 756 170 816.5 258.5 c 128,-1,58
 877 347 877 347 908.5 455 c 128,-1,59
 940 563 940 563 940 671 c 0,60,61
 940 831 940 831 862 926 c 128,-1,62
 784 1021 784 1021 643 1021 c 0,63,64
 534 1021 534 1021 447.5 968 c 128,-1,65
 361 915 361 915 299.5 827.5 c 128,-1,66
 238 740 238 740 205.5 632.5 c 128,-1,67
 173 525 173 525 173 416 c 0,68,69
 173 255 173 255 252.5 158.5 c 128,-1,70
 332 62 332 62 472 62 c 0,55,56
EndSplineSet
EndChar

StartChar: uni02A3
Encoding: 675 675 580
Width: 2031
GlyphClass: 2
Flags: W
AnchorPoint: "Anchor-1" 669 1283 basechar 0
AnchorPoint: "Anchor-0" 461 0 basechar 0
LayerCount: 2
Fore
SplineSet
1029 0 m 1,0,-1
 1041 74 l 1,1,-1
 1855 1025 l 1,2,-1
 1857 1033 l 1,3,-1
 1045 1033 l 1,4,-1
 1058 1118 l 1,5,-1
 1984 1118 l 1,6,-1
 1972 1040 l 1,7,-1
 1164 92 l 1,8,-1
 1164 84 l 1,9,-1
 1839 84 l 1,10,-1
 1825 0 l 1,11,-1
 1029 0 l 1,0,-1
461 -21 m 0,12,13
 286 -21 286 -21 185 97.5 c 128,-1,14
 84 216 84 216 84 412 c 0,15,16
 84 539 84 539 122.5 662 c 128,-1,17
 161 785 161 785 233.5 885 c 128,-1,18
 306 985 306 985 408 1044 c 128,-1,19
 510 1103 510 1103 635 1103 c 0,20,21
 730 1103 730 1103 800.5 1068 c 128,-1,22
 871 1033 871 1033 914 973 c 128,-1,23
 957 913 957 913 969 839 c 1,24,-1
 973 839 l 1,25,-1
 1081 1490 l 1,26,-1
 1171 1490 l 1,27,-1
 924 0 l 1,28,-1
 837 0 l 1,29,-1
 876 242 l 1,30,-1
 871 242 l 1,31,32
 832 167 832 167 770.5 107.5 c 128,-1,33
 709 48 709 48 631 13.5 c 128,-1,34
 553 -21 553 -21 461 -21 c 0,12,13
472 62 m 0,35,36
 583 62 583 62 669.5 116 c 128,-1,37
 756 170 756 170 816.5 258.5 c 128,-1,38
 877 347 877 347 908.5 455 c 128,-1,39
 940 563 940 563 940 671 c 0,40,41
 940 831 940 831 862 926 c 128,-1,42
 784 1021 784 1021 643 1021 c 0,43,44
 534 1021 534 1021 447.5 968 c 128,-1,45
 361 915 361 915 299.5 827.5 c 128,-1,46
 238 740 238 740 205.5 632.5 c 128,-1,47
 173 525 173 525 173 416 c 0,48,49
 173 255 173 255 252.5 158.5 c 128,-1,50
 332 62 332 62 472 62 c 0,35,36
EndSplineSet
EndChar

StartChar: dyogh
Encoding: 676 676 582
Width: 1960
GlyphClass: 2
Flags: W
AnchorPoint: "Anchor-1" 669 1283 basechar 0
AnchorPoint: "Anchor-0" 461 0 basechar 0
LayerCount: 2
Fore
SplineSet
914 -88 m 1,0,1
 914 -167 914 -167 956 -225.5 c 128,-1,2
 998 -284 998 -284 1072.5 -317 c 128,-1,3
 1147 -350 1147 -350 1242 -350 c 0,4,5
 1359 -350 1359 -350 1450.5 -302.5 c 128,-1,6
 1542 -255 1542 -255 1601 -175 c 128,-1,7
 1660 -95 1660 -95 1676 4 c 0,8,9
 1695 115 1695 115 1653.5 196.5 c 128,-1,10
 1612 278 1612 278 1520 321.5 c 128,-1,11
 1428 365 1428 365 1294 365 c 2,12,-1
 1217 365 l 1,13,-1
 1230 443 l 1,14,-1
 1764 1001 l 1,15,-1
 1765 1004 l 1,16,-1
 1042 1004 l 1,17,-1
 1056 1088 l 1,18,-1
 1901 1088 l 1,19,-1
 1889 1019 l 1,20,-1
 1335 442 l 1,21,-1
 1335 439 l 1,22,23
 1445 437 1445 437 1532 406 c 128,-1,24
 1619 375 1619 375 1676.5 318 c 128,-1,25
 1734 261 1734 261 1758 181.5 c 128,-1,26
 1782 102 1782 102 1766 4 c 0,27,28
 1746 -118 1746 -118 1672 -217.5 c 128,-1,29
 1598 -317 1598 -317 1483.5 -375.5 c 128,-1,30
 1369 -434 1369 -434 1228 -434 c 0,31,32
 1108 -434 1108 -434 1016 -390.5 c 128,-1,33
 924 -347 924 -347 872.5 -268.5 c 128,-1,34
 821 -190 821 -190 823 -88 c 1,35,-1
 914 -88 l 1,0,1
461 -21 m 0,36,37
 286 -21 286 -21 185 97.5 c 128,-1,38
 84 216 84 216 84 412 c 0,39,40
 84 539 84 539 122.5 662 c 128,-1,41
 161 785 161 785 233.5 885 c 128,-1,42
 306 985 306 985 408 1044 c 128,-1,43
 510 1103 510 1103 635 1103 c 0,44,45
 730 1103 730 1103 800.5 1068 c 128,-1,46
 871 1033 871 1033 914 973 c 128,-1,47
 957 913 957 913 969 839 c 1,48,-1
 973 839 l 1,49,-1
 1081 1490 l 1,50,-1
 1171 1490 l 1,51,-1
 924 0 l 1,52,-1
 837 0 l 1,53,-1
 876 242 l 1,54,-1
 871 242 l 1,55,56
 832 167 832 167 770.5 107.5 c 128,-1,57
 709 48 709 48 631 13.5 c 128,-1,58
 553 -21 553 -21 461 -21 c 0,36,37
472 62 m 0,59,60
 583 62 583 62 669.5 116 c 128,-1,61
 756 170 756 170 816.5 258.5 c 128,-1,62
 877 347 877 347 908.5 455 c 128,-1,63
 940 563 940 563 940 671 c 0,64,65
 940 831 940 831 862 926 c 128,-1,66
 784 1021 784 1021 643 1021 c 0,67,68
 534 1021 534 1021 447.5 968 c 128,-1,69
 361 915 361 915 299.5 827.5 c 128,-1,70
 238 740 238 740 205.5 632.5 c 128,-1,71
 173 525 173 525 173 416 c 0,72,73
 173 255 173 255 252.5 158.5 c 128,-1,74
 332 62 332 62 472 62 c 0,59,60
EndSplineSet
EndChar

StartChar: e
Encoding: 101 101 584
Width: 1088
GlyphClass: 2
Flags: W
AnchorPoint: "Anchor-4" 951 263 basechar 0
AnchorPoint: "Anchor-3" 482 0 basechar 0
AnchorPoint: "Anchor-1" 665 1087 basechar 0
AnchorPoint: "Anchor-0" 480 0 basechar 0
LayerCount: 2
Fore
SplineSet
487 -19 m 0,0,1
 367 -19 367 -19 276 33.5 c 128,-1,2
 185 86 185 86 135 183 c 128,-1,3
 85 280 85 280 85 415 c 0,4,5
 85 559 85 559 128.5 684 c 128,-1,6
 172 809 172 809 252 904.5 c 128,-1,7
 332 1000 332 1000 439.5 1053 c 128,-1,8
 547 1106 547 1106 675 1106 c 0,9,10
 781 1106 781 1106 856 1069 c 128,-1,11
 931 1032 931 1032 970 967 c 128,-1,12
 1009 902 1009 902 1009 814 c 0,13,14
 1009 709 1009 709 950.5 645.5 c 128,-1,15
 892 582 892 582 780.5 549.5 c 128,-1,16
 669 517 669 517 510 506.5 c 128,-1,17
 351 496 351 496 150 496 c 1,18,-1
 158 573 l 1,19,20
 344 573 344 573 486 580.5 c 128,-1,21
 628 588 628 588 724.5 611.5 c 128,-1,22
 821 635 821 635 870.5 683.5 c 128,-1,23
 920 732 920 732 920 814 c 0,24,25
 920 908 920 908 856 965.5 c 128,-1,26
 792 1023 792 1023 669 1023 c 0,27,28
 553 1023 553 1023 461.5 972.5 c 128,-1,29
 370 922 370 922 305.5 836.5 c 128,-1,30
 241 751 241 751 207 641.5 c 128,-1,31
 173 532 173 532 173 414 c 0,32,33
 173 311 173 311 209 232 c 128,-1,34
 245 153 245 153 316.5 108.5 c 128,-1,35
 388 64 388 64 491 64 c 0,36,37
 615 64 615 64 714.5 125 c 128,-1,38
 814 186 814 186 868 284 c 1,39,-1
 952 266 l 1,40,41
 890 141 890 141 766 61 c 128,-1,42
 642 -19 642 -19 487 -19 c 0,0,1
EndSplineSet
Substitution2: "'sups' Superscript in Latin lookup 39 subtable" e.sups
Substitution2: "'subs' Subscript in Latin lookup 38 subtable" e.subs
Substitution2: "'sinf' Scientific Inferiors in Latin lookup 18 subtable" e.subs
AlternateSubs2: "'aalt' Access All Alternates in Latin lookup 1 subtable" e.sups e.subs
EndChar

StartChar: uni0247
Encoding: 583 583 586
Width: 1121
GlyphClass: 2
Flags: W
AnchorPoint: "Anchor-4" 974 263 basechar 0
AnchorPoint: "Anchor-3" 504 0 basechar 0
AnchorPoint: "Anchor-1" 688 1087 basechar 0
AnchorPoint: "Anchor-0" 503 0 basechar 0
LayerCount: 2
Fore
SplineSet
-55 -418 m 1,0,-1
 1101 1490 l 1,1,-1
 1180 1490 l 1,2,-1
 29 -418 l 1,3,-1
 -55 -418 l 1,0,-1
510 -19 m 0,4,5
 389 -19 389 -19 298.5 33.5 c 128,-1,6
 208 86 208 86 158 183 c 128,-1,7
 108 280 108 280 108 415 c 0,8,9
 108 559 108 559 151.5 684 c 128,-1,10
 195 809 195 809 274.5 904.5 c 128,-1,11
 354 1000 354 1000 461.5 1053 c 128,-1,12
 569 1106 569 1106 697 1106 c 0,13,14
 804 1106 804 1106 879 1069 c 128,-1,15
 954 1032 954 1032 993 967 c 128,-1,16
 1032 902 1032 902 1032 814 c 0,17,18
 1032 709 1032 709 973.5 645.5 c 128,-1,19
 915 582 915 582 803.5 549.5 c 128,-1,20
 692 517 692 517 533 506.5 c 128,-1,21
 374 496 374 496 173 496 c 1,22,-1
 181 573 l 1,23,24
 367 573 367 573 509 580.5 c 128,-1,25
 651 588 651 588 747.5 611.5 c 128,-1,26
 844 635 844 635 893.5 683.5 c 128,-1,27
 943 732 943 732 943 814 c 0,28,29
 943 908 943 908 879 965.5 c 128,-1,30
 815 1023 815 1023 692 1023 c 0,31,32
 576 1023 576 1023 484.5 972.5 c 128,-1,33
 393 922 393 922 328.5 836.5 c 128,-1,34
 264 751 264 751 230 641.5 c 128,-1,35
 196 532 196 532 196 414 c 0,36,37
 196 311 196 311 232 232 c 128,-1,38
 268 153 268 153 339 108.5 c 128,-1,39
 410 64 410 64 513 64 c 0,40,41
 637 64 637 64 737 125 c 128,-1,42
 837 186 837 186 891 284 c 1,43,-1
 975 266 l 1,44,45
 913 141 913 141 788.5 61 c 128,-1,46
 664 -19 664 -19 510 -19 c 0,4,5
EndSplineSet
EndChar

StartChar: eturn
Encoding: 477 477 615
Width: 1088
GlyphClass: 2
Flags: W
AnchorPoint: "Anchor-4" 137 824 basechar 0
AnchorPoint: "Anchor-3" 606 1087 basechar 0
AnchorPoint: "Anchor-1" 622 1087 basechar 0
AnchorPoint: "Anchor-0" 442 0 basechar 0
LayerCount: 2
Fore
SplineSet
601 1106 m 0,0,1
 722 1106 722 1106 812.5 1053.5 c 128,-1,2
 903 1001 903 1001 953 904 c 128,-1,3
 1003 807 1003 807 1003 672 c 0,4,5
 1003 529 1003 529 959.5 403.5 c 128,-1,6
 916 278 916 278 836 183.5 c 128,-1,7
 756 89 756 89 648.5 35 c 128,-1,8
 541 -19 541 -19 413 -19 c 0,9,10
 307 -19 307 -19 232 18 c 128,-1,11
 157 55 157 55 118 121.5 c 128,-1,12
 79 188 79 188 79 273 c 0,13,14
 79 378 79 378 137.5 441.5 c 128,-1,15
 196 505 196 505 307.5 537.5 c 128,-1,16
 419 570 419 570 578 581 c 128,-1,17
 737 592 737 592 938 592 c 1,18,-1
 930 515 l 1,19,20
 744 515 744 515 602 508 c 128,-1,21
 460 501 460 501 363.5 476.5 c 128,-1,22
 267 452 267 452 217.5 404 c 128,-1,23
 168 356 168 356 168 274 c 0,24,25
 168 180 168 180 232 122 c 128,-1,26
 296 64 296 64 419 64 c 0,27,28
 535 64 535 64 626.5 114.5 c 128,-1,29
 718 165 718 165 782.5 251 c 128,-1,30
 847 337 847 337 881 446.5 c 128,-1,31
 915 556 915 556 915 674 c 0,32,33
 915 777 915 777 879 855.5 c 128,-1,34
 843 934 843 934 772 978.5 c 128,-1,35
 701 1023 701 1023 597 1023 c 0,36,37
 474 1023 474 1023 374.5 962.5 c 128,-1,38
 275 902 275 902 220 804 c 1,39,-1
 136 821 l 1,40,41
 198 947 198 947 322 1026.5 c 128,-1,42
 446 1106 446 1106 601 1106 c 0,0,1
EndSplineSet
EndChar

StartChar: _part.f_base
Encoding: 1114123 -1 616
Width: 648
GlyphClass: 2
Flags: W
AnchorPoint: "Anchor-1" 575 1520 basechar 0
LayerCount: 2
Fore
SplineSet
-77 -439 m 0,0,1
 -93 -439 -93 -439 -107.5 -438.5 c 128,-1,2
 -122 -438 -122 -438 -135.5 -435.5 c 128,-1,3
 -149 -433 -149 -433 -165 -431 c 1,4,-1
 -143 -348 l 1,5,6
 -125 -351 -125 -351 -107.5 -352.5 c 128,-1,7
 -90 -354 -90 -354 -70 -354 c 0,8,9
 10 -354 10 -354 61 -312 c 128,-1,10
 112 -270 112 -270 126 -183 c 2,11,-1
 367 1271 l 2,12,13
 381 1352 381 1352 421.5 1408 c 128,-1,14
 462 1464 462 1464 524 1494 c 128,-1,15
 586 1524 586 1524 663 1524 c 0,16,17
 690 1524 690 1524 713.5 1521.5 c 128,-1,18
 737 1519 737 1519 761 1515 c 1,19,-1
 737 1436 l 1,20,21
 719 1439 719 1439 699 1440 c 128,-1,22
 679 1441 679 1441 655 1441 c 0,23,24
 575 1441 575 1441 523 1397.5 c 128,-1,25
 471 1354 471 1354 456 1266 c 2,26,-1
 216 -183 l 2,27,28
 202 -266 202 -266 163.5 -323 c 128,-1,29
 125 -380 125 -380 64 -409.5 c 128,-1,30
 3 -439 3 -439 -77 -439 c 0,0,1
EndSplineSet
EndChar

StartChar: f
Encoding: 102 102 617
Width: 593
GlyphClass: 2
Flags: W
AnchorPoint: "Anchor-1" 541 1520 basechar 0
AnchorPoint: "Anchor-0" 168 0 basechar 0
LayerCount: 2
Fore
SplineSet
640 1087 m 1,0,-1
 628 1008 l 1,1,-1
 87 1008 l 1,2,-1
 100 1087 l 1,3,-1
 640 1087 l 1,0,-1
-109 -439 m 0,4,5
 -127 -439 -127 -439 -140.5 -438.5 c 128,-1,6
 -154 -438 -154 -438 -168 -435.5 c 128,-1,7
 -182 -433 -182 -433 -199 -431 c 1,8,-1
 -177 -348 l 1,9,10
 -157 -351 -157 -351 -140 -352.5 c 128,-1,11
 -123 -354 -123 -354 -103 -354 c 0,12,13
 -23 -354 -23 -354 28 -312 c 128,-1,14
 79 -270 79 -270 94 -183 c 2,15,-1
 334 1271 l 2,16,17
 348 1352 348 1352 388.5 1408 c 128,-1,18
 429 1464 429 1464 490.5 1494 c 128,-1,19
 552 1524 552 1524 630 1524 c 0,20,21
 656 1524 656 1524 680 1521.5 c 128,-1,22
 704 1519 704 1519 727 1515 c 1,23,-1
 704 1436 l 1,24,25
 686 1439 686 1439 666 1440 c 128,-1,26
 646 1441 646 1441 622 1441 c 0,27,28
 542 1441 542 1441 490 1397.5 c 128,-1,29
 438 1354 438 1354 423 1266 c 2,30,-1
 183 -183 l 2,31,32
 169 -266 169 -266 130 -323 c 128,-1,33
 91 -380 91 -380 30.5 -409.5 c 128,-1,34
 -30 -439 -30 -439 -109 -439 c 0,4,5
EndSplineSet
Substitution2: "'cv12' Character Variants 12 in Latin lookup 65 subtable" f.1
Substitution2: "'salt' Stylistic Alternatives in Latin lookup 46 subtable" f.1
Substitution2: "'sups' Superscript in Latin lookup 39 subtable" f.sups
Substitution2: "'subs' Subscript in Latin lookup 38 subtable" f.subs
Substitution2: "Single Substitution lookup 36 subtable" f.1
Substitution2: "Single Substitution lookup 35 subtable" f.i.1
Substitution2: "Single Substitution lookup 34 subtable" f.i
Substitution2: "'sinf' Scientific Inferiors in Latin lookup 18 subtable" f.subs
AlternateSubs2: "'aalt' Access All Alternates in Latin lookup 1 subtable" f.sups f.subs
EndChar

StartChar: f.1
Encoding: 60941 60941 618
Width: 537
GlyphClass: 2
Flags: W
AnchorPoint: "Anchor-1" 486 1520 basechar 0
AnchorPoint: "Anchor-0" 114 0 basechar 0
LayerCount: 2
Fore
SplineSet
586 1087 m 1,0,-1
 572 1008 l 1,1,-1
 276 1008 l 1,2,-1
 289 1087 l 1,3,-1
 586 1087 l 1,0,-1
-165 -439 m 0,4,5
 -182 -439 -182 -439 -195.5 -438.5 c 128,-1,6
 -209 -438 -209 -438 -223 -435.5 c 128,-1,7
 -237 -433 -237 -433 -254 -431 c 1,8,-1
 -232 -348 l 1,9,10
 -213 -351 -213 -351 -195.5 -352.5 c 128,-1,11
 -178 -354 -178 -354 -158 -354 c 0,12,13
 -77 -354 -77 -354 -26 -312 c 128,-1,14
 25 -270 25 -270 38 -183 c 2,15,-1
 279 1271 l 2,16,17
 293 1352 293 1352 333.5 1408 c 128,-1,18
 374 1464 374 1464 435.5 1494 c 128,-1,19
 497 1524 497 1524 576 1524 c 0,20,21
 602 1524 602 1524 625.5 1521.5 c 128,-1,22
 649 1519 649 1519 672 1515 c 1,23,-1
 650 1436 l 1,24,25
 631 1439 631 1439 611 1440 c 128,-1,26
 591 1441 591 1441 567 1441 c 0,27,28
 487 1441 487 1441 435 1397.5 c 128,-1,29
 383 1354 383 1354 368 1266 c 2,30,-1
 127 -183 l 2,31,32
 115 -266 115 -266 75.5 -323 c 128,-1,33
 36 -380 36 -380 -24.5 -409.5 c 128,-1,34
 -85 -439 -85 -439 -165 -439 c 0,4,5
EndSplineSet
EndChar

StartChar: f.i
Encoding: 60942 60942 619
Width: 514
GlyphClass: 2
Flags: W
AnchorPoint: "Anchor-1" 517 1520 basechar 0
AnchorPoint: "Anchor-0" 146 0 basechar 0
LayerCount: 2
Fore
SplineSet
-134 -439 m 0,0,1
 -151 -439 -151 -439 -165 -438.5 c 128,-1,2
 -179 -438 -179 -438 -192.5 -435.5 c 128,-1,3
 -206 -433 -206 -433 -222 -431 c 1,4,-1
 -201 -348 l 1,5,6
 -182 -351 -182 -351 -165 -352.5 c 128,-1,7
 -148 -354 -148 -354 -127 -354 c 0,8,9
 -47 -354 -47 -354 4 -312 c 128,-1,10
 55 -270 55 -270 69 -183 c 2,11,-1
 310 1271 l 2,12,13
 324 1352 324 1352 364 1408 c 128,-1,14
 404 1464 404 1464 466.5 1494 c 128,-1,15
 529 1524 529 1524 606 1524 c 0,16,17
 627 1524 627 1524 645.5 1523 c 128,-1,18
 664 1522 664 1522 681 1519 c 1,19,-1
 663 1437 l 1,20,21
 647 1440 647 1440 632 1440.5 c 128,-1,22
 617 1441 617 1441 598 1441 c 0,23,24
 518 1441 518 1441 465.5 1397.5 c 128,-1,25
 413 1354 413 1354 399 1266 c 2,26,-1
 159 -183 l 2,27,28
 145 -266 145 -266 106 -323 c 128,-1,29
 67 -380 67 -380 6.5 -409.5 c 128,-1,30
 -54 -439 -54 -439 -134 -439 c 0,0,1
105 1007 m 1,31,-1
 118 1087 l 1,32,-1
 673 1087 l 1,33,-1
 660 1007 l 1,34,-1
 105 1007 l 1,31,-1
EndSplineSet
Substitution2: "Single Substitution lookup 35 subtable" f.i.1
EndChar

StartChar: f.i.1
Encoding: 60943 60943 620
Width: 484
GlyphClass: 2
Flags: W
AnchorPoint: "Anchor-1" 486 1520 basechar 0
AnchorPoint: "Anchor-0" 114 0 basechar 0
LayerCount: 2
Fore
SplineSet
-165 -439 m 0,0,1
 -182 -439 -182 -439 -195.5 -438.5 c 128,-1,2
 -209 -438 -209 -438 -223 -435.5 c 128,-1,3
 -237 -433 -237 -433 -254 -431 c 1,4,-1
 -232 -348 l 1,5,6
 -213 -351 -213 -351 -195.5 -352.5 c 128,-1,7
 -178 -354 -178 -354 -158 -354 c 0,8,9
 -77 -354 -77 -354 -26 -312 c 128,-1,10
 25 -270 25 -270 38 -183 c 2,11,-1
 279 1271 l 2,12,13
 293 1352 293 1352 333.5 1408 c 128,-1,14
 374 1464 374 1464 435.5 1494 c 128,-1,15
 497 1524 497 1524 576 1524 c 0,16,17
 596 1524 596 1524 614 1523 c 128,-1,18
 632 1522 632 1522 650 1519 c 1,19,-1
 632 1437 l 1,20,21
 616 1440 616 1440 601 1440.5 c 128,-1,22
 586 1441 586 1441 567 1441 c 0,23,24
 487 1441 487 1441 435 1397.5 c 128,-1,25
 383 1354 383 1354 368 1266 c 2,26,-1
 127 -183 l 2,27,28
 115 -266 115 -266 75.5 -323 c 128,-1,29
 36 -380 36 -380 -25 -409.5 c 128,-1,30
 -86 -439 -86 -439 -165 -439 c 0,0,1
278 1007 m 1,31,-1
 292 1087 l 1,32,-1
 643 1087 l 1,33,-1
 628 1007 l 1,34,-1
 278 1007 l 1,31,-1
EndSplineSet
EndChar

StartChar: g
Encoding: 103 103 628
Width: 1172
GlyphClass: 2
Flags: W
AnchorPoint: "Anchor-1" 658 1087 basechar 0
AnchorPoint: "Anchor-0" 408 -435 basechar 0
LayerCount: 2
Fore
SplineSet
415 -435 m 0,0,1
 300 -435 300 -435 217.5 -403 c 128,-1,2
 135 -371 135 -371 87 -310 c 128,-1,3
 39 -249 39 -249 29 -163 c 1,4,-1
 114 -143 l 1,5,6
 124 -209 124 -209 160 -256 c 128,-1,7
 196 -303 196 -303 260 -328 c 128,-1,8
 324 -353 324 -353 416 -353 c 0,9,10
 587 -353 587 -353 697.5 -262.5 c 128,-1,11
 808 -172 808 -172 834 -8 c 2,12,-1
 876 248 l 1,13,-1
 871 248 l 1,14,15
 832 173 832 173 770.5 116 c 128,-1,16
 709 59 709 59 631.5 26.5 c 128,-1,17
 554 -6 554 -6 464 -6 c 0,18,19
 348 -6 348 -6 263 46 c 128,-1,20
 178 98 178 98 131 193 c 128,-1,21
 84 288 84 288 84 417 c 0,22,23
 84 543 84 543 123 664.5 c 128,-1,24
 162 786 162 786 234 885.5 c 128,-1,25
 306 985 306 985 408 1044 c 128,-1,26
 510 1103 510 1103 636 1103 c 0,27,28
 708 1103 708 1103 765 1083.5 c 128,-1,29
 822 1064 822 1064 864 1027.5 c 128,-1,30
 906 991 906 991 932.5 943 c 128,-1,31
 959 895 959 895 970 839 c 1,32,-1
 975 839 l 1,33,-1
 1016 1087 l 1,34,-1
 1104 1087 l 1,35,-1
 921 -16 l 2,36,37
 898 -155 898 -155 828.5 -248 c 128,-1,38
 759 -341 759 -341 653 -388 c 128,-1,39
 547 -435 547 -435 415 -435 c 0,0,1
474 78 m 0,40,41
 585 78 585 78 671.5 129.5 c 128,-1,42
 758 181 758 181 818 267 c 128,-1,43
 878 353 878 353 908.5 458.5 c 128,-1,44
 939 564 939 564 939 672 c 0,45,46
 939 832 939 832 862 926.5 c 128,-1,47
 785 1021 785 1021 643 1021 c 0,48,49
 535 1021 535 1021 449 969 c 128,-1,50
 363 917 363 917 301 830 c 128,-1,51
 239 743 239 743 206.5 636 c 128,-1,52
 174 529 174 529 174 421 c 0,53,54
 174 261 174 261 254 169.5 c 128,-1,55
 334 78 334 78 474 78 c 0,40,41
EndSplineSet
Substitution2: "'smcp' Lowercase to Small Capitals in Latin lookup 68 subtable" g.sc
Substitution2: "'sups' Superscript in Latin lookup 39 subtable" g.sups
Substitution2: "'subs' Subscript in Latin lookup 38 subtable" g.subs
Substitution2: "'sinf' Scientific Inferiors in Latin lookup 18 subtable" g.subs
AlternateSubs2: "'aalt' Access All Alternates in Latin lookup 1 subtable" g.sc g.sups g.subs
EndChar

StartChar: uni0260
Encoding: 608 608 629
Width: 1172
GlyphClass: 2
Flags: W
AnchorPoint: "Anchor-1" 658 1087 basechar 0
AnchorPoint: "Anchor-0" 408 -435 basechar 0
LayerCount: 2
Fore
SplineSet
978 868 m 1,0,-1
 1014 1088 l 1,1,-1
 1043 1257 l 2,2,3
 1061 1364 1061 1364 1125.5 1418 c 128,-1,4
 1190 1472 1190 1472 1298 1472 c 0,5,6
 1319 1472 1319 1472 1341 1472 c 128,-1,7
 1363 1472 1363 1472 1380 1471 c 1,8,-1
 1367 1390 l 1,9,10
 1349 1390 1349 1390 1327.5 1390.5 c 128,-1,11
 1306 1391 1306 1391 1293 1391 c 0,12,13
 1220 1391 1220 1391 1182.5 1360 c 128,-1,14
 1145 1329 1145 1329 1132 1257 c 2,15,-1
 1104 1087 l 1,16,-1
 1067 868 l 1,17,-1
 978 868 l 1,0,-1
415 -435 m 0,18,19
 300 -435 300 -435 217.5 -403 c 128,-1,20
 135 -371 135 -371 87 -310 c 128,-1,21
 39 -249 39 -249 29 -163 c 1,22,-1
 114 -143 l 1,23,24
 124 -209 124 -209 160 -256 c 128,-1,25
 196 -303 196 -303 260 -328 c 128,-1,26
 324 -353 324 -353 416 -353 c 0,27,28
 587 -353 587 -353 697.5 -262.5 c 128,-1,29
 808 -172 808 -172 834 -8 c 2,30,-1
 876 248 l 1,31,-1
 871 248 l 1,32,33
 832 173 832 173 770.5 116 c 128,-1,34
 709 59 709 59 631.5 26.5 c 128,-1,35
 554 -6 554 -6 464 -6 c 0,36,37
 348 -6 348 -6 263 46 c 128,-1,38
 178 98 178 98 131 193 c 128,-1,39
 84 288 84 288 84 417 c 0,40,41
 84 543 84 543 123 664.5 c 128,-1,42
 162 786 162 786 234 885.5 c 128,-1,43
 306 985 306 985 408 1044 c 128,-1,44
 510 1103 510 1103 636 1103 c 0,45,46
 708 1103 708 1103 765 1083.5 c 128,-1,47
 822 1064 822 1064 864 1027.5 c 128,-1,48
 906 991 906 991 932.5 943 c 128,-1,49
 959 895 959 895 970 839 c 1,50,-1
 975 839 l 1,51,-1
 1016 1087 l 1,52,-1
 1104 1087 l 1,53,-1
 921 -16 l 2,54,55
 898 -155 898 -155 828.5 -248 c 128,-1,56
 759 -341 759 -341 653 -388 c 128,-1,57
 547 -435 547 -435 415 -435 c 0,18,19
474 78 m 0,58,59
 585 78 585 78 671.5 129.5 c 128,-1,60
 758 181 758 181 818 267 c 128,-1,61
 878 353 878 353 908.5 458.5 c 128,-1,62
 939 564 939 564 939 672 c 0,63,64
 939 832 939 832 862 926.5 c 128,-1,65
 785 1021 785 1021 643 1021 c 0,66,67
 535 1021 535 1021 449 969 c 128,-1,68
 363 917 363 917 301 830 c 128,-1,69
 239 743 239 743 206.5 636 c 128,-1,70
 174 529 174 529 174 421 c 0,71,72
 174 261 174 261 254 169.5 c 128,-1,73
 334 78 334 78 474 78 c 0,58,59
EndSplineSet
Substitution2: "'smcp' Lowercase to Small Capitals in Latin lookup 68 subtable" uni0260.sc
Substitution2: "'c2sc' Capitals to Small Capitals in Latin lookup 67 subtable" uni0260.sc
Substitution2: "'aalt' Access All Alternates in Latin lookup 0 subtable" uni0260.sc
EndChar

StartChar: g.sc
Encoding: 610 610 638
Width: 1114
GlyphClass: 2
Flags: W
AnchorPoint: "Anchor-1" 657 1087 basechar 0
AnchorPoint: "Anchor-0" 478 0 basechar 0
LayerCount: 2
Fore
SplineSet
490 -15 m 0,0,1
 365 -15 365 -15 274 38.5 c 128,-1,2
 183 92 183 92 134 190 c 128,-1,3
 85 288 85 288 85 421 c 0,4,5
 85 548 85 548 125.5 669.5 c 128,-1,6
 166 791 166 791 241 889 c 128,-1,7
 316 987 316 987 422.5 1044.5 c 128,-1,8
 529 1102 529 1102 661 1102 c 0,9,10
 789 1102 789 1102 874.5 1050 c 128,-1,11
 960 998 960 998 1004.5 915.5 c 128,-1,12
 1049 833 1049 833 1049 743 c 1,13,-1
 958 743 l 1,14,15
 956 814 956 814 922 877 c 128,-1,16
 888 940 888 940 822.5 980 c 128,-1,17
 757 1020 757 1020 659 1020 c 0,18,19
 546 1020 546 1020 455.5 968 c 128,-1,20
 365 916 365 916 302 829.5 c 128,-1,21
 239 743 239 743 206 637 c 128,-1,22
 173 531 173 531 173 422 c 0,23,24
 173 259 173 259 258 163.5 c 128,-1,25
 343 68 343 68 494 68 c 0,26,27
 604 68 604 68 693 115.5 c 128,-1,28
 782 163 782 163 841.5 249.5 c 128,-1,29
 901 336 901 336 920 451 c 1,30,-1
 946 441 l 1,31,-1
 579 441 l 1,32,-1
 593 518 l 1,33,-1
 1019 518 l 1,34,-1
 1006 445 l 2,35,36
 984 307 984 307 912 203.5 c 128,-1,37
 840 100 840 100 732 42.5 c 128,-1,38
 624 -15 624 -15 490 -15 c 0,0,1
EndSplineSet
EndChar

StartChar: uni0260.sc
Encoding: 60947 60947 639
Width: 1178
GlyphClass: 2
Flags: W
AnchorPoint: "Anchor-1" 657 1087 basechar 0
AnchorPoint: "Anchor-0" 478 0 basechar 0
LayerCount: 2
Fore
SplineSet
977 743 m 1,0,-1
 989 987 l 2,1,2
 990 1059 990 1059 1016.5 1109.5 c 128,-1,3
 1043 1160 1043 1160 1093 1187 c 128,-1,4
 1143 1214 1143 1214 1211 1214 c 0,5,6
 1232 1214 1232 1214 1250 1213 c 128,-1,7
 1268 1212 1268 1212 1285 1211 c 1,8,-1
 1272 1132 l 1,9,10
 1254 1132 1254 1132 1236.5 1132.5 c 128,-1,11
 1219 1133 1219 1133 1205 1133 c 0,12,13
 1131 1133 1131 1133 1100.5 1094 c 128,-1,14
 1070 1055 1070 1055 1068 973 c 1,15,-1
 1049 743 l 1,16,-1
 977 743 l 1,0,-1
490 -15 m 0,17,18
 365 -15 365 -15 274 38.5 c 128,-1,19
 183 92 183 92 134 190 c 128,-1,20
 85 288 85 288 85 421 c 0,21,22
 85 548 85 548 125.5 669.5 c 128,-1,23
 166 791 166 791 241 889 c 128,-1,24
 316 987 316 987 422.5 1044.5 c 128,-1,25
 529 1102 529 1102 661 1102 c 0,26,27
 789 1102 789 1102 874.5 1050 c 128,-1,28
 960 998 960 998 1004.5 915.5 c 128,-1,29
 1049 833 1049 833 1049 743 c 1,30,-1
 958 743 l 1,31,32
 956 814 956 814 922 877 c 128,-1,33
 888 940 888 940 822.5 980 c 128,-1,34
 757 1020 757 1020 659 1020 c 0,35,36
 546 1020 546 1020 455.5 968 c 128,-1,37
 365 916 365 916 302 829.5 c 128,-1,38
 239 743 239 743 206 637 c 128,-1,39
 173 531 173 531 173 422 c 0,40,41
 173 259 173 259 258 163.5 c 128,-1,42
 343 68 343 68 494 68 c 0,43,44
 604 68 604 68 693 115.5 c 128,-1,45
 782 163 782 163 841.5 249.5 c 128,-1,46
 901 336 901 336 920 451 c 1,47,-1
 946 441 l 1,48,-1
 579 441 l 1,49,-1
 593 518 l 1,50,-1
 1019 518 l 1,51,-1
 1006 445 l 2,52,53
 984 307 984 307 912 203.5 c 128,-1,54
 840 100 840 100 732 42.5 c 128,-1,55
 624 -15 624 -15 490 -15 c 0,17,18
EndSplineSet
EndChar

StartChar: h
Encoding: 104 104 640
Width: 1144
GlyphClass: 2
Flags: W
AnchorPoint: "Anchor-3" 114 0 basechar 0
AnchorPoint: "Anchor-1" 360 1490 basechar 0
AnchorPoint: "Anchor-0" 482 0 basechar 0
LayerCount: 2
Fore
SplineSet
273 694 m 2,0,-1
 157 0 l 1,1,-1
 68 0 l 1,2,-1
 315 1490 l 1,3,-1
 404 1490 l 1,4,-1
 296 840 l 1,5,-1
 275 840 l 1,6,7
 317 931 317 931 380.5 988.5 c 128,-1,8
 444 1046 444 1046 521 1074.5 c 128,-1,9
 598 1103 598 1103 682 1103 c 0,10,11
 796 1103 796 1103 877 1055.5 c 128,-1,12
 958 1008 958 1008 995.5 920 c 128,-1,13
 1033 832 1033 832 1012 707 c 2,14,-1
 896 0 l 1,15,-1
 806 0 l 1,16,-1
 923 703 l 2,17,18
 947 849 947 849 875 934.5 c 128,-1,19
 803 1020 803 1020 662 1020 c 0,20,21
 566 1020 566 1020 483.5 980 c 128,-1,22
 401 940 401 940 345 866.5 c 128,-1,23
 289 793 289 793 273 694 c 2,0,-1
EndSplineSet
Substitution2: "'smcp' Lowercase to Small Capitals in Latin lookup 68 subtable" h.sc
Substitution2: "'sups' Superscript in Latin lookup 39 subtable" h.sups
Substitution2: "'subs' Subscript in Latin lookup 38 subtable" h.subs
Substitution2: "'sinf' Scientific Inferiors in Latin lookup 18 subtable" h.subs
AlternateSubs2: "'aalt' Access All Alternates in Latin lookup 1 subtable" h.sups h.subs h.sc
EndChar

StartChar: uni0452
Encoding: 1106 1106 643
Width: 1144
GlyphClass: 2
Flags: W
AnchorPoint: "Anchor-3" 114 0 basechar 0
AnchorPoint: "Anchor-1" 360 1490 basechar 0
AnchorPoint: "Anchor-0" 482 0 basechar 0
LayerCount: 2
Fore
SplineSet
608 -419 m 0,0,1
 589 -419 589 -419 566.5 -419 c 128,-1,2
 544 -419 544 -419 526 -418 c 1,3,-1
 539 -338 l 1,4,5
 557 -338 557 -338 578.5 -338 c 128,-1,6
 600 -338 600 -338 614 -338 c 0,7,8
 686 -338 686 -338 724 -306.5 c 128,-1,9
 762 -275 762 -275 773 -203 c 2,10,-1
 806 0 l 1,11,-1
 896 0 l 1,12,-1
 862 -203 l 2,13,14
 843 -313 843 -313 779 -366 c 128,-1,15
 715 -419 715 -419 608 -419 c 0,0,1
273 694 m 2,16,-1
 157 0 l 1,17,-1
 68 0 l 1,18,-1
 315 1490 l 1,19,-1
 404 1490 l 1,20,-1
 296 840 l 1,21,-1
 275 840 l 1,22,23
 317 931 317 931 380.5 988.5 c 128,-1,24
 444 1046 444 1046 521 1074.5 c 128,-1,25
 598 1103 598 1103 682 1103 c 0,26,27
 796 1103 796 1103 877 1055.5 c 128,-1,28
 958 1008 958 1008 995.5 920 c 128,-1,29
 1033 832 1033 832 1012 707 c 2,30,-1
 896 0 l 1,31,-1
 806 0 l 1,32,-1
 923 703 l 2,33,34
 947 849 947 849 875 934.5 c 128,-1,35
 803 1020 803 1020 662 1020 c 0,36,37
 566 1020 566 1020 483.5 980 c 128,-1,38
 401 940 401 940 345 866.5 c 128,-1,39
 289 793 289 793 273 694 c 2,16,-1
72 1244 m 1,40,-1
 84 1322 l 1,41,-1
 668 1322 l 1,42,-1
 655 1244 l 1,43,-1
 72 1244 l 1,40,-1
EndSplineSet
EndChar

StartChar: uni0266
Encoding: 614 614 644
Width: 1144
GlyphClass: 2
Flags: W
AnchorPoint: "Anchor-1" 664 1087 basechar 0
AnchorPoint: "Anchor-0" 482 0 basechar 0
LayerCount: 2
Fore
SplineSet
212 868 m 1,0,-1
 249 1088 l 1,1,-1
 276 1257 l 2,2,3
 294 1364 294 1364 359 1418 c 128,-1,4
 424 1472 424 1472 533 1472 c 0,5,6
 553 1472 553 1472 575 1472 c 128,-1,7
 597 1472 597 1472 615 1471 c 1,8,-1
 601 1390 l 1,9,10
 583 1390 583 1390 561 1390.5 c 128,-1,11
 539 1391 539 1391 526 1391 c 0,12,13
 454 1391 454 1391 415.5 1360 c 128,-1,14
 377 1329 377 1329 366 1257 c 2,15,-1
 337 1087 l 1,16,-1
 301 868 l 1,17,-1
 212 868 l 1,0,-1
272 691 m 2,18,-1
 158 0 l 1,19,-1
 69 0 l 1,20,-1
 248 1087 l 1,21,-1
 336 1087 l 1,22,-1
 295 840 l 1,23,-1
 274 842 l 1,24,25
 338 976 338 976 449 1039.5 c 128,-1,26
 560 1103 560 1103 686 1103 c 0,27,28
 801 1103 801 1103 881 1055 c 128,-1,29
 961 1007 961 1007 997 918 c 128,-1,30
 1033 829 1033 829 1013 704 c 2,31,-1
 896 0 l 1,32,-1
 807 0 l 1,33,-1
 923 706 l 2,34,35
 948 852 948 852 878.5 936 c 128,-1,36
 809 1020 809 1020 670 1020 c 0,37,38
 573 1020 573 1020 488.5 979.5 c 128,-1,39
 404 939 404 939 346.5 865 c 128,-1,40
 289 791 289 791 272 691 c 2,18,-1
EndSplineSet
EndChar

StartChar: uni0267
Encoding: 615 615 645
Width: 1144
GlyphClass: 2
Flags: W
AnchorPoint: "Anchor-1" 664 1087 basechar 0
AnchorPoint: "Anchor-0" 482 0 basechar 0
LayerCount: 2
Fore
SplineSet
608 -419 m 0,0,1
 589 -419 589 -419 566.5 -419 c 128,-1,2
 544 -419 544 -419 526 -418 c 1,3,-1
 539 -338 l 1,4,5
 557 -338 557 -338 578.5 -338 c 128,-1,6
 600 -338 600 -338 614 -338 c 0,7,8
 687 -338 687 -338 724.5 -306.5 c 128,-1,9
 762 -275 762 -275 773 -203 c 2,10,-1
 807 0 l 1,11,-1
 896 0 l 1,12,-1
 862 -203 l 2,13,14
 844 -313 844 -313 780 -366 c 128,-1,15
 716 -419 716 -419 608 -419 c 0,0,1
272 691 m 2,16,-1
 158 0 l 1,17,-1
 69 0 l 1,18,-1
 248 1087 l 1,19,-1
 336 1087 l 1,20,-1
 295 840 l 1,21,-1
 274 842 l 1,22,23
 338 976 338 976 449 1039.5 c 128,-1,24
 560 1103 560 1103 686 1103 c 0,25,26
 801 1103 801 1103 881 1055 c 128,-1,27
 961 1007 961 1007 997 918 c 128,-1,28
 1033 829 1033 829 1013 704 c 2,29,-1
 896 0 l 1,30,-1
 807 0 l 1,31,-1
 923 706 l 2,32,33
 948 852 948 852 878.5 936 c 128,-1,34
 809 1020 809 1020 670 1020 c 0,35,36
 573 1020 573 1020 488.5 979.5 c 128,-1,37
 404 939 404 939 346.5 865 c 128,-1,38
 289 791 289 791 272 691 c 2,16,-1
212 868 m 1,39,-1
 249 1088 l 1,40,-1
 276 1257 l 2,41,42
 294 1364 294 1364 359 1418 c 128,-1,43
 424 1472 424 1472 533 1472 c 0,44,45
 553 1472 553 1472 575 1472 c 128,-1,46
 597 1472 597 1472 615 1471 c 1,47,-1
 601 1390 l 1,48,49
 583 1390 583 1390 561 1390.5 c 128,-1,50
 539 1391 539 1391 526 1391 c 0,51,52
 454 1391 454 1391 415.5 1360 c 128,-1,53
 377 1329 377 1329 366 1257 c 2,54,-1
 337 1087 l 1,55,-1
 301 868 l 1,56,-1
 212 868 l 1,39,-1
EndSplineSet
EndChar

StartChar: uni0195
Encoding: 405 405 646
Width: 1849
Flags: W
LayerCount: 2
Fore
SplineSet
68 0 m 1,0,-1
 315 1490 l 1,1,-1
 404 1490 l 1,2,-1
 313 940 l 1,3,-1
 323 940 l 1,4,5
 377 1029 377 1029 472 1080.5 c 128,-1,6
 567 1132 567 1132 687 1132 c 0,7,8
 801 1132 801 1132 878.5 1085 c 128,-1,9
 956 1038 956 1038 990 949.5 c 128,-1,10
 1024 861 1024 861 1003 737 c 2,11,-1
 967 515 l 1,12,-1
 877 515 l 1,13,-1
 913 733 l 2,14,15
 936 876 936 876 865.5 962.5 c 128,-1,16
 795 1049 795 1049 655 1049 c 0,17,18
 563 1049 563 1049 483 1008.5 c 128,-1,19
 403 968 403 968 348.5 895 c 128,-1,20
 294 822 294 822 278 724 c 2,21,-1
 158 0 l 1,22,-1
 68 0 l 1,0,-1
1119 -19 m 0,23,24
 1015 -19 1015 -19 949 30.5 c 128,-1,25
 883 80 883 80 860.5 182 c 128,-1,26
 838 284 838 284 864 441 c 2,27,-1
 891 601 l 1,28,-1
 981 601 l 1,29,-1
 954 441 l 2,30,31
 931 302 931 302 947 219 c 128,-1,32
 963 136 963 136 1012.5 100 c 128,-1,33
 1062 64 1062 64 1135 63 c 0,34,35
 1259 64 1259 64 1361.5 165 c 128,-1,36
 1464 266 1464 266 1544 476 c 128,-1,37
 1624 686 1624 686 1678 1010 c 2,38,-1
 1695 1118 l 1,39,-1
 1786 1118 l 1,40,-1
 1767 1000 l 2,41,42
 1709 653 1709 653 1615.5 427 c 128,-1,43
 1522 201 1522 201 1396.5 91 c 128,-1,44
 1271 -19 1271 -19 1119 -19 c 0,23,24
EndSplineSet
EndChar

StartChar: hturn
Encoding: 613 613 647
Width: 1144
GlyphClass: 2
Flags: W
AnchorPoint: "Anchor-3" 1031 1087 basechar 0
AnchorPoint: "Anchor-1" 669 1087 basechar 0
AnchorPoint: "Anchor-0" 663 1087 basechar 0
LayerCount: 2
Fore
SplineSet
872 393 m 2,0,-1
 987 1087 l 1,1,-1
 1076 1087 l 1,2,-1
 829 -403 l 1,3,-1
 740 -403 l 1,4,-1
 848 249 l 1,5,-1
 870 249 l 1,6,7
 828 158 828 158 764.5 99.5 c 128,-1,8
 701 41 701 41 623.5 12.5 c 128,-1,9
 546 -16 546 -16 463 -16 c 0,10,11
 349 -16 349 -16 267.5 31.5 c 128,-1,12
 186 79 186 79 148.5 168.5 c 128,-1,13
 111 258 111 258 132 380 c 2,14,-1
 249 1087 l 1,15,-1
 338 1087 l 1,16,-1
 222 385 l 2,17,18
 198 239 198 239 270 153 c 128,-1,19
 342 67 342 67 482 67 c 0,20,21
 578 67 578 67 660.5 107 c 128,-1,22
 743 147 743 147 799.5 220.5 c 128,-1,23
 856 294 856 294 872 393 c 2,0,-1
EndSplineSet
EndChar

StartChar: hturnlthook
Encoding: 686 686 648
Width: 1209
Flags: W
LayerCount: 2
Fore
SplineSet
802 -418 m 1,0,-1
 913 249 l 1,1,-1
 935 249 l 1,2,3
 871 113 871 113 759.5 48.5 c 128,-1,4
 648 -16 648 -16 522 -16 c 0,5,6
 409 -16 409 -16 328.5 32 c 128,-1,7
 248 80 248 80 212 168.5 c 128,-1,8
 176 257 176 257 196 380 c 2,9,-1
 275 854 l 2,10,11
 289 944 289 944 260.5 978 c 128,-1,12
 232 1012 232 1012 154 1012 c 0,13,14
 143 1012 143 1012 132 1011.5 c 128,-1,15
 121 1011 121 1011 109.5 1010.5 c 128,-1,16
 98 1010 98 1010 86 1010 c 1,17,-1
 101 1089 l 1,18,19
 119 1092 119 1092 139 1092 c 128,-1,20
 159 1092 159 1092 180 1092 c 0,21,22
 234 1092 234 1092 273 1078 c 128,-1,23
 312 1064 312 1064 336 1035.5 c 128,-1,24
 360 1007 360 1007 367 961.5 c 128,-1,25
 374 916 374 916 364 855 c 2,26,-1
 286 385 l 2,27,28
 262 240 262 240 332.5 153.5 c 128,-1,29
 403 67 403 67 544 67 c 0,30,31
 639 67 639 67 722.5 107 c 128,-1,32
 806 147 806 147 863 220.5 c 128,-1,33
 920 294 920 294 937 393 c 2,34,-1
 1051 1087 l 1,35,-1
 1140 1087 l 1,36,-1
 891 -418 l 1,37,-1
 802 -418 l 1,0,-1
EndSplineSet
EndChar

StartChar: hturnhook2
Encoding: 687 687 649
Width: 1209
Flags: W
LayerCount: 2
Fore
SplineSet
1020 -419 m 0,0,1
 913 -419 913 -419 867 -365.5 c 128,-1,2
 821 -312 821 -312 838 -203 c 2,3,-1
 913 249 l 1,4,-1
 934 249 l 1,5,6
 871 113 871 113 758.5 48.5 c 128,-1,7
 646 -16 646 -16 518 -16 c 0,8,9
 406 -16 406 -16 326 32 c 128,-1,10
 246 80 246 80 211 168.5 c 128,-1,11
 176 257 176 257 196 380 c 2,12,-1
 275 854 l 2,13,14
 289 944 289 944 260.5 978 c 128,-1,15
 232 1012 232 1012 154 1012 c 0,16,17
 143 1012 143 1012 132 1011.5 c 128,-1,18
 121 1011 121 1011 109.5 1010.5 c 128,-1,19
 98 1010 98 1010 86 1010 c 1,20,-1
 101 1089 l 1,21,22
 119 1092 119 1092 139 1092 c 128,-1,23
 159 1092 159 1092 180 1092 c 0,24,25
 234 1092 234 1092 273 1078 c 128,-1,26
 312 1064 312 1064 336 1035.5 c 128,-1,27
 360 1007 360 1007 367 961.5 c 128,-1,28
 374 916 374 916 364 855 c 2,29,-1
 286 385 l 2,30,31
 262 240 262 240 331 153.5 c 128,-1,32
 400 67 400 67 541 67 c 0,33,34
 637 67 637 67 721 107 c 128,-1,35
 805 147 805 147 862.5 220.5 c 128,-1,36
 920 294 920 294 937 393 c 2,37,-1
 1051 1087 l 1,38,-1
 1140 1087 l 1,39,-1
 927 -203 l 2,40,41
 915 -275 915 -275 941.5 -306.5 c 128,-1,42
 968 -338 968 -338 1041 -338 c 0,43,44
 1054 -338 1054 -338 1076 -338 c 128,-1,45
 1098 -338 1098 -338 1116 -338 c 1,46,-1
 1103 -418 l 1,47,48
 1092 -418 1092 -418 1077.5 -418 c 128,-1,49
 1063 -418 1063 -418 1048.5 -418.5 c 128,-1,50
 1034 -419 1034 -419 1020 -419 c 0,0,1
EndSplineSet
EndChar

StartChar: dotlessi
Encoding: 305 305 660
Width: 406
GlyphClass: 2
Flags: W
AnchorPoint: "Anchor-4" 158 0 basechar 0
AnchorPoint: "Anchor-1" 294 1087 basechar 0
AnchorPoint: "Anchor-0" 114 0 basechar 0
LayerCount: 2
Fore
SplineSet
69 0 m 1,0,-1
 248 1087 l 1,1,-1
 338 1087 l 1,2,-1
 158 0 l 1,3,-1
 69 0 l 1,0,-1
EndSplineSet
EndChar

StartChar: uni0237
Encoding: 567 567 682
Width: 410
GlyphClass: 2
Flags: W
AnchorPoint: "Anchor-1" 297 1087 basechar 0
AnchorPoint: "Anchor-0" 5 -447 basechar 0
LayerCount: 2
Fore
SplineSet
253 1087 m 1,0,-1
 342 1087 l 1,1,-1
 137 -146 l 2,2,3
 124 -229 124 -229 78.5 -290 c 128,-1,4
 33 -351 33 -351 -33.5 -384.5 c 128,-1,5
 -100 -418 -100 -418 -179 -418 c 2,6,-1
 -209 -418 l 1,7,-1
 -196 -335 l 1,8,-1
 -169 -335 l 2,9,10
 -90 -335 -90 -335 -28 -284.5 c 128,-1,11
 34 -234 34 -234 49 -142 c 2,12,-1
 253 1087 l 1,0,-1
EndSplineSet
EndChar

StartChar: i.sc
Encoding: 60950 60950 689
Width: 535
GlyphClass: 2
Flags: W
AnchorPoint: "Anchor-4" 378 0 basechar 0
AnchorPoint: "Anchor-1" 357 1087 basechar 0
AnchorPoint: "Anchor-0" 177 0 basechar 0
LayerCount: 2
Fore
SplineSet
-23 0 m 1,0,-1
 -10 80 l 1,1,-1
 146 80 l 1,2,-1
 299 1008 l 1,3,-1
 144 1008 l 1,4,-1
 157 1087 l 1,5,-1
 558 1087 l 1,6,-1
 544 1008 l 1,7,-1
 389 1008 l 1,8,-1
 235 80 l 1,9,-1
 391 80 l 1,10,-1
 378 0 l 1,11,-1
 -23 0 l 1,0,-1
EndSplineSet
EndChar

StartChar: jcrosstail.ccmp
Encoding: 57423 57423 691
Width: 486
GlyphClass: 2
Flags: W
AnchorPoint: "Anchor-4" 291 0 basechar 0
AnchorPoint: "Anchor-1" 427 1087 basechar 0
AnchorPoint: "Anchor-0" 135 -460 basechar 0
LayerCount: 2
Fore
SplineSet
-26 -418 m 0,0,1
 -93 -418 -93 -418 -143.5 -386 c 128,-1,2
 -194 -354 -194 -354 -218.5 -299.5 c 128,-1,3
 -243 -245 -243 -245 -232 -179 c 0,4,5
 -220 -109 -220 -109 -175 -54.5 c 128,-1,6
 -130 0 -130 0 -63.5 31 c 128,-1,7
 3 62 3 62 78 61 c 2,8,-1
 465 61 l 1,9,-1
 451 -25 l 1,10,-1
 65 -23 l 2,11,12
 -12 -23 -12 -23 -71 -69 c 128,-1,13
 -130 -115 -130 -115 -140 -181 c 0,14,15
 -151 -246 -151 -246 -112 -290.5 c 128,-1,16
 -73 -335 -73 -335 -12 -335 c 0,17,18
 67 -335 67 -335 117.5 -279 c 128,-1,19
 168 -223 168 -223 180 -151 c 2,20,-1
 217 74 l 1,21,-1
 306 74 l 1,22,-1
 269 -145 l 2,23,24
 260 -201 260 -201 235 -250.5 c 128,-1,25
 210 -300 210 -300 172 -338 c 128,-1,26
 134 -376 134 -376 84 -397 c 128,-1,27
 34 -418 34 -418 -26 -418 c 0,0,1
202 0 m 1,28,-1
 382 1087 l 1,29,-1
 471 1087 l 1,30,-1
 291 0 l 1,31,-1
 202 0 l 1,28,-1
EndSplineSet
EndChar

StartChar: k
Encoding: 107 107 698
Width: 976
GlyphClass: 2
Flags: W
AnchorPoint: "Anchor-1" 360 1490 basechar 0
AnchorPoint: "Anchor-0" 436 0 basechar 0
LayerCount: 2
Fore
SplineSet
216 430 m 1,0,-1
 237 555 l 1,1,-1
 257 555 l 1,2,-1
 882 1087 l 1,3,-1
 1000 1087 l 1,4,-1
 429 602 l 1,5,-1
 419 598 l 1,6,-1
 216 430 l 1,0,-1
68 0 m 1,7,-1
 315 1490 l 1,8,-1
 404 1490 l 1,9,-1
 157 0 l 1,10,-1
 68 0 l 1,7,-1
742 0 m 1,11,-1
 369 589 l 1,12,-1
 445 648 l 1,13,-1
 857 0 l 1,14,-1
 742 0 l 1,11,-1
EndSplineSet
Substitution2: "'sups' Superscript in Latin lookup 39 subtable" k.sups
Substitution2: "'subs' Subscript in Latin lookup 38 subtable" k.subs
Substitution2: "'sinf' Scientific Inferiors in Latin lookup 18 subtable" k.subs
AlternateSubs2: "'aalt' Access All Alternates in Latin lookup 1 subtable" k.sups k.subs
EndChar

StartChar: uni0199
Encoding: 409 409 699
Width: 977
GlyphClass: 2
Flags: W
AnchorPoint: "Anchor-1" 294 1087 basechar 0
AnchorPoint: "Anchor-0" 436 0 basechar 0
LayerCount: 2
Fore
SplineSet
213 868 m 1,0,-1
 249 1088 l 1,1,-1
 277 1257 l 2,2,3
 295 1364 295 1364 359.5 1418 c 128,-1,4
 424 1472 424 1472 533 1472 c 0,5,6
 554 1472 554 1472 576 1472 c 128,-1,7
 598 1472 598 1472 615 1471 c 1,8,-1
 601 1390 l 1,9,10
 583 1390 583 1390 561.5 1390.5 c 128,-1,11
 540 1391 540 1391 527 1391 c 0,12,13
 455 1391 455 1391 416.5 1360 c 128,-1,14
 378 1329 378 1329 366 1257 c 2,15,-1
 338 1087 l 1,16,-1
 302 868 l 1,17,-1
 213 868 l 1,0,-1
217 430 m 1,18,-1
 238 555 l 1,19,-1
 258 555 l 1,20,-1
 883 1087 l 1,21,-1
 1000 1087 l 1,22,-1
 430 602 l 1,23,-1
 420 598 l 1,24,-1
 217 430 l 1,18,-1
69 0 m 1,25,-1
 249 1087 l 1,26,-1
 338 1087 l 1,27,-1
 158 0 l 1,28,-1
 69 0 l 1,25,-1
743 0 m 1,29,-1
 370 589 l 1,30,-1
 445 648 l 1,31,-1
 857 0 l 1,32,-1
 743 0 l 1,29,-1
EndSplineSet
EndChar

StartChar: kturn
Encoding: 670 670 705
Width: 976
GlyphClass: 2
Flags: W
AnchorPoint: "Anchor-1" 569 1087 basechar 0
AnchorPoint: "Anchor-0" 542 1087 basechar 0
LayerCount: 2
Fore
SplineSet
760 657 m 1,0,-1
 739 532 l 1,1,-1
 719 532 l 1,2,-1
 95 0 l 1,3,-1
 -23 0 l 1,4,-1
 547 487 l 1,5,-1
 557 491 l 1,6,-1
 760 657 l 1,0,-1
908 1087 m 1,7,-1
 661 -403 l 1,8,-1
 572 -403 l 1,9,-1
 819 1087 l 1,10,-1
 908 1087 l 1,7,-1
234 1087 m 1,11,-1
 607 500 l 1,12,-1
 533 439 l 1,13,-1
 121 1087 l 1,14,-1
 234 1087 l 1,11,-1
EndSplineSet
EndChar

StartChar: k.base
Encoding: 60951 60951 706
Width: 977
GlyphClass: 2
Flags: W
AnchorPoint: "Anchor-1" 293 1087 basechar 0
AnchorPoint: "Anchor-0" 436 0 basechar 0
LayerCount: 2
Fore
SplineSet
217 430 m 1,0,-1
 238 555 l 1,1,-1
 258 555 l 1,2,-1
 882 1087 l 1,3,-1
 1001 1087 l 1,4,-1
 430 602 l 1,5,-1
 420 598 l 1,6,-1
 217 430 l 1,0,-1
69 0 m 1,7,-1
 249 1087 l 1,8,-1
 338 1087 l 1,9,-1
 158 0 l 1,10,-1
 69 0 l 1,7,-1
743 0 m 1,11,-1
 370 589 l 1,12,-1
 445 648 l 1,13,-1
 857 0 l 1,14,-1
 743 0 l 1,11,-1
EndSplineSet
EndChar

StartChar: l
Encoding: 1114124 -1 707
Width: 406
GlyphClass: 2
Flags: W
AnchorPoint: "Anchor-1" 360 1490 basechar 0
AnchorPoint: "Anchor-0" 114 0 basechar 0
LayerCount: 2
Fore
SplineSet
404 1490 m 1,0,-1
 157 0 l 1,1,-1
 68 0 l 1,2,-1
 315 1490 l 1,3,-1
 404 1490 l 1,0,-1
EndSplineSet
Substitution2: "'smcp' Lowercase to Small Capitals in Latin lookup 68 subtable" l.sc
Substitution2: "'c2sc' Capitals to Small Capitals in Latin lookup 67 subtable" l.sc
Substitution2: "'cv05' Character Variants 05 in Latin lookup 59 subtable" l.ss02
Substitution2: "'ss04' Style Set 4 in Latin lookup 50 subtable" l.ss02
Substitution2: "'ss02' Style Set 2 in Latin lookup 48 subtable" l.ss02
Substitution2: "'salt' Stylistic Alternatives in Latin lookup 46 subtable" l.ss02
Substitution2: "'sups' Superscript in Latin lookup 39 subtable" l.sups
Substitution2: "'subs' Subscript in Latin lookup 38 subtable" l.subs
Substitution2: "'sinf' Scientific Inferiors in Latin lookup 18 subtable" l.subs
AlternateSubs2: "'aalt' Access All Alternates in Latin lookup 1 subtable" l.sc l.sups l.subs
EndChar

StartChar: lrthook
Encoding: 621 621 711
Width: 406
GlyphClass: 2
Flags: W
AnchorPoint: "Anchor-1" 360 1490 basechar 0
AnchorPoint: "Anchor-0" 114 0 basechar 0
LayerCount: 2
Fore
SplineSet
218 -419 m 0,0,1
 110 -419 110 -419 63 -366 c 128,-1,2
 16 -313 16 -313 35 -203 c 2,3,-1
 69 0 l 1,4,-1
 157 0 l 1,5,-1
 124 -203 l 2,6,7
 113 -275 113 -275 139.5 -306.5 c 128,-1,8
 166 -338 166 -338 238 -338 c 0,9,10
 252 -338 252 -338 273.5 -338 c 128,-1,11
 295 -338 295 -338 313 -338 c 1,12,-1
 299 -418 l 1,13,14
 283 -419 283 -419 260 -419 c 128,-1,15
 237 -419 237 -419 218 -419 c 0,0,1
404 1490 m 1,16,-1
 157 0 l 1,17,-1
 68 0 l 1,18,-1
 315 1490 l 1,19,-1
 404 1490 l 1,16,-1
EndSplineSet
EndChar

StartChar: uni026C
Encoding: 1114128 -1 712
Width: 692
Flags: W
LayerCount: 2
Fore
SplineSet
677 651 m 1,0,-1
 290 650 l 2,1,2
 215 650 215 650 158.5 681.5 c 128,-1,3
 102 713 102 713 74 767.5 c 128,-1,4
 46 822 46 822 57 892 c 0,5,6
 68 959 68 959 109.5 1013 c 128,-1,7
 151 1067 151 1067 212.5 1099 c 128,-1,8
 274 1131 274 1131 343 1131 c 0,9,10
 403 1131 403 1131 446.5 1111 c 128,-1,11
 490 1091 490 1091 517 1055.5 c 128,-1,12
 544 1020 544 1020 552.5 972 c 128,-1,13
 561 924 561 924 552 867 c 2,14,-1
 505 583 l 1,15,-1
 415 584 l 1,16,-1
 463 874 l 2,17,18
 475 947 475 947 444 998 c 128,-1,19
 413 1049 413 1049 330 1049 c 0,20,21
 290 1049 290 1049 251 1027.5 c 128,-1,22
 212 1006 212 1006 184.5 970.5 c 128,-1,23
 157 935 157 935 150 891 c 0,24,25
 139 828 139 828 182.5 781.5 c 128,-1,26
 226 735 226 735 303 735 c 2,27,-1
 689 735 l 1,28,-1
 677 651 l 1,0,-1
655 1490 m 1,29,-1
 408 0 l 1,30,-1
 318 0 l 1,31,-1
 564 1490 l 1,32,-1
 655 1490 l 1,29,-1
EndSplineSet
Substitution2: "'cv05' Character Variants 05 in Latin lookup 59 subtable" uni026C.ss02
Substitution2: "'ss04' Style Set 4 in Latin lookup 50 subtable" uni026C.ss02
Substitution2: "'ss02' Style Set 2 in Latin lookup 48 subtable" uni026C.ss02
Substitution2: "'salt' Stylistic Alternatives in Latin lookup 46 subtable" uni026C.ss02
EndChar

StartChar: uni0234
Encoding: 564 564 713
Width: 726
GlyphClass: 2
Flags: W
AnchorPoint: "Anchor-1" 360 1490 basechar 0
AnchorPoint: "Anchor-0" 114 0 basechar 0
LayerCount: 2
Fore
SplineSet
276 -413 m 0,0,1
 188 -413 188 -413 133 -376.5 c 128,-1,2
 78 -340 78 -340 55 -278 c 128,-1,3
 32 -216 32 -216 45 -141 c 2,4,-1
 89 121 l 1,5,-1
 177 121 l 1,6,-1
 133 -147 l 2,7,8
 118 -234 118 -234 164 -282.5 c 128,-1,9
 210 -331 210 -331 289 -331 c 0,10,11
 365 -331 365 -331 422 -287.5 c 128,-1,12
 479 -244 479 -244 492 -174 c 0,13,14
 503 -104 503 -104 461 -60.5 c 128,-1,15
 419 -17 419 -17 345 -15 c 0,16,17
 297 -13 297 -13 248 -34 c 128,-1,18
 199 -55 199 -55 145.5 -103 c 128,-1,19
 92 -151 92 -151 26 -231 c 1,20,-1
 -134 -392 l 1,21,-1
 -190 -336 l 1,22,-1
 -44 -189 l 1,23,24
 75 -51 75 -51 170 7.5 c 128,-1,25
 265 66 265 66 356 66 c 0,26,27
 470 66 470 66 535 0 c 128,-1,28
 600 -66 600 -66 582 -173 c 0,29,30
 565 -281 565 -281 479 -347 c 128,-1,31
 393 -413 393 -413 276 -413 c 0,0,1
404 1490 m 1,32,-1
 157 0 l 1,33,-1
 68 0 l 1,34,-1
 315 1490 l 1,35,-1
 404 1490 l 1,32,-1
EndSplineSet
EndChar

StartChar: l.ss02
Encoding: 57424 57424 722
AltUni2: 00006c.ffffffff.0
Width: 450
GlyphClass: 2
Flags: W
AnchorPoint: "Anchor-1" 360 1490 basechar 0
AnchorPoint: "Anchor-0" 183 0 basechar 0
LayerCount: 2
Fore
SplineSet
290 -2 m 0,0,1
 180 -9 180 -9 131.5 40 c 128,-1,2
 83 89 83 89 102 198 c 2,3,-1
 316 1490 l 1,4,-1
 405 1490 l 1,5,-1
 192 209 l 2,6,7
 179 129 179 129 207.5 102 c 128,-1,8
 236 75 236 75 307 81 c 0,9,10
 317 81 317 81 323 81.5 c 128,-1,11
 329 82 329 82 335 83 c 1,12,-1
 332 3 l 1,13,14
 323 1 323 1 312 0 c 128,-1,15
 301 -1 301 -1 290 -2 c 0,0,1
EndSplineSet
EndChar

StartChar: uni026C.ss02
Encoding: 57428 57428 726
AltUni2: 00026c.ffffffff.0
Width: 720
GlyphClass: 2
Flags: W
AnchorPoint: "Anchor-1" 620 1490 basechar 0
AnchorPoint: "Anchor-0" 443 0 basechar 0
LayerCount: 2
Fore
SplineSet
306 651 m 2,0,1
 175 651 175 651 112 719 c 128,-1,2
 49 787 49 787 67 893 c 0,3,4
 79 962 79 962 118 1015.5 c 128,-1,5
 157 1069 157 1069 215 1100 c 128,-1,6
 273 1131 273 1131 340 1131 c 0,7,8
 411 1131 411 1131 453.5 1097.5 c 128,-1,9
 496 1064 496 1064 510.5 1007 c 128,-1,10
 525 950 525 950 513 877 c 2,11,-1
 501 803 l 1,12,-1
 461 803 l 1,13,-1
 474 882 l 2,14,15
 486 953 486 953 450 1001 c 128,-1,16
 414 1049 414 1049 340 1049 c 0,17,18
 273 1049 273 1049 222 1004 c 128,-1,19
 171 959 171 959 159 891 c 0,20,21
 149 824 149 824 187 777 c 128,-1,22
 225 730 225 730 302 730 c 2,23,-1
 700 730 l 1,24,-1
 687 651 l 1,25,-1
 306 651 l 2,0,1
549 -2 m 0,26,27
 440 -9 440 -9 391.5 40 c 128,-1,28
 343 89 343 89 361 198 c 2,29,-1
 575 1490 l 1,30,-1
 664 1490 l 1,31,-1
 452 209 l 2,32,33
 438 129 438 129 466.5 102 c 128,-1,34
 495 75 495 75 567 81 c 0,35,36
 576 81 576 81 582 81.5 c 128,-1,37
 588 82 588 82 595 83 c 1,38,-1
 592 3 l 1,39,40
 583 1 583 1 571.5 0 c 128,-1,41
 560 -1 560 -1 549 -2 c 0,26,27
EndSplineSet
EndChar

StartChar: l.sc
Encoding: 60952 60952 736
Width: 776
GlyphClass: 2
Flags: W
AnchorPoint: "Anchor-1" 270 1087 basechar 0
AnchorPoint: "Anchor-0" 355 0 basechar 0
LayerCount: 2
Fore
SplineSet
44 0 m 1,0,-1
 224 1087 l 1,1,-1
 315 1087 l 1,2,-1
 147 79 l 1,3,-1
 690 79 l 1,4,-1
 676 0 l 1,5,-1
 44 0 l 1,0,-1
EndSplineSet
EndChar

StartChar: m
Encoding: 109 109 737
Width: 1725
GlyphClass: 2
Flags: W
AnchorPoint: "Anchor-1" 953 1087 basechar 0
AnchorPoint: "Anchor-0" 773 0 basechar 0
LayerCount: 2
Fore
SplineSet
68 0 m 1,0,-1
 248 1087 l 1,1,-1
 336 1087 l 1,2,-1
 296 841 l 1,3,-1
 279 844 l 1,4,5
 317 935 317 935 379 992 c 128,-1,6
 441 1049 441 1049 514 1076.5 c 128,-1,7
 587 1104 587 1104 659 1104 c 0,8,9
 743 1104 743 1104 804.5 1069.5 c 128,-1,10
 866 1035 866 1035 900 973 c 128,-1,11
 934 911 934 911 935 827 c 1,12,-1
 913 834 l 1,13,14
 947 918 947 918 1007.5 979 c 128,-1,15
 1068 1040 1068 1040 1146 1072 c 128,-1,16
 1224 1104 1224 1104 1311 1104 c 0,17,18
 1415 1104 1415 1104 1486 1058.5 c 128,-1,19
 1557 1013 1557 1013 1587 926.5 c 128,-1,20
 1617 840 1617 840 1596 717 c 2,21,-1
 1477 0 l 1,22,-1
 1389 0 l 1,23,-1
 1508 723 l 2,24,25
 1525 823 1525 823 1502 888.5 c 128,-1,26
 1479 954 1479 954 1424.5 987 c 128,-1,27
 1370 1020 1370 1020 1292 1020 c 0,28,29
 1205 1020 1205 1020 1129.5 982.5 c 128,-1,30
 1054 945 1054 945 1002.5 875 c 128,-1,31
 951 805 951 805 935 710 c 2,32,-1
 818 0 l 1,33,-1
 729 0 l 1,34,-1
 849 730 l 2,35,36
 873 869 873 869 813.5 944.5 c 128,-1,37
 754 1020 754 1020 638 1020 c 0,38,39
 552 1020 552 1020 474.5 980 c 128,-1,40
 397 940 397 940 343.5 868.5 c 128,-1,41
 290 797 290 797 273 701 c 2,42,-1
 157 0 l 1,43,-1
 68 0 l 1,0,-1
EndSplineSet
Substitution2: "'smcp' Lowercase to Small Capitals in Latin lookup 68 subtable" m.sc
Substitution2: "'c2sc' Capitals to Small Capitals in Latin lookup 67 subtable" m.sc
Substitution2: "'sups' Superscript in Latin lookup 39 subtable" m.sups
Substitution2: "'subs' Subscript in Latin lookup 38 subtable" m.subs
Substitution2: "'sinf' Scientific Inferiors in Latin lookup 18 subtable" m.subs
AlternateSubs2: "'aalt' Access All Alternates in Latin lookup 1 subtable" m.sups m.subs m.sc
EndChar

StartChar: uni0271
Encoding: 625 625 738
Width: 1725
GlyphClass: 2
Flags: W
AnchorPoint: "Anchor-1" 953 1087 basechar 0
AnchorPoint: "Anchor-0" 773 0 basechar 0
LayerCount: 2
Fore
SplineSet
1191 -419 m 0,0,1
 1170 -419 1170 -419 1147.5 -419 c 128,-1,2
 1125 -419 1125 -419 1109 -418 c 1,3,-1
 1121 -338 l 1,4,5
 1138 -338 1138 -338 1160.5 -338 c 128,-1,6
 1183 -338 1183 -338 1195 -338 c 0,7,8
 1269 -338 1269 -338 1306 -306.5 c 128,-1,9
 1343 -275 1343 -275 1356 -203 c 2,10,-1
 1389 0 l 1,11,-1
 1477 0 l 1,12,-1
 1445 -203 l 2,13,14
 1426 -313 1426 -313 1362 -366 c 128,-1,15
 1298 -419 1298 -419 1191 -419 c 0,0,1
68 0 m 1,16,-1
 248 1087 l 1,17,-1
 336 1087 l 1,18,-1
 296 841 l 1,19,-1
 279 844 l 1,20,21
 317 935 317 935 379 992 c 128,-1,22
 441 1049 441 1049 514 1076.5 c 128,-1,23
 587 1104 587 1104 659 1104 c 0,24,25
 743 1104 743 1104 804.5 1069.5 c 128,-1,26
 866 1035 866 1035 900 973 c 128,-1,27
 934 911 934 911 935 827 c 1,28,-1
 913 834 l 1,29,30
 947 918 947 918 1007.5 979 c 128,-1,31
 1068 1040 1068 1040 1146 1072 c 128,-1,32
 1224 1104 1224 1104 1311 1104 c 0,33,34
 1415 1104 1415 1104 1486 1058.5 c 128,-1,35
 1557 1013 1557 1013 1587 926.5 c 128,-1,36
 1617 840 1617 840 1596 717 c 2,37,-1
 1477 0 l 1,38,-1
 1389 0 l 1,39,-1
 1508 723 l 2,40,41
 1525 823 1525 823 1502 888.5 c 128,-1,42
 1479 954 1479 954 1424.5 987 c 128,-1,43
 1370 1020 1370 1020 1292 1020 c 0,44,45
 1205 1020 1205 1020 1129.5 982.5 c 128,-1,46
 1054 945 1054 945 1002.5 875 c 128,-1,47
 951 805 951 805 935 710 c 2,48,-1
 818 0 l 1,49,-1
 729 0 l 1,50,-1
 849 730 l 2,51,52
 873 869 873 869 813.5 944.5 c 128,-1,53
 754 1020 754 1020 638 1020 c 0,54,55
 552 1020 552 1020 474.5 980 c 128,-1,56
 397 940 397 940 343.5 868.5 c 128,-1,57
 290 797 290 797 273 701 c 2,58,-1
 157 0 l 1,59,-1
 68 0 l 1,16,-1
EndSplineSet
EndChar

StartChar: mturn
Encoding: 623 623 739
Width: 1725
GlyphClass: 2
Flags: W
AnchorPoint: "Anchor-1" 953 1087 basechar 0
AnchorPoint: "Anchor-0" 773 0 basechar 0
LayerCount: 2
Fore
SplineSet
1657 1087 m 1,0,-1
 1477 0 l 1,1,-1
 1391 0 l 1,2,-1
 1430 246 l 1,3,-1
 1447 243 l 1,4,5
 1409 155 1409 155 1347.5 97 c 128,-1,6
 1286 39 1286 39 1212.5 11 c 128,-1,7
 1139 -17 1139 -17 1067 -17 c 0,8,9
 983 -17 983 -17 921.5 17.5 c 128,-1,10
 860 52 860 52 826 115.5 c 128,-1,11
 792 179 792 179 791 260 c 1,12,-1
 813 254 l 1,13,14
 779 170 779 170 718.5 109.5 c 128,-1,15
 658 49 658 49 580 16 c 128,-1,16
 502 -17 502 -17 415 -17 c 0,17,18
 312 -17 312 -17 240.5 28.5 c 128,-1,19
 169 74 169 74 139.5 161.5 c 128,-1,20
 110 249 110 249 130 370 c 2,21,-1
 248 1087 l 1,22,-1
 338 1087 l 1,23,-1
 218 364 l 2,24,25
 201 266 201 266 224 200 c 128,-1,26
 247 134 247 134 301.5 100.5 c 128,-1,27
 356 67 356 67 434 67 c 0,28,29
 522 67 522 67 597 104.5 c 128,-1,30
 672 142 672 142 723.5 212 c 128,-1,31
 775 282 775 282 791 377 c 2,32,-1
 909 1087 l 1,33,-1
 998 1087 l 1,34,-1
 877 359 l 2,35,36
 854 219 854 219 913 143 c 128,-1,37
 972 67 972 67 1088 67 c 0,38,39
 1175 67 1175 67 1252 107.5 c 128,-1,40
 1329 148 1329 148 1383 219.5 c 128,-1,41
 1437 291 1437 291 1453 387 c 2,42,-1
 1568 1087 l 1,43,-1
 1657 1087 l 1,0,-1
EndSplineSet
EndChar

StartChar: mturndescend
Encoding: 624 624 740
Width: 1725
GlyphClass: 2
Flags: W
AnchorPoint: "Anchor-1" 953 1087 basechar 0
AnchorPoint: "Anchor-0" 773 0 basechar 0
LayerCount: 2
Fore
SplineSet
1319 -418 m 1,0,-1
 1388 0 l 1,1,-1
 1475 0 l 1,2,-1
 1406 -418 l 1,3,-1
 1319 -418 l 1,0,-1
1657 1087 m 1,4,-1
 1477 0 l 1,5,-1
 1391 0 l 1,6,-1
 1430 246 l 1,7,-1
 1447 243 l 1,8,9
 1409 155 1409 155 1347.5 97 c 128,-1,10
 1286 39 1286 39 1212.5 11 c 128,-1,11
 1139 -17 1139 -17 1067 -17 c 0,12,13
 983 -17 983 -17 921.5 17.5 c 128,-1,14
 860 52 860 52 826 115.5 c 128,-1,15
 792 179 792 179 791 260 c 1,16,-1
 813 254 l 1,17,18
 779 170 779 170 718.5 109.5 c 128,-1,19
 658 49 658 49 580 16 c 128,-1,20
 502 -17 502 -17 415 -17 c 0,21,22
 312 -17 312 -17 240.5 28.5 c 128,-1,23
 169 74 169 74 139.5 161.5 c 128,-1,24
 110 249 110 249 130 370 c 2,25,-1
 248 1087 l 1,26,-1
 338 1087 l 1,27,-1
 218 364 l 2,28,29
 201 266 201 266 224 200 c 128,-1,30
 247 134 247 134 301.5 100.5 c 128,-1,31
 356 67 356 67 434 67 c 0,32,33
 522 67 522 67 597 104.5 c 128,-1,34
 672 142 672 142 723.5 212 c 128,-1,35
 775 282 775 282 791 377 c 2,36,-1
 909 1087 l 1,37,-1
 998 1087 l 1,38,-1
 877 359 l 2,39,40
 854 219 854 219 913 143 c 128,-1,41
 972 67 972 67 1088 67 c 0,42,43
 1175 67 1175 67 1252 107.5 c 128,-1,44
 1329 148 1329 148 1383 219.5 c 128,-1,45
 1437 291 1437 291 1453 387 c 2,46,-1
 1568 1087 l 1,47,-1
 1657 1087 l 1,4,-1
EndSplineSet
EndChar

StartChar: n
Encoding: 110 110 744
Width: 1144
GlyphClass: 2
Flags: W
AnchorPoint: "Anchor-1" 664 1087 basechar 0
AnchorPoint: "Anchor-0" 482 0 basechar 0
LayerCount: 2
Fore
SplineSet
272 691 m 2,0,-1
 158 0 l 1,1,-1
 69 0 l 1,2,-1
 248 1087 l 1,3,-1
 336 1087 l 1,4,-1
 295 840 l 1,5,-1
 274 842 l 1,6,7
 338 976 338 976 449 1039.5 c 128,-1,8
 560 1103 560 1103 686 1103 c 0,9,10
 801 1103 801 1103 881 1055 c 128,-1,11
 961 1007 961 1007 997 918 c 128,-1,12
 1033 829 1033 829 1013 704 c 2,13,-1
 896 0 l 1,14,-1
 807 0 l 1,15,-1
 923 706 l 2,16,17
 948 852 948 852 878.5 936 c 128,-1,18
 809 1020 809 1020 670 1020 c 0,19,20
 573 1020 573 1020 488.5 979.5 c 128,-1,21
 404 939 404 939 346.5 865 c 128,-1,22
 289 791 289 791 272 691 c 2,0,-1
EndSplineSet
Substitution2: "'smcp' Lowercase to Small Capitals in Latin lookup 68 subtable" n.sc
Substitution2: "'c2sc' Capitals to Small Capitals in Latin lookup 67 subtable" n.sc
Substitution2: "'sups' Superscript in Latin lookup 39 subtable" n.sups
Substitution2: "'subs' Subscript in Latin lookup 38 subtable" n.subs
Substitution2: "'numr' Numerators in Latin lookup 19 subtable" n.numr
Substitution2: "'sinf' Scientific Inferiors in Latin lookup 18 subtable" n.subs
AlternateSubs2: "'aalt' Access All Alternates in Latin lookup 1 subtable" n.sc n.numr n.sups n.subs
EndChar

StartChar: nrthook
Encoding: 627 627 746
Width: 1144
GlyphClass: 2
Flags: W
AnchorPoint: "Anchor-1" 664 1087 basechar 0
AnchorPoint: "Anchor-0" 482 0 basechar 0
LayerCount: 2
Fore
SplineSet
956 -419 m 0,0,1
 848 -419 848 -419 801.5 -366 c 128,-1,2
 755 -313 755 -313 773 -203 c 2,3,-1
 807 0 l 1,4,-1
 896 0 l 1,5,-1
 862 -203 l 2,6,7
 851 -275 851 -275 877.5 -306.5 c 128,-1,8
 904 -338 904 -338 976 -338 c 0,9,10
 990 -338 990 -338 1011.5 -338 c 128,-1,11
 1033 -338 1033 -338 1051 -338 c 1,12,-1
 1038 -418 l 1,13,14
 1021 -419 1021 -419 998.5 -419 c 128,-1,15
 976 -419 976 -419 956 -419 c 0,0,1
272 691 m 2,16,-1
 158 0 l 1,17,-1
 69 0 l 1,18,-1
 248 1087 l 1,19,-1
 336 1087 l 1,20,-1
 295 840 l 1,21,-1
 274 842 l 1,22,23
 338 976 338 976 449 1039.5 c 128,-1,24
 560 1103 560 1103 686 1103 c 0,25,26
 801 1103 801 1103 881 1055 c 128,-1,27
 961 1007 961 1007 997 918 c 128,-1,28
 1033 829 1033 829 1013 704 c 2,29,-1
 896 0 l 1,30,-1
 807 0 l 1,31,-1
 923 706 l 2,32,33
 948 852 948 852 878.5 936 c 128,-1,34
 809 1020 809 1020 670 1020 c 0,35,36
 573 1020 573 1020 488.5 979.5 c 128,-1,37
 404 939 404 939 346.5 865 c 128,-1,38
 289 791 289 791 272 691 c 2,16,-1
EndSplineSet
EndChar

StartChar: eng
Encoding: 331 331 747
Width: 1144
GlyphClass: 2
Flags: W
AnchorPoint: "Anchor-1" 664 1087 basechar 0
AnchorPoint: "Anchor-0" 482 0 basechar 0
LayerCount: 2
Fore
SplineSet
525 -418 m 1,0,-1
 538 -334 l 1,1,2
 556 -335 556 -335 579.5 -335.5 c 128,-1,3
 603 -336 603 -336 616 -336 c 0,4,5
 688 -336 688 -336 725 -304.5 c 128,-1,6
 762 -273 762 -273 774 -200 c 2,7,-1
 807 0 l 1,8,-1
 896 0 l 1,9,-1
 862 -203 l 2,10,11
 844 -313 844 -313 779.5 -366 c 128,-1,12
 715 -419 715 -419 608 -419 c 0,13,14
 588 -419 588 -419 565 -419 c 128,-1,15
 542 -419 542 -419 525 -418 c 1,0,-1
272 691 m 2,16,-1
 158 0 l 1,17,-1
 69 0 l 1,18,-1
 248 1087 l 1,19,-1
 336 1087 l 1,20,-1
 295 840 l 1,21,-1
 274 842 l 1,22,23
 338 976 338 976 449 1039.5 c 128,-1,24
 560 1103 560 1103 686 1103 c 0,25,26
 801 1103 801 1103 881 1055 c 128,-1,27
 961 1007 961 1007 997 918 c 128,-1,28
 1033 829 1033 829 1013 704 c 2,29,-1
 896 0 l 1,30,-1
 807 0 l 1,31,-1
 923 706 l 2,32,33
 948 852 948 852 878.5 936 c 128,-1,34
 809 1020 809 1020 670 1020 c 0,35,36
 573 1020 573 1020 488.5 979.5 c 128,-1,37
 404 939 404 939 346.5 865 c 128,-1,38
 289 791 289 791 272 691 c 2,16,-1
EndSplineSet
EndChar

StartChar: uni0235
Encoding: 565 565 748
Width: 1464
GlyphClass: 2
Flags: W
AnchorPoint: "Anchor-1" 664 1087 basechar 0
AnchorPoint: "Anchor-0" 482 0 basechar 0
LayerCount: 2
Fore
SplineSet
1014 -413 m 0,0,1
 927 -413 927 -413 871.5 -376.5 c 128,-1,2
 816 -340 816 -340 793.5 -278 c 128,-1,3
 771 -216 771 -216 784 -141 c 2,4,-1
 827 121 l 1,5,-1
 916 121 l 1,6,-1
 872 -147 l 2,7,8
 857 -234 857 -234 903 -282.5 c 128,-1,9
 949 -331 949 -331 1028 -331 c 0,10,11
 1104 -331 1104 -331 1161 -287.5 c 128,-1,12
 1218 -244 1218 -244 1230 -174 c 256,13,14
 1242 -104 1242 -104 1199.5 -60.5 c 128,-1,15
 1157 -17 1157 -17 1084 -15 c 0,16,17
 1035 -13 1035 -13 986 -34 c 128,-1,18
 937 -55 937 -55 883.5 -103 c 128,-1,19
 830 -151 830 -151 765 -231 c 1,20,-1
 604 -392 l 1,21,-1
 549 -336 l 1,22,-1
 695 -189 l 1,23,24
 813 -51 813 -51 908 7.5 c 128,-1,25
 1003 66 1003 66 1095 66 c 0,26,27
 1208 66 1208 66 1273.5 0 c 128,-1,28
 1339 -66 1339 -66 1321 -173 c 0,29,30
 1304 -281 1304 -281 1218 -347 c 128,-1,31
 1132 -413 1132 -413 1014 -413 c 0,0,1
272 691 m 2,32,-1
 158 0 l 1,33,-1
 69 0 l 1,34,-1
 248 1087 l 1,35,-1
 336 1087 l 1,36,-1
 295 840 l 1,37,-1
 274 842 l 1,38,39
 338 976 338 976 449 1039.5 c 128,-1,40
 560 1103 560 1103 686 1103 c 0,41,42
 801 1103 801 1103 881 1055 c 128,-1,43
 961 1007 961 1007 997 918 c 128,-1,44
 1033 829 1033 829 1013 704 c 2,45,-1
 896 0 l 1,46,-1
 807 0 l 1,47,-1
 923 706 l 2,48,49
 948 852 948 852 878.5 936 c 128,-1,50
 809 1020 809 1020 670 1020 c 0,51,52
 573 1020 573 1020 488.5 979.5 c 128,-1,53
 404 939 404 939 346.5 865 c 128,-1,54
 289 791 289 791 272 691 c 2,32,-1
EndSplineSet
EndChar

StartChar: nlfthook
Encoding: 626 626 749
Width: 1144
GlyphClass: 2
Flags: W
AnchorPoint: "Anchor-1" 664 1087 basechar 0
AnchorPoint: "Anchor-0" 482 0 basechar 0
LayerCount: 2
Fore
SplineSet
-130 -419 m 0,0,1
 -149 -419 -149 -419 -171.5 -419 c 128,-1,2
 -194 -419 -194 -419 -212 -418 c 1,3,-1
 -199 -338 l 1,4,5
 -181 -338 -181 -338 -159.5 -338 c 128,-1,6
 -138 -338 -138 -338 -124 -338 c 0,7,8
 -51 -338 -51 -338 -13.5 -306.5 c 128,-1,9
 24 -275 24 -275 35 -203 c 2,10,-1
 69 0 l 1,11,-1
 158 0 l 1,12,-1
 124 -203 l 2,13,14
 106 -313 106 -313 42 -366 c 128,-1,15
 -22 -419 -22 -419 -130 -419 c 0,0,1
272 691 m 2,16,-1
 158 0 l 1,17,-1
 69 0 l 1,18,-1
 248 1087 l 1,19,-1
 336 1087 l 1,20,-1
 295 840 l 1,21,-1
 274 842 l 1,22,23
 338 976 338 976 449 1039.5 c 128,-1,24
 560 1103 560 1103 686 1103 c 0,25,26
 801 1103 801 1103 881 1055 c 128,-1,27
 961 1007 961 1007 997 918 c 128,-1,28
 1033 829 1033 829 1013 704 c 2,29,-1
 896 0 l 1,30,-1
 807 0 l 1,31,-1
 923 706 l 2,32,33
 948 852 948 852 878.5 936 c 128,-1,34
 809 1020 809 1020 670 1020 c 0,35,36
 573 1020 573 1020 488.5 979.5 c 128,-1,37
 404 939 404 939 346.5 865 c 128,-1,38
 289 791 289 791 272 691 c 2,16,-1
EndSplineSet
EndChar

StartChar: n.sc
Encoding: 60953 60953 760
Width: 1237
GlyphClass: 2
Flags: W
AnchorPoint: "Anchor-1" 709 1087 basechar 0
AnchorPoint: "Anchor-0" 529 0 basechar 0
LayerCount: 2
Fore
SplineSet
69 0 m 1,0,-1
 249 1087 l 1,1,-1
 360 1087 l 1,2,-1
 773 366 l 2,3,4
 818 286 818 286 858 209 c 128,-1,5
 898 132 898 132 936 57 c 1,6,-1
 911 57 l 1,7,8
 919 108 919 108 927 159 c 128,-1,9
 935 210 935 210 943.5 261.5 c 128,-1,10
 952 313 952 313 960 366 c 2,11,-1
 1080 1087 l 1,12,-1
 1169 1087 l 1,13,-1
 989 0 l 1,14,-1
 878 0 l 1,15,-1
 464 724 l 2,16,17
 421 804 421 804 381 879.5 c 128,-1,18
 341 955 341 955 303 1031 c 1,19,-1
 327 1031 l 1,20,21
 319 981 319 981 311 930.5 c 128,-1,22
 303 880 303 880 295 828 c 128,-1,23
 287 776 287 776 277 724 c 2,24,-1
 158 0 l 1,25,-1
 69 0 l 1,0,-1
EndSplineSet
EndChar

StartChar: o
Encoding: 111 111 761
Width: 1140
GlyphClass: 2
Flags: W
AnchorPoint: "Anchor-4" 1046 541 basechar 0
AnchorPoint: "Anchor-1" 661 1087 basechar 0
AnchorPoint: "Anchor-0" 481 0 basechar 0
LayerCount: 2
Fore
SplineSet
482 -21 m 0,0,1
 360 -21 360 -21 271 35 c 128,-1,2
 182 91 182 91 133.5 191 c 128,-1,3
 85 291 85 291 85 423 c 0,4,5
 85 550 85 550 126.5 671.5 c 128,-1,6
 168 793 168 793 244.5 890.5 c 128,-1,7
 321 988 321 988 426.5 1046 c 128,-1,8
 532 1104 532 1104 659 1104 c 0,9,10
 781 1104 781 1104 869.5 1048 c 128,-1,11
 958 992 958 992 1007 892 c 128,-1,12
 1056 792 1056 792 1056 660 c 0,13,14
 1056 533 1056 533 1014.5 411.5 c 128,-1,15
 973 290 973 290 896.5 192 c 128,-1,16
 820 94 820 94 714.5 36.5 c 128,-1,17
 609 -21 609 -21 482 -21 c 0,0,1
484 63 m 0,18,19
 593 63 593 63 682 114.5 c 128,-1,20
 771 166 771 166 834.5 252.5 c 128,-1,21
 898 339 898 339 932.5 445.5 c 128,-1,22
 967 552 967 552 967 660 c 256,23,24
 967 768 967 768 930.5 849 c 128,-1,25
 894 930 894 930 824.5 976 c 128,-1,26
 755 1022 755 1022 657 1022 c 0,27,28
 550 1022 550 1022 461.5 971 c 128,-1,29
 373 920 373 920 308.5 834 c 128,-1,30
 244 748 244 748 209 641.5 c 128,-1,31
 174 535 174 535 174 423 c 0,32,33
 174 261 174 261 255 162 c 128,-1,34
 336 63 336 63 484 63 c 0,18,19
EndSplineSet
Substitution2: "Single Substitution lookup 44 subtable" ordmasculine
Substitution2: "'sups' Superscript in Latin lookup 39 subtable" o.sups
Substitution2: "'subs' Subscript in Latin lookup 38 subtable" o.subs
Substitution2: "'sinf' Scientific Inferiors in Latin lookup 18 subtable" o.subs
AlternateSubs2: "'aalt' Access All Alternates in Latin lookup 1 subtable" ordmasculine o.sups o.subs
EndChar

StartChar: ohorn
Encoding: 417 417 765
Width: 1139
GlyphClass: 2
Flags: W
AnchorPoint: "Anchor-4" 1046 541 basechar 0
AnchorPoint: "Anchor-1" 661 1087 basechar 0
AnchorPoint: "Anchor-0" 481 0 basechar 0
LayerCount: 2
Fore
SplineSet
651 1035 m 1,0,-1
 662 1104 l 1,1,2
 707 1102 707 1102 746.5 1099.5 c 128,-1,3
 786 1097 786 1097 827 1094.5 c 128,-1,4
 868 1092 868 1092 911.5 1090 c 128,-1,5
 955 1088 955 1088 1004 1088 c 0,6,7
 1062 1088 1062 1088 1071 1146 c 2,8,-1
 1099 1311 l 1,9,-1
 1183 1311 l 1,10,-1
 1157 1155 l 2,11,12
 1149 1110 1149 1110 1128 1079.5 c 128,-1,13
 1107 1049 1107 1049 1074 1033.5 c 128,-1,14
 1041 1018 1041 1018 996 1018 c 0,15,16
 909 1019 909 1019 823 1025.5 c 128,-1,17
 737 1032 737 1032 651 1035 c 1,0,-1
482 -21 m 0,18,19
 360 -21 360 -21 271 35 c 128,-1,20
 182 91 182 91 133.5 191 c 128,-1,21
 85 291 85 291 85 423 c 0,22,23
 85 550 85 550 126.5 671.5 c 128,-1,24
 168 793 168 793 244.5 890.5 c 128,-1,25
 321 988 321 988 426.5 1046 c 128,-1,26
 532 1104 532 1104 659 1104 c 0,27,28
 781 1104 781 1104 869.5 1048 c 128,-1,29
 958 992 958 992 1007 892 c 128,-1,30
 1056 792 1056 792 1056 660 c 0,31,32
 1056 533 1056 533 1014.5 411.5 c 128,-1,33
 973 290 973 290 896.5 192 c 128,-1,34
 820 94 820 94 714.5 36.5 c 128,-1,35
 609 -21 609 -21 482 -21 c 0,18,19
484 63 m 0,36,37
 593 63 593 63 682 114.5 c 128,-1,38
 771 166 771 166 834.5 252.5 c 128,-1,39
 898 339 898 339 932.5 445.5 c 128,-1,40
 967 552 967 552 967 660 c 256,41,42
 967 768 967 768 930.5 849 c 128,-1,43
 894 930 894 930 824.5 976 c 128,-1,44
 755 1022 755 1022 657 1022 c 0,45,46
 550 1022 550 1022 461.5 971 c 128,-1,47
 373 920 373 920 308.5 834 c 128,-1,48
 244 748 244 748 209 641.5 c 128,-1,49
 174 535 174 535 174 423 c 0,50,51
 174 261 174 261 255 162 c 128,-1,52
 336 63 336 63 484 63 c 0,36,37
EndSplineSet
EndChar

StartChar: uni1EE1
Encoding: 7905 7905 795
Width: 1139
GlyphClass: 2
Flags: W
AnchorPoint: "Anchor-4" 1046 541 basechar 0
AnchorPoint: "Anchor-1" 729 1495 basechar 0
AnchorPoint: "Anchor-0" 481 0 basechar 0
LayerCount: 2
Fore
SplineSet
482 -21 m 0,0,1
 360 -21 360 -21 271 35 c 128,-1,2
 182 91 182 91 133.5 191 c 128,-1,3
 85 291 85 291 85 423 c 0,4,5
 85 550 85 550 126.5 671.5 c 128,-1,6
 168 793 168 793 244.5 890.5 c 128,-1,7
 321 988 321 988 426.5 1046 c 128,-1,8
 532 1104 532 1104 659 1104 c 0,9,10
 781 1104 781 1104 869.5 1048 c 128,-1,11
 958 992 958 992 1007 892 c 128,-1,12
 1056 792 1056 792 1056 660 c 0,13,14
 1056 533 1056 533 1014.5 411.5 c 128,-1,15
 973 290 973 290 896.5 192 c 128,-1,16
 820 94 820 94 714.5 36.5 c 128,-1,17
 609 -21 609 -21 482 -21 c 0,0,1
484 63 m 0,18,19
 593 63 593 63 682 114.5 c 128,-1,20
 771 166 771 166 834.5 252.5 c 128,-1,21
 898 339 898 339 932.5 445.5 c 128,-1,22
 967 552 967 552 967 660 c 256,23,24
 967 768 967 768 930.5 849 c 128,-1,25
 894 930 894 930 824.5 976 c 128,-1,26
 755 1022 755 1022 657 1022 c 0,27,28
 550 1022 550 1022 461.5 971 c 128,-1,29
 373 920 373 920 308.5 834 c 128,-1,30
 244 748 244 748 209 641.5 c 128,-1,31
 174 535 174 535 174 423 c 0,32,33
 174 261 174 261 255 162 c 128,-1,34
 336 63 336 63 484 63 c 0,18,19
651 1035 m 1,35,-1
 662 1104 l 1,36,37
 707 1102 707 1102 746.5 1099.5 c 128,-1,38
 786 1097 786 1097 827 1094.5 c 128,-1,39
 868 1092 868 1092 911.5 1090 c 128,-1,40
 955 1088 955 1088 1004 1088 c 0,41,42
 1062 1088 1062 1088 1071 1146 c 2,43,-1
 1099 1311 l 1,44,-1
 1183 1311 l 1,45,-1
 1157 1155 l 2,46,47
 1149 1110 1149 1110 1128 1079.5 c 128,-1,48
 1107 1049 1107 1049 1074 1033.5 c 128,-1,49
 1041 1018 1041 1018 996 1018 c 0,50,51
 909 1019 909 1019 823 1025.5 c 128,-1,52
 737 1032 737 1032 651 1035 c 1,35,-1
827 1307 m 0,53,54
 787 1307 787 1307 757.5 1323.5 c 128,-1,55
 728 1340 728 1340 703 1360.5 c 128,-1,56
 678 1381 678 1381 654 1397 c 128,-1,57
 630 1413 630 1413 601 1413 c 0,58,59
 559 1413 559 1413 529.5 1385 c 128,-1,60
 500 1357 500 1357 489 1313 c 1,61,-1
 417 1313 l 1,62,63
 434 1389 434 1389 483.5 1438 c 128,-1,64
 533 1487 533 1487 602 1487 c 0,65,66
 646 1487 646 1487 676 1470 c 128,-1,67
 706 1453 706 1453 729.5 1432.5 c 128,-1,68
 753 1412 753 1412 775.5 1395.5 c 128,-1,69
 798 1379 798 1379 827 1379 c 0,70,71
 865 1379 865 1379 891 1402.5 c 128,-1,72
 917 1426 917 1426 936 1478 c 1,73,-1
 1007 1478 l 1,74,75
 985 1398 985 1398 937 1352.5 c 128,-1,76
 889 1307 889 1307 827 1307 c 0,53,54
EndSplineSet
Ligature2: "'ccmp' Glyph Composition/Decomposition in Latin lookup 6 subtable" ohorn tildecomb
EndChar

StartChar: obar
Encoding: 629 629 808
Width: 1140
GlyphClass: 2
Flags: W
AnchorPoint: "Anchor-4" 1046 541 basechar 0
AnchorPoint: "Anchor-1" 661 1087 basechar 0
AnchorPoint: "Anchor-0" 481 0 basechar 0
LayerCount: 2
Fore
SplineSet
997 584 m 1,0,-1
 984 504 l 1,1,-1
 144 504 l 1,2,-1
 157 584 l 1,3,-1
 997 584 l 1,0,-1
482 -21 m 0,4,5
 360 -21 360 -21 271 35 c 128,-1,6
 182 91 182 91 133.5 191 c 128,-1,7
 85 291 85 291 85 423 c 0,8,9
 85 550 85 550 126.5 671.5 c 128,-1,10
 168 793 168 793 244.5 890.5 c 128,-1,11
 321 988 321 988 426.5 1046 c 128,-1,12
 532 1104 532 1104 659 1104 c 0,13,14
 781 1104 781 1104 869.5 1048 c 128,-1,15
 958 992 958 992 1007 892 c 128,-1,16
 1056 792 1056 792 1056 660 c 0,17,18
 1056 533 1056 533 1014.5 411.5 c 128,-1,19
 973 290 973 290 896.5 192 c 128,-1,20
 820 94 820 94 714.5 36.5 c 128,-1,21
 609 -21 609 -21 482 -21 c 0,4,5
484 63 m 0,22,23
 593 63 593 63 682 114.5 c 128,-1,24
 771 166 771 166 834.5 252.5 c 128,-1,25
 898 339 898 339 932.5 445.5 c 128,-1,26
 967 552 967 552 967 660 c 256,27,28
 967 768 967 768 930.5 849 c 128,-1,29
 894 930 894 930 824.5 976 c 128,-1,30
 755 1022 755 1022 657 1022 c 0,31,32
 550 1022 550 1022 461.5 971 c 128,-1,33
 373 920 373 920 308.5 834 c 128,-1,34
 244 748 244 748 209 641.5 c 128,-1,35
 174 535 174 535 174 423 c 0,36,37
 174 261 174 261 255 162 c 128,-1,38
 336 63 336 63 484 63 c 0,22,23
EndSplineSet
EndChar

StartChar: oe.sc
Encoding: 60954 60954 812
Width: 1436
GlyphClass: 2
Flags: W
AnchorPoint: "Anchor-4" 1280 0 basechar 0
AnchorPoint: "Anchor-3" 943 0 basechar 0
AnchorPoint: "Anchor-1" 1122 1087 basechar 0
AnchorPoint: "Anchor-0" 943 0 basechar 0
LayerCount: 2
Fore
SplineSet
605 0 m 1,0,-1
 785 1087 l 1,1,-1
 1454 1087 l 1,2,-1
 1441 1007 l 1,3,-1
 862 1007 l 1,4,-1
 793 590 l 1,5,-1
 1329 590 l 1,6,-1
 1316 511 l 1,7,-1
 779 511 l 1,8,-1
 709 79 l 1,9,-1
 1293 79 l 1,10,-1
 1280 0 l 1,11,-1
 605 0 l 1,0,-1
487 0 m 2,12,13
 342 0 342 0 244.5 67.5 c 128,-1,14
 147 135 147 135 107.5 257.5 c 128,-1,15
 68 380 68 380 95 544 c 0,16,17
 122 709 122 709 201.5 830.5 c 128,-1,18
 281 952 281 952 399.5 1019.5 c 128,-1,19
 518 1087 518 1087 664 1087 c 2,20,-1
 827 1087 l 1,21,-1
 813 1008 l 1,22,-1
 652 1008 l 2,23,24
 534 1008 534 1008 436 951 c 128,-1,25
 338 894 338 894 272 790 c 128,-1,26
 206 686 206 686 182 543 c 0,27,28
 159 403 159 403 189.5 299 c 128,-1,29
 220 195 220 195 299 137.5 c 128,-1,30
 378 80 378 80 501 79 c 2,31,-1
 660 79 l 1,32,-1
 645 0 l 1,33,-1
 487 0 l 2,12,13
EndSplineSet
EndChar

StartChar: p
Encoding: 112 112 814
Width: 1173
GlyphClass: 2
Flags: W
AnchorPoint: "Anchor-1" 714 1087 basechar 0
AnchorPoint: "Anchor-0" 43 -417 basechar 0
LayerCount: 2
Fore
SplineSet
-1 -418 m 1,0,-1
 248 1087 l 1,1,-1
 335 1087 l 1,2,-1
 295 841 l 1,3,-1
 299 841 l 1,4,5
 336 917 336 917 398 976 c 128,-1,6
 460 1035 460 1035 540 1069 c 128,-1,7
 620 1103 620 1103 711 1103 c 0,8,9
 827 1103 827 1103 911.5 1049.5 c 128,-1,10
 996 996 996 996 1042 899 c 128,-1,11
 1088 802 1088 802 1088 670 c 0,12,13
 1088 545 1088 545 1049.5 422 c 128,-1,14
 1011 299 1011 299 939 199 c 128,-1,15
 867 99 867 99 765.5 39 c 128,-1,16
 664 -21 664 -21 536 -21 c 0,17,18
 442 -21 442 -21 373 14.5 c 128,-1,19
 304 50 304 50 261 110.5 c 128,-1,20
 218 171 218 171 204 245 c 1,21,-1
 198 245 l 1,22,-1
 88 -418 l 1,23,-1
 -1 -418 l 1,0,-1
529 62 m 0,24,25
 638 62 638 62 724.5 115.5 c 128,-1,26
 811 169 811 169 873 257 c 128,-1,27
 935 345 935 345 967 452.5 c 128,-1,28
 999 560 999 560 999 668 c 0,29,30
 999 830 999 830 919.5 925.5 c 128,-1,31
 840 1021 840 1021 700 1021 c 0,32,33
 590 1021 590 1021 503 968 c 128,-1,34
 416 915 416 915 355.5 826.5 c 128,-1,35
 295 738 295 738 264 630 c 128,-1,36
 233 522 233 522 233 414 c 0,37,38
 233 254 233 254 310.5 158 c 128,-1,39
 388 62 388 62 529 62 c 0,24,25
EndSplineSet
Substitution2: "'sups' Superscript in Latin lookup 39 subtable" p.sups
Substitution2: "'subs' Subscript in Latin lookup 38 subtable" p.subs
Substitution2: "'sinf' Scientific Inferiors in Latin lookup 18 subtable" p.subs
AlternateSubs2: "'aalt' Access All Alternates in Latin lookup 1 subtable" p.sups p.subs
EndChar

StartChar: uni048F
Encoding: 1167 1167 815
Width: 1192
GlyphClass: 2
Flags: W
AnchorPoint: "Anchor-1" 708 1087 basechar 0
AnchorPoint: "Anchor-0" 38 -417 basechar 0
LayerCount: 2
Fore
SplineSet
715 305 m 1,0,-1
 964 -3 l 1,1,-1
 895 -63 l 1,2,-1
 647 246 l 1,3,-1
 715 305 l 1,0,-1
-6 -418 m 1,4,-1
 243 1087 l 1,5,-1
 330 1087 l 1,6,-1
 290 841 l 1,7,-1
 293 841 l 1,8,9
 330 917 330 917 392 976 c 128,-1,10
 454 1035 454 1035 534.5 1069 c 128,-1,11
 615 1103 615 1103 705 1103 c 0,12,13
 822 1103 822 1103 906.5 1049.5 c 128,-1,14
 991 996 991 996 1037 899 c 128,-1,15
 1083 802 1083 802 1083 670 c 0,16,17
 1083 545 1083 545 1044.5 422 c 128,-1,18
 1006 299 1006 299 934 199 c 128,-1,19
 862 99 862 99 760 39 c 128,-1,20
 658 -21 658 -21 531 -21 c 0,21,22
 437 -21 437 -21 368 14.5 c 128,-1,23
 299 50 299 50 256 110.5 c 128,-1,24
 213 171 213 171 198 245 c 1,25,-1
 193 245 l 1,26,-1
 83 -418 l 1,27,-1
 -6 -418 l 1,4,-1
524 62 m 0,28,29
 633 62 633 62 719.5 115.5 c 128,-1,30
 806 169 806 169 867.5 257 c 128,-1,31
 929 345 929 345 961 452.5 c 128,-1,32
 993 560 993 560 993 668 c 0,33,34
 993 830 993 830 914 925.5 c 128,-1,35
 835 1021 835 1021 695 1021 c 0,36,37
 584 1021 584 1021 497.5 968 c 128,-1,38
 411 915 411 915 350.5 826.5 c 128,-1,39
 290 738 290 738 258.5 630 c 128,-1,40
 227 522 227 522 227 414 c 0,41,42
 227 254 227 254 305 158 c 128,-1,43
 383 62 383 62 524 62 c 0,28,29
EndSplineSet
EndChar

StartChar: uni01A5
Encoding: 421 421 816
Width: 1173
GlyphClass: 2
Flags: W
AnchorPoint: "Anchor-1" 714 1087 basechar 0
AnchorPoint: "Anchor-0" 43 -417 basechar 0
LayerCount: 2
Fore
SplineSet
212 868 m 1,0,-1
 249 1088 l 1,1,-1
 276 1257 l 2,2,3
 294 1364 294 1364 359 1418 c 128,-1,4
 424 1472 424 1472 533 1472 c 0,5,6
 553 1472 553 1472 575 1472 c 128,-1,7
 597 1472 597 1472 615 1471 c 1,8,-1
 601 1390 l 1,9,10
 583 1390 583 1390 561 1390.5 c 128,-1,11
 539 1391 539 1391 526 1391 c 0,12,13
 454 1391 454 1391 415.5 1360 c 128,-1,14
 377 1329 377 1329 366 1257 c 2,15,-1
 337 1087 l 1,16,-1
 301 868 l 1,17,-1
 212 868 l 1,0,-1
-1 -418 m 1,18,-1
 248 1087 l 1,19,-1
 335 1087 l 1,20,-1
 295 841 l 1,21,-1
 299 841 l 1,22,23
 336 917 336 917 398 976 c 128,-1,24
 460 1035 460 1035 540 1069 c 128,-1,25
 620 1103 620 1103 711 1103 c 0,26,27
 827 1103 827 1103 911.5 1049.5 c 128,-1,28
 996 996 996 996 1042 899 c 128,-1,29
 1088 802 1088 802 1088 670 c 0,30,31
 1088 545 1088 545 1049.5 422 c 128,-1,32
 1011 299 1011 299 939 199 c 128,-1,33
 867 99 867 99 765.5 39 c 128,-1,34
 664 -21 664 -21 536 -21 c 0,35,36
 442 -21 442 -21 373 14.5 c 128,-1,37
 304 50 304 50 261 110.5 c 128,-1,38
 218 171 218 171 204 245 c 1,39,-1
 198 245 l 1,40,-1
 88 -418 l 1,41,-1
 -1 -418 l 1,18,-1
529 62 m 0,42,43
 638 62 638 62 724.5 115.5 c 128,-1,44
 811 169 811 169 873 257 c 128,-1,45
 935 345 935 345 967 452.5 c 128,-1,46
 999 560 999 560 999 668 c 0,47,48
 999 830 999 830 919.5 925.5 c 128,-1,49
 840 1021 840 1021 700 1021 c 0,50,51
 590 1021 590 1021 503 968 c 128,-1,52
 416 915 416 915 355.5 826.5 c 128,-1,53
 295 738 295 738 264 630 c 128,-1,54
 233 522 233 522 233 414 c 0,55,56
 233 254 233 254 310.5 158 c 128,-1,57
 388 62 388 62 529 62 c 0,42,43
EndSplineSet
EndChar

StartChar: q
Encoding: 113 113 820
Width: 1172
GlyphClass: 2
Flags: W
AnchorPoint: "Anchor-1" 677 1087 basechar 0
AnchorPoint: "Anchor-0" 811 -417 basechar 0
LayerCount: 2
Fore
SplineSet
855 -418 m 1,0,-1
 766 -418 l 1,1,-1
 875 241 l 1,2,-1
 870 241 l 1,3,4
 830 165 830 165 769.5 106 c 128,-1,5
 709 47 709 47 630.5 13 c 128,-1,6
 552 -21 552 -21 462 -21 c 0,7,8
 345 -21 345 -21 260.5 33 c 128,-1,9
 176 87 176 87 130 184.5 c 128,-1,10
 84 282 84 282 84 413 c 0,11,12
 84 540 84 540 122.5 662.5 c 128,-1,13
 161 785 161 785 233.5 884.5 c 128,-1,14
 306 984 306 984 408 1043.5 c 128,-1,15
 510 1103 510 1103 636 1103 c 0,16,17
 730 1103 730 1103 800 1068.5 c 128,-1,18
 870 1034 870 1034 913.5 973.5 c 128,-1,19
 957 913 957 913 971 839 c 1,20,-1
 976 839 l 1,21,-1
 1017 1087 l 1,22,-1
 1104 1087 l 1,23,-1
 855 -418 l 1,0,-1
472 62 m 0,24,25
 583 62 583 62 669.5 116 c 128,-1,26
 756 170 756 170 816.5 259 c 128,-1,27
 877 348 877 348 908.5 455.5 c 128,-1,28
 940 563 940 563 940 671 c 0,29,30
 940 831 940 831 863 926 c 128,-1,31
 786 1021 786 1021 645 1021 c 0,32,33
 536 1021 536 1021 449 968 c 128,-1,34
 362 915 362 915 300 827.5 c 128,-1,35
 238 740 238 740 205.5 632.5 c 128,-1,36
 173 525 173 525 173 416 c 0,37,38
 173 254 173 254 252 158 c 128,-1,39
 331 62 331 62 472 62 c 0,24,25
EndSplineSet
Substitution2: "'sups' Superscript in Latin lookup 39 subtable" q.sups
Substitution2: "'subs' Subscript in Latin lookup 38 subtable" q.subs
Substitution2: "'sinf' Scientific Inferiors in Latin lookup 18 subtable" q.subs
AlternateSubs2: "'aalt' Access All Alternates in Latin lookup 1 subtable" q.sups q.subs
EndChar

StartChar: uni02A0
Encoding: 672 672 821
Width: 1172
GlyphClass: 2
Flags: W
AnchorPoint: "Anchor-1" 677 1087 basechar 0
AnchorPoint: "Anchor-0" 811 -417 basechar 0
LayerCount: 2
Fore
SplineSet
979 868 m 1,0,-1
 1016 1088 l 1,1,-1
 1043 1257 l 2,2,3
 1061 1364 1061 1364 1126 1418 c 128,-1,4
 1191 1472 1191 1472 1300 1472 c 0,5,6
 1320 1472 1320 1472 1342 1472 c 128,-1,7
 1364 1472 1364 1472 1382 1471 c 1,8,-1
 1368 1390 l 1,9,10
 1350 1390 1350 1390 1328 1390.5 c 128,-1,11
 1306 1391 1306 1391 1293 1391 c 0,12,13
 1221 1391 1221 1391 1182.5 1360 c 128,-1,14
 1144 1329 1144 1329 1133 1257 c 2,15,-1
 1104 1087 l 1,16,-1
 1068 868 l 1,17,-1
 979 868 l 1,0,-1
855 -418 m 1,18,-1
 766 -418 l 1,19,-1
 875 241 l 1,20,-1
 870 241 l 1,21,22
 830 165 830 165 769.5 106 c 128,-1,23
 709 47 709 47 630.5 13 c 128,-1,24
 552 -21 552 -21 462 -21 c 0,25,26
 345 -21 345 -21 260.5 33 c 128,-1,27
 176 87 176 87 130 184.5 c 128,-1,28
 84 282 84 282 84 413 c 0,29,30
 84 540 84 540 122.5 662.5 c 128,-1,31
 161 785 161 785 233.5 884.5 c 128,-1,32
 306 984 306 984 408 1043.5 c 128,-1,33
 510 1103 510 1103 636 1103 c 0,34,35
 730 1103 730 1103 800 1068.5 c 128,-1,36
 870 1034 870 1034 913.5 973.5 c 128,-1,37
 957 913 957 913 971 839 c 1,38,-1
 976 839 l 1,39,-1
 1017 1087 l 1,40,-1
 1104 1087 l 1,41,-1
 855 -418 l 1,18,-1
472 62 m 0,42,43
 583 62 583 62 669.5 116 c 128,-1,44
 756 170 756 170 816.5 259 c 128,-1,45
 877 348 877 348 908.5 455.5 c 128,-1,46
 940 563 940 563 940 671 c 0,47,48
 940 831 940 831 863 926 c 128,-1,49
 786 1021 786 1021 645 1021 c 0,50,51
 536 1021 536 1021 449 968 c 128,-1,52
 362 915 362 915 300 827.5 c 128,-1,53
 238 740 238 740 205.5 632.5 c 128,-1,54
 173 525 173 525 173 416 c 0,55,56
 173 254 173 254 252 158 c 128,-1,57
 331 62 331 62 472 62 c 0,42,43
EndSplineSet
EndChar

StartChar: qrthook
Encoding: 587 587 822
Width: 1173
GlyphClass: 2
Flags: W
AnchorPoint: "Anchor-4" 924 0 basechar 0
AnchorPoint: "Anchor-1" 659 1087 basechar 0
AnchorPoint: "Anchor-0" 484 0 basechar 0
LayerCount: 2
Fore
SplineSet
984 -419 m 0,0,1
 877 -419 877 -419 831 -365.5 c 128,-1,2
 785 -312 785 -312 803 -203 c 2,3,-1
 878 255 l 1,4,-1
 967 255 l 1,5,-1
 891 -203 l 2,6,7
 879 -276 879 -276 906 -307 c 128,-1,8
 933 -338 933 -338 1005 -338 c 0,9,10
 1018 -338 1018 -338 1040 -338 c 128,-1,11
 1062 -338 1062 -338 1080 -338 c 1,12,-1
 1067 -418 l 1,13,14
 1049 -419 1049 -419 1027 -419 c 128,-1,15
 1005 -419 1005 -419 984 -419 c 0,0,1
455 -21 m 0,16,17
 321 -21 321 -21 230.5 50.5 c 128,-1,18
 140 122 140 122 103.5 249 c 128,-1,19
 67 376 67 376 95 543 c 0,20,21
 123 708 123 708 202 835 c 128,-1,22
 281 962 281 962 395 1032.5 c 128,-1,23
 509 1103 509 1103 643 1103 c 0,24,25
 735 1103 735 1103 804 1068.5 c 128,-1,26
 873 1034 873 1034 915.5 975 c 128,-1,27
 958 916 958 916 970 841 c 1,28,-1
 975 841 l 1,29,-1
 1016 1087 l 1,30,-1
 1104 1087 l 1,31,-1
 924 0 l 1,32,-1
 837 0 l 1,33,-1
 877 243 l 1,34,-1
 870 243 l 1,35,36
 832 169 832 169 770 109 c 128,-1,37
 708 49 708 49 628.5 14 c 128,-1,38
 549 -21 549 -21 455 -21 c 0,16,17
477 62 m 0,39,40
 590 62 590 62 683.5 123.5 c 128,-1,41
 777 185 777 185 840.5 293 c 128,-1,42
 904 401 904 401 928 543 c 0,43,44
 951 685 951 685 924.5 792.5 c 128,-1,45
 898 900 898 900 825.5 960.5 c 128,-1,46
 753 1021 753 1021 640 1021 c 0,47,48
 528 1021 528 1021 433.5 960.5 c 128,-1,49
 339 900 339 900 274 792.5 c 128,-1,50
 209 685 209 685 184 543 c 0,51,52
 161 401 161 401 189.5 292.5 c 128,-1,53
 218 184 218 184 291.5 123 c 128,-1,54
 365 62 365 62 477 62 c 0,39,40
EndSplineSet
EndChar

StartChar: r
Encoding: 114 114 823
Width: 641
GlyphClass: 2
Flags: W
AnchorPoint: "Anchor-1" 487 1087 basechar 0
AnchorPoint: "Anchor-0" 114 0 basechar 0
LayerCount: 2
Fore
SplineSet
69 0 m 1,0,-1
 249 1087 l 1,1,-1
 336 1087 l 1,2,-1
 306 906 l 1,3,-1
 311 906 l 1,4,5
 361 995 361 995 454.5 1047 c 128,-1,6
 548 1099 548 1099 657 1099 c 0,7,8
 671 1099 671 1099 680.5 1098.5 c 128,-1,9
 690 1098 690 1098 701 1098 c 1,10,-1
 686 1008 l 1,11,12
 679 1010 679 1010 666 1011 c 128,-1,13
 653 1012 653 1012 635 1012 c 0,14,15
 547 1012 547 1012 470 973.5 c 128,-1,16
 393 935 393 935 341.5 865 c 128,-1,17
 290 795 290 795 275 702 c 2,18,-1
 158 0 l 1,19,-1
 69 0 l 1,0,-1
EndSplineSet
Substitution2: "'smcp' Lowercase to Small Capitals in Latin lookup 68 subtable" r.sc
Substitution2: "'c2sc' Capitals to Small Capitals in Latin lookup 67 subtable" r.sc
Substitution2: "'sups' Superscript in Latin lookup 39 subtable" r.sups
Substitution2: "'subs' Subscript in Latin lookup 38 subtable" r.subs
Substitution2: "'sinf' Scientific Inferiors in Latin lookup 18 subtable" r.subs
AlternateSubs2: "'aalt' Access All Alternates in Latin lookup 1 subtable" r.sc r.sups r.subs
EndChar

StartChar: rrthook
Encoding: 57437 57437 824
Width: 641
GlyphClass: 2
Flags: W
AnchorPoint: "Anchor-1" 487 1087 basechar 0
AnchorPoint: "Anchor-0" 114 0 basechar 0
LayerCount: 2
Fore
SplineSet
218 -419 m 0,0,1
 110 -419 110 -419 63.5 -366 c 128,-1,2
 17 -313 17 -313 35 -203 c 2,3,-1
 69 0 l 1,4,-1
 158 0 l 1,5,-1
 124 -203 l 2,6,7
 113 -275 113 -275 139.5 -306.5 c 128,-1,8
 166 -338 166 -338 238 -338 c 0,9,10
 252 -338 252 -338 273.5 -338 c 128,-1,11
 295 -338 295 -338 313 -338 c 1,12,-1
 300 -418 l 1,13,14
 283 -419 283 -419 260.5 -419 c 128,-1,15
 238 -419 238 -419 218 -419 c 0,0,1
69 0 m 1,16,-1
 249 1087 l 1,17,-1
 336 1087 l 1,18,-1
 306 906 l 1,19,-1
 311 906 l 1,20,21
 361 995 361 995 454.5 1047 c 128,-1,22
 548 1099 548 1099 657 1099 c 0,23,24
 671 1099 671 1099 680.5 1098.5 c 128,-1,25
 690 1098 690 1098 701 1098 c 1,26,-1
 686 1008 l 1,27,28
 679 1010 679 1010 666 1011 c 128,-1,29
 653 1012 653 1012 635 1012 c 0,30,31
 547 1012 547 1012 470 973.5 c 128,-1,32
 393 935 393 935 341.5 865 c 128,-1,33
 290 795 290 795 275 702 c 2,34,-1
 158 0 l 1,35,-1
 69 0 l 1,16,-1
EndSplineSet
EndChar

StartChar: rturn
Encoding: 633 633 826
Width: 641
GlyphClass: 2
Flags: W
AnchorPoint: "Anchor-1" 528 1087 basechar 0
AnchorPoint: "Anchor-0" 262 0 basechar 0
LayerCount: 2
Fore
SplineSet
573 1087 m 1,0,-1
 393 0 l 1,1,-1
 306 0 l 1,2,-1
 336 182 l 1,3,-1
 331 182 l 1,4,5
 280 94 280 94 187 41 c 128,-1,6
 94 -12 94 -12 -16 -12 c 0,7,8
 -29 -12 -29 -12 -38.5 -11 c 128,-1,9
 -48 -10 -48 -10 -58 -10 c 1,10,-1
 -44 79 l 1,11,12
 -36 79 -36 79 -23.5 77 c 128,-1,13
 -11 75 -11 75 7 75 c 0,14,15
 96 75 96 75 172 114.5 c 128,-1,16
 248 154 248 154 300.5 223.5 c 128,-1,17
 353 293 353 293 368 385 c 2,18,-1
 484 1087 l 1,19,-1
 573 1087 l 1,0,-1
EndSplineSet
EndChar

StartChar: rturnrthook
Encoding: 635 635 827
Width: 641
GlyphClass: 2
Flags: W
AnchorPoint: "Anchor-1" 528 1087 basechar 0
AnchorPoint: "Anchor-0" 262 0 basechar 0
LayerCount: 2
Fore
SplineSet
451 -419 m 0,0,1
 344 -419 344 -419 298.5 -366 c 128,-1,2
 253 -313 253 -313 271 -203 c 2,3,-1
 304 0 l 1,4,-1
 391 0 l 1,5,-1
 358 -203 l 2,6,7
 346 -275 346 -275 372.5 -306.5 c 128,-1,8
 399 -338 399 -338 472 -338 c 0,9,10
 485 -338 485 -338 506.5 -338 c 128,-1,11
 528 -338 528 -338 546 -338 c 1,12,-1
 533 -418 l 1,13,14
 522 -418 522 -418 508 -418 c 128,-1,15
 494 -418 494 -418 479.5 -418.5 c 128,-1,16
 465 -419 465 -419 451 -419 c 0,0,1
573 1087 m 1,17,-1
 393 0 l 1,18,-1
 306 0 l 1,19,-1
 336 182 l 1,20,-1
 331 182 l 1,21,22
 280 94 280 94 187 41 c 128,-1,23
 94 -12 94 -12 -16 -12 c 0,24,25
 -29 -12 -29 -12 -38.5 -11 c 128,-1,26
 -48 -10 -48 -10 -58 -10 c 1,27,-1
 -44 79 l 1,28,29
 -36 79 -36 79 -23.5 77 c 128,-1,30
 -11 75 -11 75 7 75 c 0,31,32
 96 75 96 75 172 114.5 c 128,-1,33
 248 154 248 154 300.5 223.5 c 128,-1,34
 353 293 353 293 368 385 c 2,35,-1
 484 1087 l 1,36,-1
 573 1087 l 1,17,-1
EndSplineSet
EndChar

StartChar: rfishhookrev
Encoding: 639 639 828
Width: 635
Flags: W
LayerCount: 2
Fore
SplineSet
297 0 m 1,0,-1
 422 756 l 2,1,2
 439 859 439 859 411 920.5 c 128,-1,3
 383 982 383 982 320 1008.5 c 128,-1,4
 257 1035 257 1035 170 1035 c 0,5,6
 152 1035 152 1035 139 1035 c 128,-1,7
 126 1035 126 1035 114 1034 c 1,8,-1
 128 1119 l 1,9,10
 135 1119 135 1119 141.5 1119.5 c 128,-1,11
 148 1120 148 1120 159 1120.5 c 128,-1,12
 170 1121 170 1121 184 1121 c 0,13,14
 262 1121 262 1121 329 1100.5 c 128,-1,15
 396 1080 396 1080 442.5 1036 c 128,-1,16
 489 992 489 992 508 921 c 128,-1,17
 527 850 527 850 511 750 c 2,18,-1
 387 0 l 1,19,-1
 297 0 l 1,0,-1
EndSplineSet
EndChar

StartChar: uni027E
Encoding: 638 638 829
Width: 630
Flags: W
LayerCount: 2
Fore
SplineSet
69 0 m 1,0,-1
 194 756 l 2,1,2
 216 887 216 887 280.5 967 c 128,-1,3
 345 1047 345 1047 437.5 1084 c 128,-1,4
 530 1121 530 1121 637 1121 c 0,5,6
 652 1121 652 1121 662 1120.5 c 128,-1,7
 672 1120 672 1120 679 1119.5 c 128,-1,8
 686 1119 686 1119 692 1119 c 1,9,-1
 679 1034 l 1,10,11
 667 1035 667 1035 656.5 1035 c 128,-1,12
 646 1035 646 1035 628 1035 c 0,13,14
 541 1035 541 1035 469 1008 c 128,-1,15
 397 981 397 981 348.5 919.5 c 128,-1,16
 300 858 300 858 283 756 c 2,17,-1
 158 0 l 1,18,-1
 69 0 l 1,0,-1
EndSplineSet
EndChar

StartChar: rdescend
Encoding: 57438 57438 830
Width: 642
GlyphClass: 2
Flags: W
AnchorPoint: "Anchor-1" 488 1087 basechar 0
AnchorPoint: "Anchor-0" 114 0 basechar 0
LayerCount: 2
Fore
SplineSet
0 -418 m 1,0,-1
 69 0 l 1,1,-1
 157 0 l 1,2,-1
 87 -418 l 1,3,-1
 0 -418 l 1,0,-1
70 0 m 1,4,-1
 250 1087 l 1,5,-1
 337 1087 l 1,6,-1
 307 906 l 1,7,-1
 311 906 l 1,8,9
 362 995 362 995 455 1047 c 128,-1,10
 548 1099 548 1099 658 1099 c 0,11,12
 671 1099 671 1099 681 1098.5 c 128,-1,13
 691 1098 691 1098 701 1098 c 1,14,-1
 687 1008 l 1,15,16
 679 1010 679 1010 666.5 1011 c 128,-1,17
 654 1012 654 1012 636 1012 c 0,18,19
 548 1012 548 1012 471 973.5 c 128,-1,20
 394 935 394 935 342 865 c 128,-1,21
 290 795 290 795 275 702 c 2,22,-1
 159 0 l 1,23,-1
 70 0 l 1,4,-1
EndSplineSet
EndChar

StartChar: r.sc
Encoding: 60955 60955 840
Width: 963
GlyphClass: 2
Flags: W
AnchorPoint: "Anchor-1" 581 1087 basechar 0
AnchorPoint: "Anchor-0" 412 0 basechar 0
LayerCount: 2
Fore
SplineSet
69 0 m 1,0,-1
 249 1087 l 1,1,-1
 619 1087 l 2,2,3
 722 1087 722 1087 793 1047.5 c 128,-1,4
 864 1008 864 1008 895.5 936 c 128,-1,5
 927 864 927 864 911 765 c 0,6,7
 895 668 895 668 839.5 595.5 c 128,-1,8
 784 523 784 523 699.5 483.5 c 128,-1,9
 615 444 615 444 510 444 c 2,10,-1
 192 444 l 1,11,-1
 205 523 l 1,12,-1
 517 523 l 2,13,14
 636 523 636 523 720 588.5 c 128,-1,15
 804 654 804 654 822 766 c 0,16,17
 840 876 840 876 782.5 942 c 128,-1,18
 725 1008 725 1008 605 1008 c 2,19,-1
 325 1008 l 1,20,-1
 158 0 l 1,21,-1
 69 0 l 1,0,-1
719 0 m 1,22,-1
 533 493 l 1,23,-1
 627 493 l 1,24,-1
 815 0 l 1,25,-1
 719 0 l 1,22,-1
EndSplineSet
EndChar

StartChar: rinv.sc
Encoding: 60956 60956 841
Width: 1055
Flags: W
LayerCount: 2
Fore
SplineSet
69 0 m 1,0,-1
 249 1087 l 1,1,-1
 338 1087 l 1,2,-1
 172 82 l 1,3,-1
 474 82 l 2,4,5
 616 82 616 82 706 146 c 128,-1,6
 796 210 796 210 815 325 c 0,7,8
 835 438 835 438 765.5 501.5 c 128,-1,9
 696 565 696 565 553 565 c 2,10,-1
 212 565 l 1,11,-1
 224 644 l 1,12,-1
 572 644 l 2,13,14
 749 644 749 644 839 558.5 c 128,-1,15
 929 473 929 473 904 325 c 0,16,17
 888 225 888 225 829 152.5 c 128,-1,18
 770 80 770 80 677.5 40 c 128,-1,19
 585 0 585 0 466 0 c 2,20,-1
 69 0 l 1,0,-1
593 595 m 1,21,-1
 983 1087 l 1,22,-1
 1086 1087 l 1,23,-1
 694 595 l 1,24,-1
 593 595 l 1,21,-1
EndSplineSet
EndChar

StartChar: s
Encoding: 115 115 842
Width: 985
GlyphClass: 2
Flags: W
AnchorPoint: "Anchor-3" 408 0 basechar 0
AnchorPoint: "Anchor-1" 589 1087 basechar 0
AnchorPoint: "Anchor-0" 408 0 basechar 0
LayerCount: 2
Fore
SplineSet
405 -21 m 0,0,1
 301 -21 301 -21 225 12.5 c 128,-1,2
 149 46 149 46 106.5 108 c 128,-1,3
 64 170 64 170 60 258 c 0,4,5
 60 268 60 268 60.5 274 c 128,-1,6
 61 280 61 280 61 291 c 1,7,-1
 148 297 l 1,8,9
 144 180 144 180 212.5 120.5 c 128,-1,10
 281 61 281 61 406 61 c 0,11,12
 500 61 500 61 578.5 94.5 c 128,-1,13
 657 128 657 128 705 187.5 c 128,-1,14
 753 247 753 247 754 323 c 0,15,16
 756 387 756 387 712 424 c 128,-1,17
 668 461 668 461 583 483 c 2,18,-1
 412 525 l 2,19,20
 291 556 291 556 230.5 616 c 128,-1,21
 170 676 170 676 173 770 c 0,22,23
 176 869 176 869 233 944 c 128,-1,24
 290 1019 290 1019 383.5 1061 c 128,-1,25
 477 1103 477 1103 589 1103 c 0,26,27
 734 1103 734 1103 816 1034.5 c 128,-1,28
 898 966 898 966 910 840 c 0,29,30
 911 831 911 831 911 824 c 128,-1,31
 911 817 911 817 910 808 c 1,32,-1
 825 799 l 1,33,34
 824 907 824 907 765 965.5 c 128,-1,35
 706 1024 706 1024 588 1024 c 0,36,37
 500 1024 500 1024 426 991 c 128,-1,38
 352 958 352 958 308 901 c 128,-1,39
 264 844 264 844 263 770 c 0,40,41
 261 707 261 707 306 667 c 128,-1,42
 351 627 351 627 442 604 c 2,43,-1
 613 562 l 2,44,45
 730 534 730 534 789 475.5 c 128,-1,46
 848 417 848 417 844 326 c 0,47,48
 842 249 842 249 806.5 185 c 128,-1,49
 771 121 771 121 710.5 75 c 128,-1,50
 650 29 650 29 572 4 c 128,-1,51
 494 -21 494 -21 405 -21 c 0,0,1
EndSplineSet
Substitution2: "'sups' Superscript in Latin lookup 39 subtable" s.sups
Substitution2: "'subs' Subscript in Latin lookup 38 subtable" s.subs
Substitution2: "'sinf' Scientific Inferiors in Latin lookup 18 subtable" s.subs
AlternateSubs2: "'aalt' Access All Alternates in Latin lookup 1 subtable" s.sups s.subs
EndChar

